<?xml version="1.0" encoding="UTF-8" standalone="no"?>
<!-- Created with Inkscape (http://www.inkscape.org/) -->

<svg
   width="123.11909mm"
   height="123.11962mm"
   viewBox="0 0 123.11909 123.11962"
   version="1.1"
   id="svg1"
   xml:space="preserve"
   inkscape:version="1.3 (0e150ed6c4, 2023-07-21)"
   sodipodi:docname="bossnet_logo_mono.svg"
   xmlns:inkscape="http://www.inkscape.org/namespaces/inkscape"
   xmlns:sodipodi="http://sodipodi.sourceforge.net/DTD/sodipodi-0.dtd"
   xmlns="http://www.w3.org/2000/svg"
   xmlns:svg="http://www.w3.org/2000/svg"><sodipodi:namedview
     id="namedview1"
     pagecolor="#ffffff"
     bordercolor="#000000"
     borderopacity="0.25"
     inkscape:showpageshadow="2"
     inkscape:pageopacity="0.0"
     inkscape:pagecheckerboard="0"
     inkscape:deskcolor="#d1d1d1"
     inkscape:document-units="mm"
     inkscape:zoom="0.70822811"
     inkscape:cx="141.19745"
     inkscape:cy="236.50572"
     inkscape:window-width="1920"
     inkscape:window-height="1012"
     inkscape:window-x="0"
     inkscape:window-y="34"
     inkscape:window-maximized="1"
     inkscape:current-layer="layer1"
     showguides="true" /><defs
     id="defs1" /><g
     inkscape:label="Layer 1"
     inkscape:groupmode="layer"
     id="layer1"
     style="display:inline"
     transform="translate(-45.375346,-65.630555)"><path
       id="path3-1"
       style="display:inline;fill:#000000;fill-opacity:1;stroke:none;stroke-width:0.266259;stroke-opacity:0"
       d="m 106.93488,65.630555 a 61.559719,61.559719 0 0 0 -61.559534,61.560075 61.559719,61.559719 0 0 0 61.559534,61.55955 61.559719,61.559719 0 0 0 61.55956,-61.55955 61.559719,61.559719 0 0 0 -61.55956,-61.560075 z m 0,4.32894 a 57.230839,57.230839 0 0 1 57.23063,57.231135 57.230839,57.230839 0 0 1 -57.23063,57.23062 57.230839,57.230839 0 0 1 -57.2306,-57.23062 57.230839,57.230839 0 0 1 57.2306,-57.231135 z m 0,1.80816 a 55.422817,55.422817 0 0 0 -55.422958,55.422455 55.422817,55.422817 0 0 0 55.422958,55.42298 55.422817,55.422817 0 0 0 55.42299,-55.42298 55.422817,55.422817 0 0 0 -55.42299,-55.422455 z m 13.57541,7.57059 a 0.611,0.611 0 0 1 0.60927,0.61133 l 10e-4,3.43545 h 3.7729 a 0.611,0.611 0 0 1 0.61133,0.61134 0.611,0.611 0 0 1 -0.61133,0.60926 l -3.7729,10e-4 0.001,3.43648 a 0.611,0.611 0 0 1 -0.61133,0.61134 0.611,0.611 0 0 1 -0.61133,-0.61134 v -3.43648 l -3.77135,0.001 a 0.611,0.611 0 0 1 -0.61133,-0.61133 0.611,0.611 0 0 1 0.61133,-0.61133 h 3.77135 v -3.43545 a 0.611,0.611 0 0 1 0.61133,-0.61133 z m -21.337724,0.0796 a 0.77475363,0.77475363 0 0 1 0.77463,0.77463 0.77475363,0.77475363 0 0 1 -0.77463,0.77463 0.77475363,0.77475363 0 0 1 -0.774616,-0.77463 0.77475363,0.77475363 0 0 1 0.774616,-0.77463 z m -10.268606,0.31006 c 0.21378,0.003 0.52559,0.10682 0.53071,0.55139 0.005,0.4446 -0.0802,5.21564 0.0171,6.97167 0.0981,1.77 1.1503,3.03225 2.35903,3.06286 1.20872,0.0306 1.78225,0.0444 2.08669,0.0532 0.30448,0.009 0.46929,0.23917 0.47077,0.55294 -0.001,0.26462 -0.16629,0.45872 -0.47077,0.46612 -0.30444,0.007 -0.87797,0.0191 -2.08669,0.045 -1.20873,0.0258 -2.26094,1.09072 -2.35903,2.5833 -0.0973,1.4808 -0.012,5.50379 -0.0171,5.87871 -0.005,0.374935 -0.31693,0.462695 -0.53071,0.465095 -0.21379,-0.002 -0.5256,-0.0902 -0.53072,-0.465095 -0.005,-0.37492 0.0802,-4.39791 -0.017,-5.87871 -0.0981,-1.49258 -1.15031,-2.55749 -2.35903,-2.5833 -1.20869,-0.0258 -1.78222,-0.0375 -2.0867,-0.045 -0.30448,-0.007 -0.46929,-0.2015 -0.47077,-0.46612 0.001,-0.31377 0.16629,-0.54414 0.47077,-0.55294 0.30448,-0.009 0.87801,-0.0226 2.0867,-0.0532 1.20872,-0.0306 2.26094,-1.29286 2.35903,-3.06286 0.0973,-1.75603 0.0119,-6.52707 0.017,-6.97167 0.005,-0.44457 0.31693,-0.54859 0.53072,-0.55139 z m -6.23632,3.3414 a 0.77475363,0.77475363 0 0 1 0.77463,0.77515 0.77475363,0.77475363 0 0 1 -0.77463,0.77463 0.77475363,0.77475363 0 0 1 -0.77514,-0.77463 0.77475363,0.77475363 0 0 1 0.77514,-0.77515 z m 16.537476,1.39061 a 0.77475363,0.77475363 0 0 1 0.77463,0.77515 0.77475363,0.77475363 0 0 1 -0.77463,0.77463 0.77475363,0.77475363 0 0 1 -0.774616,-0.77463 0.77475363,0.77475363 0 0 1 0.774616,-0.77515 z m 32.482784,1.00149 a 0.77475363,0.77475363 0 0 1 0.77515,0.77515 0.77475363,0.77475363 0 0 1 -0.77515,0.77463 0.77475363,0.77475363 0 0 1 -0.77463,-0.77463 0.77475363,0.77475363 0 0 1 0.77463,-0.77515 z m -24.59024,0.78083 c 0.40387,0.002 0.51896,0.19477 0.52865,0.5824 0.009,0.38762 -0.0144,4.54282 0.0584,6.08283 0.0645,1.36585 1.61112,2.54064 4.90409,2.56418 3.29338,0.0235 3.62302,0.0104 4.19821,0.0181 0.57479,0.008 0.63077,0.23646 0.63355,0.51005 -0.003,0.27355 -0.0588,0.50286 -0.63355,0.51056 -0.57519,0.008 -0.90483,-0.006 -4.19821,0.0181 -3.29297,0.0235 -4.83959,1.19783 -4.90409,2.56367 -0.0728,1.540015 -0.0494,5.695735 -0.0584,6.083355 -0.01,0.38758 -0.12478,0.57989 -0.52865,0.58239 -0.40387,-0.003 -0.51896,-0.19481 -0.52865,-0.58239 -0.009,-0.38762 0.0144,-4.54334 -0.0584,-6.083355 -0.0645,-1.36584 -1.61112,-2.54013 -4.90409,-2.56367 -3.29336,-0.0235 -3.62299,-0.0104 -4.19818,-0.0181 -0.57516,-0.008 -0.63078,-0.23701 -0.63356,-0.51056 0.003,-0.27359 0.0584,-0.50205 0.63356,-0.51005 0.57519,-0.008 0.90482,0.005 4.19818,-0.0181 3.29297,-0.0235 4.83959,-1.19833 4.90409,-2.56418 0.0728,-1.54001 0.0494,-5.69521 0.0584,-6.08283 0.01,-0.38763 0.12478,-0.5804 0.52865,-0.5824 z M 76.529,86.515085 a 0.77475363,0.77475363 0 0 1 0.77463,0.77463 0.77475363,0.77475363 0 0 1 -0.77463,0.77463 0.77475363,0.77475363 0 0 1 -0.77463,-0.77463 0.77475363,0.77475363 0 0 1 0.77463,-0.77463 z m 60.0909,3.58893 a 0.68302,0.68302 0 0 1 0.68368,0.68161 v 3.20963 l 2.55075,-0.001 a 0.68302,0.68302 0 0 1 0.68368,0.68368 0.68302,0.68302 0 0 1 -0.68368,0.68368 h -2.55075 v 3.2091 a 0.68302,0.68302 0 0 1 -0.68368,0.68368 0.68302,0.68302 0 0 1 -0.68161,-0.68368 l -0.001,-3.2091 h -2.55178 a 0.68302,0.68302 0 0 1 -0.68162,-0.68162 0.68302,0.68302 0 0 1 0.68162,-0.68368 l 2.55178,-10e-4 -10e-4,-3.20962 a 0.68302,0.68302 0 0 1 0.68368,-0.68161 z m -58.37679,5.19917 a 0.4861595,0.4861595 0 0 1 0.48627,0.48627 v 2.21382 l 1.87689,-0.001 a 0.4861595,0.4861595 0 0 1 0.48628,0.48628 0.4861595,0.4861595 0 0 1 -0.48628,0.48627 h -1.87689 v 2.214855 a 0.4861595,0.4861595 0 0 1 -0.48472,0.48628 0.4861595,0.4861595 0 0 1 -0.48628,-0.48628 l -0.001,-2.214855 h -1.875886 a 0.4861595,0.4861595 0 0 1 -0.486275,-0.4863 0.4861595,0.4861595 0 0 1 0.486275,-0.48421 l 1.875856,-0.001 -0.001,-2.21382 a 0.4861595,0.4861595 0 0 1 0.48679,-0.48628 z m 46.09899,2.0159 a 3.5596087,3.5596087 0 0 1 3.55947,3.559985 3.5596087,3.5596087 0 0 1 -3.55947,3.55948 3.5596087,3.5596087 0 0 1 -3.55947,-3.55948 3.5596087,3.5596087 0 0 1 3.55947,-3.559985 z m -55.686522,0.28783 a 1.549511,1.549511 0 0 1 1.54926,1.54926 1.549511,1.549511 0 0 1 -1.54926,1.549785 1.549511,1.549511 0 0 1 -1.549776,-1.549785 1.549511,1.549511 0 0 1 1.549776,-1.54926 z m 76.829932,0.53072 a 0.77475363,0.77475363 0 0 1 0.77463,0.77515 0.77475363,0.77475363 0 0 1 -0.77463,0.77463 0.77475363,0.77475363 0 0 1 -0.77463,-0.77463 0.77475363,0.77475363 0 0 1 0.77463,-0.77515 z m -76.829932,0.24391 a 0.77475363,0.77475363 0 0 0 -0.775146,0.77463 0.77475363,0.77475363 0 0 0 0.775146,0.77463 0.77475363,0.77475363 0 0 0 0.77463,-0.77463 0.77475363,0.77475363 0 0 0 -0.77463,-0.77463 z m 55.686522,0.18345 a 2.3138454,2.3138454 0 0 0 -2.31407,2.314075 2.3138454,2.3138454 0 0 0 2.31407,2.31356 2.3138454,2.3138454 0 0 0 2.31355,-2.31356 2.3138454,2.3138454 0 0 0 -2.31355,-2.314075 z m -40.75048,4.857595 a 0.77475363,0.77475363 0 0 1 0.77463,0.77463 0.77475363,0.77475363 0 0 1 -0.77463,0.77463 0.77475363,0.77475363 0 0 1 -0.77463,-0.77463 0.77475363,0.77475363 0 0 1 0.77463,-0.77463 z m 65.14589,1.53686 c 0.19707,10e-4 0.46563,0.11139 0.48266,0.4718 0.017,0.36046 0.0309,1.83318 0.0677,2.9807 0.0368,1.14752 1.18285,2.07013 2.42415,2.08463 1.24089,0.0145 1.389,0.0578 1.66966,0.0625 0.28067,0.005 0.39138,0.25335 0.39274,0.42219 -0.001,0.16884 -0.11207,0.41698 -0.39274,0.42168 -0.28066,0.005 -0.42877,0.048 -1.66966,0.0625 -1.2413,0.0145 -2.38735,0.93715 -2.42415,2.08463 -0.0368,1.14752 -0.0507,2.62024 -0.0677,2.98069 -0.017,0.36046 -0.28559,0.47051 -0.48266,0.47181 -0.19707,-10e-4 -0.46563,-0.11135 -0.48266,-0.47181 -0.017,-0.36045 -0.0314,-1.83317 -0.0682,-2.98069 -0.0368,-1.14748 -1.18233,-2.07013 -2.42363,-2.08463 -1.24089,-0.0145 -1.389,-0.0578 -1.66966,-0.0625 -0.28067,-0.005 -0.39138,-0.25284 -0.39274,-0.42168 0.001,-0.16884 0.11207,-0.41749 0.39274,-0.42219 0.28066,-0.005 0.42877,-0.048 1.66966,-0.0625 1.2413,-0.0145 2.38683,-0.93711 2.42363,-2.08463 0.0368,-1.14752 0.0512,-2.62024 0.0682,-2.9807 0.017,-0.36041 0.28559,-0.4705 0.48266,-0.4718 z m -49.667784,0.0915 a 0.77475363,0.77475363 0 0 1 0.77515,0.77463 0.77475363,0.77475363 0 0 1 -0.77515,0.77463 0.77475363,0.77475363 0 0 1 -0.774616,-0.77463 0.77475363,0.77475363 0 0 1 0.774616,-0.77463 z m 34.650094,0.49454 a 0.77475363,0.77475363 0 0 1 0.77463,0.77463 0.77475363,0.77475363 0 0 1 -0.77463,0.77463 0.77475363,0.77475363 0 0 1 -0.77463,-0.77463 0.77475363,0.77475363 0 0 1 0.77463,-0.77463 z m -61.410718,0.19482 a 0.70008624,0.70008624 0 0 1 0.701249,0.6997 v 39.48596 a 0.70008624,0.70008624 0 0 1 -0.699182,0.70125 0.70008624,0.70008624 0 0 1 -0.701249,-0.70125 v -39.48596 a 0.70008624,0.70008624 0 0 1 0.699182,-0.6997 z m -9.71672,0.62735 a 0.69999999,0.69999999 0 0 1 0.699183,0.69918 l 0.001,3.1285 h 2.534212 a 0.68302,0.68302 0 0 1 0.68368,0.68212 0.68302,0.68302 0 0 1 -0.68368,0.68317 l -2.534212,10e-4 10e-4,3.12797 a 0.69999999,0.69999999 0 0 1 -0.70125,0.69918 0.69999999,0.69999999 0 0 1 -0.699182,-0.69918 l -10e-4,-3.12797 -2.534212,0.001 a 0.68302,0.68302 0 0 1 -0.68368,-0.68368 0.68302,0.68302 0 0 1 0.68368,-0.68316 h 2.534212 l -10e-4,-3.12901 a 0.69999999,0.69999999 0 0 1 0.701249,-0.69918 z m 54.279368,0.4098 a 0.52183503,0.52183503 0 0 1 0.52142,0.52348 v 2.63601 l 1.80454,-10e-4 a 0.52183503,0.52183503 0 0 1 0.52193,0.52349 0.52183503,0.52183503 0 0 1 -0.52193,0.52141 h -1.80454 v 2.63653 a 0.52183503,0.52183503 0 0 1 -0.52142,0.52142 0.52183503,0.52183503 0 0 1 -0.52141,-0.52142 l -0.001,-2.63653 h -1.80352 a 0.52183503,0.52183503 0 0 1 -0.52348,-0.52141 0.52183503,0.52183503 0 0 1 0.52348,-0.52142 l 1.80352,-10e-4 -0.001,-2.63601 a 0.52183503,0.52183503 0 0 1 0.52348,-0.52349 z m -27.78486,1.20767 a 0.77475363,0.77475363 0 0 1 0.77463,0.77463 0.77475363,0.77475363 0 0 1 -0.77463,0.77515 0.77475363,0.77475363 0 0 1 -0.77515,-0.77515 0.77475363,0.77475363 0 0 1 0.77515,-0.77463 z m -11.0169,2.04432 a 1.549511,1.549511 0 0 1 1.54926,1.54926 1.549511,1.549511 0 0 1 -1.54926,1.54978 1.549511,1.549511 0 0 1 -1.54978,-1.54978 1.549511,1.549511 0 0 1 1.54978,-1.54926 z m 61.02056,0.35761 a 0.70042634,0.70042634 0 0 1 0.70125,0.69918 v 34.93947 a 0.70042634,0.70042634 0 0 1 -0.70125,0.70125 0.70042634,0.70042634 0 0 1 -0.69918,-0.70125 l -0.002,-34.93947 a 0.70042634,0.70042634 0 0 1 0.70125,-0.69918 z m -61.02056,0.41702 a 0.77475363,0.77475363 0 0 0 -0.77515,0.77463 0.77475363,0.77475363 0 0 0 0.77515,0.77463 0.77475363,0.77475363 0 0 0 0.77463,-0.77463 0.77475363,0.77475363 0 0 0 -0.77463,-0.77463 z m 20.936696,0.83199 a 0.77475363,0.77475363 0 0 1 0.77462,0.77463 0.77475363,0.77475363 0 0 1 -0.77462,0.77463 0.77475363,0.77475363 0 0 1 -0.774616,-0.77463 0.77475363,0.77475363 0 0 1 0.774616,-0.77463 z m -9.947696,1.54461 a 0.77475363,0.77475363 0 0 1 0.77463,0.77463 0.77475363,0.77475363 0 0 1 -0.77463,0.77463 0.77475363,0.77475363 0 0 1 -0.77463,-0.77463 0.77475363,0.77475363 0 0 1 0.77463,-0.77463 z m 18.13738,0.67231 a 0.77475363,0.77475363 0 0 1 0.77463,0.77463 0.77475363,0.77475363 0 0 1 -0.77463,0.77463 0.77475363,0.77475363 0 0 1 -0.77463,-0.77463 0.77475363,0.77475363 0 0 1 0.77463,-0.77463 z m 17.14573,0.1385 a 0.77475363,0.77475363 0 0 1 0.77515,0.77462 0.77475363,0.77475363 0 0 1 -0.77515,0.77515 0.77475363,0.77475363 0 0 1 -0.77463,-0.77515 0.77475363,0.77475363 0 0 1 0.77463,-0.77462 z m 10.30118,0.83147 a 0.77475363,0.77475363 0 0 1 0.77463,0.77463 0.77475363,0.77475363 0 0 1 -0.77463,0.77463 0.77475363,0.77475363 0 0 1 -0.77463,-0.77463 0.77475363,0.77475363 0 0 1 0.77463,-0.77463 z m -33.73852,3.23029 c 1.36586,0 2.46824,0.44057 3.30678,1.3224 0.83843,0.8736 1.2578,2.02779 1.2578,3.46181 0,1.33512 -0.415,2.4477 -1.24489,3.33778 -0.82114,0.88184 -1.92363,1.3224 -3.30677,1.3224 -1.374504,0 -2.47688,-0.44056 -3.30676,-1.3224 -0.82988,-0.88184 -1.24489,-2.01533 -1.24489,-3.39979 0,-1.38457 0.41501,-2.51796 1.24489,-3.3998 0.83853,-0.88183 1.936626,-1.3224 3.29384,-1.3224 z m 12.33258,0 c 0.3285,0 0.64415,0.0203 0.94671,0.0615 0.31121,0.0412 0.6397,0.12807 0.98548,0.25993 0.34579,0.12362 0.64383,0.28851 0.89452,0.49454 0.2507,0.1978 0.45845,0.47764 0.6227,0.84026 0.1729,0.35439 0.25942,0.76686 0.25942,1.23662 h -1.81539 c -0.0692,-0.93953 -0.73092,-1.40973 -1.98439,-1.40973 -0.50139,0 -0.89877,0.1035 -1.19269,0.30954 -0.29392,0.19779 -0.4408,0.46515 -0.4408,0.80305 0,0.32966 0.12499,0.57724 0.37569,0.74207 0.25069,0.15659 0.72229,0.30067 1.41386,0.43254 l 1.47796,0.27181 c 0.87311,0.16483 1.50869,0.44519 1.90634,0.84078 0.39766,0.38735 0.59635,0.93558 0.59635,1.64434 0,0.91481 -0.3413,1.63156 -1.02423,2.15078 -0.68293,0.51097 -1.63417,0.76636 -2.85306,0.76636 -1.21025,0 -2.15252,-0.25539 -2.8267,-0.76636 -0.66564,-0.51097 -1.02883,-1.24853 -1.08934,-2.21279 h 1.89342 c 0.0346,0.48625 0.23327,0.85711 0.59635,1.1126 0.36307,0.25548 0.87314,0.38343 1.53014,0.38343 0.58783,0 1.05037,-0.10714 1.38752,-0.32142 0.34578,-0.21428 0.51883,-0.51128 0.51883,-0.89039 0,-0.36262 -0.13406,-0.64246 -0.40204,-0.84026 -0.26799,-0.19779 -0.72626,-0.35445 -1.37461,-0.46973 l -1.32291,-0.24754 c -0.95956,-0.17297 -1.64216,-0.4451 -2.04846,-0.81597 -0.4063,-0.37086 -0.60978,-0.90661 -0.60978,-1.60713 0,-0.88184 0.31148,-1.56167 0.93379,-2.03967 0.63106,-0.48625 1.51287,-0.72916 2.64532,-0.72916 z m 11.81376,0 c 0.3285,0 0.64415,0.0203 0.94671,0.0615 0.31121,0.0412 0.63969,0.12807 0.98547,0.25993 0.34579,0.12362 0.64434,0.28851 0.89504,0.49454 0.25069,0.1978 0.45793,0.47764 0.62218,0.84026 0.1729,0.35439 0.25942,0.76686 0.25942,1.23662 h -1.8154 c -0.0692,-0.93953 -0.73038,-1.40973 -1.98385,-1.40973 -0.50139,0 -0.89929,0.1035 -1.19321,0.30954 -0.29392,0.19779 -0.4408,0.46515 -0.4408,0.80305 0,0.32966 0.12551,0.57724 0.3762,0.74207 0.2507,0.15659 0.72178,0.30067 1.41335,0.43254 l 1.47847,0.27181 c 0.87301,0.16483 1.50817,0.44519 1.90582,0.84078 0.39766,0.38735 0.59635,0.93558 0.59635,1.64434 0,0.91481 -0.3413,1.63156 -1.02423,2.15078 -0.68293,0.51097 -1.63364,0.76636 -2.85254,0.76636 -1.21025,0 -2.15242,-0.25539 -2.8267,-0.76636 -0.66564,-0.51097 -1.02883,-1.24853 -1.08934,-2.21279 h 1.89291 c 0.0346,0.48625 0.23379,0.85711 0.59686,1.1126 0.36308,0.25548 0.87263,0.38343 1.52963,0.38343 0.58773,0 1.05037,-0.10714 1.38751,-0.32142 0.34578,-0.21428 0.51883,-0.51128 0.51883,-0.89039 0,-0.36262 -0.13406,-0.64246 -0.40204,-0.84026 -0.26799,-0.19779 -0.72625,-0.35445 -1.3746,-0.46973 l -1.3224,-0.24754 c -0.95955,-0.17297 -1.64267,-0.4451 -2.04897,-0.81597 -0.4063,-0.37086 -0.60926,-0.90661 -0.60926,-1.60713 0,-0.88184 0.31138,-1.56167 0.93379,-2.03967 0.63106,-0.48625 1.51235,-0.72916 2.6448,-0.72916 z m -40.27816,0.14832 h 4.21422 c 0.58782,0 1.09363,0.0822 1.51722,0.24701 0.43222,0.16483 0.75165,0.37913 0.95911,0.64285 0.21612,0.25549 0.37206,0.50723 0.46715,0.75448 0.0951,0.24724 0.14263,0.49015 0.14263,0.72915 0,0.38735 -0.0993,0.72128 -0.29817,1.00149 -0.19882,0.28021 -0.53211,0.56421 -0.99891,0.85266 1.046,0.58515 1.56942,1.3149 1.56942,2.1885 0,0.29669 -0.0518,0.58485 -0.15555,0.86506 -0.10374,0.28021 -0.27251,0.55641 -0.50591,0.82838 -0.22476,0.27197 -0.56607,0.49043 -1.02423,0.65525 -0.45817,0.16483 -1.00296,0.24702 -1.63401,0.24702 h -4.25297 z m 16.14474,1.43402 c -0.78666,0 -1.418074,0.28816 -1.893424,0.86506 -0.475446,0.56866 -0.713126,1.32703 -0.713126,2.2748 0,0.94777 0.23768,1.71029 0.713126,2.2872 0.47535,0.56856 1.106764,0.85266 1.893424,0.85266 0.77802,0 1.40453,-0.2841 1.87999,-0.85266 0.4841,-0.56867 0.72657,-1.31465 0.72657,-2.23759 0,-0.9725 -0.23768,-1.74751 -0.71314,-2.32441 -0.46681,-0.5769 -1.09811,-0.86506 -1.89342,-0.86506 z m -14.20015,0.1111 v 2.03967 h 2.11408 c 0.91632,0 1.37408,-0.33757 1.37408,-1.01338 0,-0.68394 -0.45776,-1.02629 -1.37408,-1.02629 z m -18.480531,1.51929 a 0.70021498,0.70021498 0 0 1 0.701249,0.70125 0.70021498,0.70021498 0 0 1 -0.701249,0.69918 l -12.177551,0.002 a 0.70021498,0.70021498 0 0 1 -0.701249,-0.70125 0.70021498,0.70021498 0 0 1 0.701249,-0.69919 z m 77.394241,0.23254 h 12.18013 a 0.70021498,0.70021498 0 0 1 0.69919,0.70125 0.70021498,0.70021498 0 0 1 -0.69919,0.69918 h -12.18013 a 0.70021498,0.70021498 0 0 1 -0.69918,-0.69918 0.70021498,0.70021498 0 0 1 0.69918,-0.70125 z M 86.71753,123.332 v 2.33629 h 2.3213 c 0.95955,0 1.43919,-0.3875 1.43919,-1.1622 0,-0.78294 -0.47964,-1.17409 -1.43919,-1.17409 z m 55.41573,1.58802 a 0.70039999,0.70039999 0 0 1 0.6997,0.70125 v 26.08419 a 0.70039999,0.70039999 0 0 1 -0.6997,0.69919 0.70039999,0.70039999 0 0 1 -0.70073,-0.69919 v -26.08419 a 0.70039999,0.70039999 0 0 1 0.70073,-0.70125 z m -65.24666,0.28422 a 0.77475363,0.77475363 0 0 1 0.77463,0.77463 0.77475363,0.77475363 0 0 1 -0.77463,0.77463 0.77475363,0.77475363 0 0 1 -0.77463,-0.77463 0.77475363,0.77475363 0 0 1 0.77463,-0.77463 z m -14.486454,1.03714 a 1.549511,1.549511 0 0 1 1.549776,1.54926 1.549511,1.549511 0 0 1 -1.549776,1.54978 1.549511,1.549511 0 0 1 -1.549259,-1.54978 1.549511,1.549511 0 0 1 1.549259,-1.54926 z m 88.993534,0.0383 a 1.549511,1.549511 0 0 1 1.54926,1.54925 1.549511,1.549511 0 0 1 -1.54926,1.54978 1.549511,1.549511 0 0 1 -1.54978,-1.54978 1.549511,1.549511 0 0 1 1.54978,-1.54925 z m -88.993534,0.73638 a 0.77475363,0.77475363 0 0 0 -0.77463,0.77463 0.77475363,0.77475363 0 0 0 0.77463,0.77463 0.77475363,0.77475363 0 0 0 0.775147,-0.77463 0.77475363,0.77475363 0 0 0 -0.775147,-0.77463 z m 88.993534,0.0382 a 0.77475363,0.77475363 0 0 0 -0.77515,0.77463 0.77475363,0.77475363 0 0 0 0.77515,0.77463 0.77475363,0.77475363 0 0 0 0.77463,-0.77463 0.77475363,0.77475363 0 0 0 -0.77463,-0.77463 z m -95.745577,0.21084 a 0.77475363,0.77475363 0 0 1 0.77463,0.77515 0.77475363,0.77475363 0 0 1 -0.77463,0.77463 0.77475363,0.77475363 0 0 1 -0.774629,-0.77463 0.77475363,0.77475363 0 0 1 0.774629,-0.77515 z m 102.498647,0.0388 a 0.77475363,0.77475363 0 0 1 0.77463,0.77463 0.77475363,0.77475363 0 0 1 -0.77463,0.77463 0.77475363,0.77475363 0 0 1 -0.77514,-0.77463 0.77475363,0.77475363 0 0 1 0.77514,-0.77463 z m -62.6587,2.92334 h 1.33584 l 2.505766,4.10001 v -4.10001 h 1.300704 v 6.0265 h -1.300704 l -2.540906,-4.16667 v 4.16667 h -1.3007 z m 9.5131,0 h 4.56975 v 1.03301 h -3.26905 v 1.36426 h 3.02617 v 1.03301 h -3.02617 v 1.56269 h 3.42511 v 1.03353 h -4.72581 z m 8.31629,0 h 5.0643 v 1.03301 h -1.84743 v 4.99349 h -1.3007 v -4.99349 h -1.91617 z m -44.180237,0.90589 a 0.69999999,0.69999999 0 0 1 0.699182,0.69918 v 19.69332 a 0.69999999,0.69999999 0 0 1 -0.699182,0.69918 0.69999999,0.69999999 0 0 1 -0.699183,-0.69918 l -0.0016,-19.69337 a 0.69999999,0.69999999 0 0 1 0.700733,-0.69918 z m 6.049243,1.82831 a 0.70003998,0.70003998 0 0 1 0.700732,0.70125 v 24.99795 a 0.70003998,0.70003998 0 0 1 -0.699182,0.69919 0.70003998,0.70003998 0 0 1 -0.700732,-0.69919 v -24.99795 a 0.70003998,0.70003998 0 0 1 0.699182,-0.70125 z m -10.368876,0.29662 h 0.162264 a 0.80445631,0.79317498 0 0 1 0.804602,0.79478 0.80445631,0.79317498 0 0 1 -0.804602,0.79324 H 64.81757 a 0.80445631,0.79317498 0 0 1 -0.804086,-0.79324 0.80445631,0.79317498 0 0 1 0.804086,-0.79478 z m 14.84613,0 h 0.16071 a 0.80445631,0.79317498 0 0 1 0.80409,0.79323 0.80445631,0.79317498 0 0 1 -0.80409,0.79479 H 79.6637 a 0.80445631,0.79317498 0 0 1 -0.80409,-0.79479 0.80445631,0.79317498 0 0 1 0.80409,-0.79323 z m 4.18165,0 h 0.16278 a 0.80445631,0.79317498 0 0 1 0.80409,0.79323 0.80445631,0.79317498 0 0 1 -0.80409,0.79479 h -0.16278 a 0.80445631,0.79317498 0 0 1 -0.80409,-0.79479 0.80445631,0.79317498 0 0 1 0.80409,-0.79323 z m 4.18372,0 h 0.16072 a 0.80445631,0.79317498 0 0 1 0.80408,0.79323 0.80445631,0.79317498 0 0 1 -0.80408,0.79272 h -0.16072 a 0.80445631,0.79317498 0 0 1 -0.80408,-0.79272 0.80445631,0.79317498 0 0 1 0.80408,-0.79323 z m 4.18373,0 h 0.16071 a 0.80445631,0.79317498 0 0 1 0.80409,0.79323 0.80445631,0.79317498 0 0 1 -0.80409,0.79272 H 92.2128 a 0.80445631,0.79317498 0 0 1 -0.80409,-0.79272 0.80445631,0.79317498 0 0 1 0.80409,-0.79323 z m 29.28193,0 h 0.1602 a 0.80445631,0.79317498 0 0 1 0.80408,0.79323 0.80445631,0.79317498 0 0 1 -0.80408,0.79272 h -0.1602 a 0.80445631,0.79317498 0 0 1 -0.8046,-0.79272 0.80445631,0.79317498 0 0 1 0.8046,-0.79323 z m 4.18372,0 h 0.1602 a 0.80445631,0.79317498 0 0 1 0.80408,0.79323 0.80445631,0.79317498 0 0 1 -0.80408,0.79272 h -0.1602 a 0.80445631,0.79317498 0 0 1 -0.8046,-0.79272 0.80445631,0.79317498 0 0 1 0.8046,-0.79323 z m 4.18321,0 h 0.16071 a 0.80445631,0.79317498 0 0 1 0.80409,0.79323 0.80445631,0.79317498 0 0 1 -0.80409,0.79272 h -0.16071 a 0.80445631,0.79317498 0 0 1 -0.80615,-0.79272 0.80445631,0.79317498 0 0 1 0.80615,-0.79323 z m 4.18166,0 h 0.16278 a 0.80445631,0.79317498 0 0 1 0.80408,0.79323 0.80445631,0.79317498 0 0 1 -0.80408,0.79272 h -0.16278 a 0.80445631,0.79317498 0 0 1 -0.80409,-0.79272 0.80445631,0.79317498 0 0 1 0.80409,-0.79323 z m 14.43787,0 h 0.16227 a 0.80445631,0.79317498 0 0 1 0.8046,0.79323 0.80445631,0.79317498 0 0 1 -0.8046,0.79272 h -0.16227 a 0.80445631,0.79317498 0 0 1 -0.80408,-0.79272 0.80445631,0.79317498 0 0 1 0.80408,-0.79323 z m 4.18373,0 h 0.1602 a 0.80445631,0.79317498 0 0 1 0.8046,0.79323 0.80445631,0.79317498 0 0 1 -0.8046,0.79272 h -0.1602 a 0.80445631,0.79317498 0 0 1 -0.8046,-0.79272 0.80445631,0.79317498 0 0 1 0.8046,-0.79323 z m 4.18372,0 h 0.1602 a 0.80445631,0.79317498 0 0 1 0.80408,0.79323 0.80445631,0.79317498 0 0 1 -0.80408,0.79272 h -0.1602 a 0.80445631,0.79317498 0 0 1 -0.8046,-0.79272 0.80445631,0.79317498 0 0 1 0.8046,-0.79323 z m -100.396451,0.002 h 0.160713 a 0.80445631,0.79317498 0 0 1 0.804086,0.79323 0.80445631,0.79317498 0 0 1 -0.804086,0.79272 h -0.160713 a 0.80445631,0.79317498 0 0 1 -0.804086,-0.79272 0.80445631,0.79317498 0 0 1 0.804086,-0.79323 z m 4.183724,0 h 0.160713 a 0.80445631,0.79317498 0 0 1 0.804086,0.79323 0.80445631,0.79317498 0 0 1 -0.804086,0.79272 h -0.160713 a 0.80445631,0.79317498 0 0 1 -0.804086,-0.79272 0.80445631,0.79317498 0 0 1 0.804086,-0.79323 z m 75.413487,5.97844 a 0.70035499,0.70035499 0 0 1 0.69918,0.70125 v 17.1912 a 0.70035499,0.70035499 0 0 1 -0.69918,0.70125 0.70035499,0.70035499 0 0 1 -0.70125,-0.70125 v -17.1912 a 0.70035499,0.70035499 0 0 1 0.70125,-0.70125 z m -25.3256,1.4025 a 1.0389972,0.54937168 0 0 1 1.03921,0.54932 1.0389972,0.54937168 0 0 1 -1.03921,0.54932 h -10.39213 a 1.0389972,0.54937168 0 0 1 -1.039214,-0.54932 1.0389972,0.54937168 0 0 1 1.039214,-0.54828 l 10.39213,-5.2e-4 z m 4.95681,5.2e-4 h 17.23099 a 0.86148968,0.54937168 0 0 1 0.86197,0.54932 0.86148968,0.54937168 0 0 1 -0.86197,0.54932 h -17.23099 a 0.86148968,0.54937168 0 0 1 -0.86144,-0.54932 0.86148968,0.54937168 0 0 1 0.86144,-0.54932 z m 30.7852,0 h 9.79889 a 0.97991908,0.54937168 0 0 1 0.97978,0.54932 0.97991908,0.54937168 0 0 1 -0.97978,0.54932 h -9.79889 a 0.97991908,0.54937168 0 0 1 -0.9803,-0.54932 0.97991908,0.54937168 0 0 1 0.9803,-0.54932 z m -51.2687,5.2e-4 v 5.1e-4 a 0.83690493,0.54937168 0 0 1 0.83716,0.54984 0.83690493,0.54937168 0 0 1 -0.83716,0.54829 l -16.73903,5.1e-4 a 0.83690493,0.54937168 0 0 1 -0.83509,-0.54932 0.83690493,0.54937168 0 0 1 0.83509,-0.54932 z m -38.117569,5.1e-4 h 7.172172 a 0.81492429,0.54937168 0 0 1 0.815454,0.54932 0.81492429,0.54937168 0 0 1 -0.815454,0.54932 h -7.172172 a 0.81492429,0.54937168 0 0 1 -0.814938,-0.54932 0.81492429,0.54937168 0 0 1 0.814938,-0.54932 z m 9.014953,1.45728 a 0.70008999,0.70008999 0 0 1 0.699182,0.70125 v 9.48262 a 0.70008999,0.70008999 0 0 1 -0.699182,0.70073 0.70008999,0.70008999 0 0 1 -0.699182,-0.70073 l -0.0021,-9.48262 a 0.70008999,0.70008999 0 0 1 0.701249,-0.70125 z m 82.146406,0.46095 a 0.70024502,0.70024502 0 0 1 0.70125,0.70125 v 9.6914 a 0.70024502,0.70024502 0 0 1 -0.69918,0.69918 0.70024502,0.70024502 0 0 1 -0.70125,-0.69918 v -9.6914 a 0.70024502,0.70024502 0 0 1 0.69918,-0.70125 z m -89.430199,2.66134 h 4.549076 a 0.56863996,0.49234886 0 0 1 0.567924,0.49247 0.56863996,0.49234886 0 0 1 -0.567924,0.49248 h -4.549076 a 0.56863996,0.49234886 0 0 1 -0.568957,-0.49248 0.56863996,0.49234886 0 0 1 0.568957,-0.49247 z m 92.011439,0.008 4.48913,5.2e-4 a 0.56111906,0.49234886 0 0 1 0.5612,0.49247 0.56111906,0.49234886 0 0 1 -0.5612,0.49196 l -4.48913,5.2e-4 a 0.56111906,0.49234886 0 0 1 -0.56018,-0.49248 0.56111906,0.49234886 0 0 1 0.56018,-0.49299 z m -6.15157,0.001 h 1.21853 a 0.64977324,0.49234886 0 0 1 0.64854,0.49145 0.64977324,0.49234886 0 0 1 -0.64854,0.49247 h -1.21853 a 0.64977324,0.49234886 0 0 1 -0.65008,-0.49247 0.64977324,0.49234886 0 0 1 0.65008,-0.49145 z m -66.11534,0.0367 h 14.8978 a 0.93121761,0.50791969 0 0 1 0.93225,0.5085 0.93121761,0.50791969 0 0 1 -0.93225,0.50746 h -14.8978 a 0.93121761,0.50791969 0 0 1 -0.93224,-0.50746 0.93121761,0.50791969 0 0 1 0.93224,-0.5085 z m 18.27537,0 h 1.63091 a 0.81550002,0.50791969 0 0 1 0.816476,0.5085 0.81550002,0.50791969 0 0 1 -0.816476,0.50746 H 96.8306 a 0.81550002,0.50791969 0 0 1 -0.81442,-0.50746 0.81550002,0.50791969 0 0 1 0.81442,-0.5085 z m 4.89478,0 h 13.04676 a 0.81550002,0.50791969 0 0 1 0.81649,0.5085 0.81550002,0.50791969 0 0 1 -0.81649,0.50746 h -13.04676 a 0.81550002,0.50791969 0 0 1 -0.81649,-0.50746 0.81550002,0.50791969 0 0 1 0.81649,-0.5085 z m 16.30858,0 h 1.63091 a 0.81550002,0.50791969 0 0 1 0.81648,0.5085 0.81550002,0.50791969 0 0 1 -0.81648,0.50746 h -1.63091 a 0.81550002,0.50791969 0 0 1 -0.81442,-0.50746 0.81550002,0.50791969 0 0 1 0.81442,-0.5085 z m 4.72529,0 h 10.36578 a 0.64782845,0.50791969 0 0 1 0.64854,0.50747 0.64782845,0.50791969 0 0 1 -0.64854,0.50849 h -10.36578 a 0.64782845,0.50791969 0 0 1 -0.64699,-0.50746 0.64782845,0.50791969 0 0 1 0.64699,-0.5085 z m 10.31152,2.46704 a 0.69963002,0.69963002 0 0 1 0.70125,0.69918 l 0.002,2.81068 a 0.69963002,0.69963002 0 0 1 -0.69918,0.70125 0.69963002,0.69963002 0 0 1 -0.70125,-0.69918 l -0.002,-2.81275 a 0.69963002,0.69963002 0 0 1 0.69919,-0.69918 z m -54.81836,0.83767 a 0.69999999,0.69999999 0 0 1 0.69918,0.6997 l 0.002,4.89841 a 0.69999999,0.69999999 0 0 1 -0.69918,0.69918 0.69999999,0.69999999 0 0 1 -0.70125,-0.69918 v -4.89841 a 0.69999999,0.69999999 0 0 1 0.69918,-0.6997 z m 48.4513,1.7446 a 0.79058999,0.79058999 0 0 1 0.79117,0.79065 0.79058999,0.79058999 0 0 1 -0.79117,0.79116 h -12.64833 a 0.79058999,0.79058999 0 0 1 -0.79117,-0.79116 0.79058999,0.79058999 0 0 1 0.7891,-0.7891 z m -64.82808,0.002 h 1.580266 a 0.79058999,0.79058999 0 0 1 0.790649,0.79116 0.79058999,0.79058999 0 0 1 -0.790649,0.79117 H 61.87563 a 0.79058999,0.79058999 0 0 1 -0.791166,-0.79117 0.79058999,0.79058999 0 0 1 0.791166,-0.79116 z m 28.64373,0 h 15.5763 a 0.97342612,0.79058999 0 0 1 0.97152,0.7891 0.97342612,0.79058999 0 0 1 -0.97152,0.79116 h -15.5763 a 0.97342612,0.79058999 0 0 1 -0.97358,-0.7891 0.97342612,0.79058999 0 0 1 0.97358,-0.79116 z m 18.79161,0 h 1.58026 a 0.79058999,0.79058999 0 0 1 0.79117,0.7891 0.79058999,0.79058999 0 0 1 -0.79117,0.79116 h -1.58026 a 0.79058999,0.79058999 0 0 1 -0.79065,-0.79116 0.79058999,0.79058999 0 0 1 0.79065,-0.7891 z m -28.33366,5.1e-4 h 6.32416 a 0.79049999,0.79049999 0 0 1 0.79117,0.79065 0.79049999,0.79049999 0 0 1 -0.79117,0.79117 h -6.32416 a 0.79049999,0.79049999 0 0 1 -0.79116,-0.79117 0.79049999,0.79049999 0 0 1 0.79116,-0.79065 z m -9.197891,0.002 h 1.21853 a 0.64977324,0.79049999 0 0 1 0.649056,0.78858 0.64977324,0.79049999 0 0 1 -0.649056,0.79117 h -1.21853 a 0.64977324,0.79049999 0 0 1 -0.65009,-0.79117 0.64977324,0.79049999 0 0 1 0.65009,-0.78858 z m 79.045821,0.0238 h 1.21853 a 0.64977324,0.79049999 0 0 1 0.64854,0.7891 0.64977324,0.79049999 0 0 1 -0.64854,0.79117 h -1.21853 a 0.64977324,0.79049999 0 0 1 -0.65009,-0.79117 0.64977324,0.79049999 0 0 1 0.65009,-0.7891 z m -21.48345,0.0207 h 1.21853 a 0.64977324,0.79049999 0 0 1 0.64854,0.7891 0.64977324,0.79049999 0 0 1 -0.64854,0.79065 h -1.21853 a 0.64977324,0.79049999 0 0 1 -0.65008,-0.79065 0.64977324,0.79049999 0 0 1 0.65008,-0.7891 z m 9.17412,0.0202 h 1.21853 a 0.64977324,0.79049999 0 0 1 0.64854,0.7891 0.64977324,0.79049999 0 0 1 -0.64854,0.79065 h -1.21853 a 0.64977324,0.79049999 0 0 1 -0.65009,-0.79065 0.64977324,0.79049999 0 0 1 0.65009,-0.7891 z m 6.15466,0.12919 h 1.21853 a 0.64977324,0.79049999 0 0 1 0.64854,0.7891 0.64977324,0.79049999 0 0 1 -0.64854,0.79116 h -1.21853 a 0.64977324,0.79049999 0 0 1 -0.65008,-0.79116 0.64977324,0.79049999 0 0 1 0.65008,-0.7891 z m -14.71486,2.25671 a 0.70003498,0.70003498 0 0 1 0.69918,0.70125 l 0.002,5.29115 a 0.70003498,0.70003498 0 0 1 -0.70125,0.70125 0.70003498,0.70003498 0 0 1 -0.69918,-0.69919 l -0.002,-5.29321 a 0.70003498,0.70003498 0 0 1 0.70125,-0.70125 z m 2.26136,3.16208 h 1.21853 a 0.64977324,0.79049999 0 0 1 0.64854,0.7891 0.64977324,0.79049999 0 0 1 -0.64854,0.79065 h -1.21853 a 0.64977324,0.79049999 0 0 1 -0.65009,-0.79065 0.64977324,0.79049999 0 0 1 0.65009,-0.7891 z m 6.36499,0.0269 h 4.54959 a 0.56863996,0.79049999 0 0 1 0.56741,0.79065 0.56863996,0.79049999 0 0 1 -0.56741,0.79117 h -4.54959 a 0.56863996,0.79049999 0 0 1 -0.56896,-0.79117 0.56863996,0.79049999 0 0 1 0.56896,-0.79065 z M 72.281714,156.093 a 0.79049999,0.79049999 0 0 1 0.791166,0.79065 0.79049999,0.79049999 0 0 1 -0.791166,0.79116 h -1.581816 a 0.79049999,0.79049999 0 0 1 -0.789099,-0.79116 0.79049999,0.79049999 0 0 1 0.789099,-0.78859 z m 5.158856,0 h 4.54908 a 0.56863996,0.79049999 0 0 1 0.56792,0.79065 0.56863996,0.79049999 0 0 1 -0.56792,0.79116 h -4.54908 a 0.56863996,0.79049999 0 0 1 -0.56896,-0.79116 0.56863996,0.79049999 0 0 1 0.56896,-0.79065 z m 7.48999,0 h 1.57974 a 0.79049999,0.79049999 0 0 1 0.79117,0.79065 0.79049999,0.79049999 0 0 1 -0.79117,0.79116 h -1.57974 a 0.79049999,0.79049999 0 0 1 -0.79117,-0.79116 0.79049999,0.79049999 0 0 1 0.79117,-0.79065 z m 4.74182,0 h 6.32417 a 0.79049999,0.79049999 0 0 1 0.79116,0.79065 0.79049999,0.79049999 0 0 1 -0.79116,0.79116 h -6.32417 a 0.79049999,0.79049999 0 0 1 -0.79064,-0.79116 0.79049999,0.79049999 0 0 1 0.79064,-0.79065 z m 9.486226,0 h 1.580274 a 0.79049999,0.79049999 0 0 1 0.79117,0.79065 0.79049999,0.79049999 0 0 1 -0.79117,0.79116 h -1.580274 a 0.79049999,0.79049999 0 0 1 -0.790636,-0.79116 0.79049999,0.79049999 0 0 1 0.790636,-0.79065 z m 4.742354,0 h 6.32416 a 0.79049999,0.79049999 0 0 1 0.79117,0.79065 0.79049999,0.79049999 0 0 1 -0.79117,0.78909 l -6.32416,0.002 a 0.79049999,0.79049999 0 0 1 -0.7891,-0.79116 0.79049999,0.79049999 0 0 1 0.7891,-0.79065 z m 9.48624,0 h 1.58235 a 0.79049999,0.79049999 0 0 1 0.78909,0.79065 0.79049999,0.79049999 0 0 1 -0.78909,0.78909 h -1.58235 a 0.79049999,0.79049999 0 0 1 -0.79065,-0.78909 0.79049999,0.79049999 0 0 1 0.79065,-0.79065 z m 4.98886,0 h 8.27701 a 1.0349224,0.79049999 0 0 1 1.0356,0.79065 1.0349224,0.79049999 0 0 1 -1.03302,0.78909 h -8.27959 a 1.0349224,0.79049999 0 0 1 -1.0356,-0.78909 1.0349224,0.79049999 0 0 1 1.0356,-0.79065 z m 28.21274,0 h 1.48208 a 0.79049999,0.79049999 0 0 1 0.7891,0.78909 0.79049999,0.79049999 0 0 1 -0.7891,0.79065 h -1.48208 a 0.79049999,0.79049999 0 0 1 -0.79116,-0.79065 0.79049999,0.79049999 0 0 1 0.79116,-0.78909 z m -80.789378,0.002 h 1.738395 a 0.79049999,0.79049999 0 0 1 0.791166,0.78859 0.79049999,0.79049999 0 0 1 -0.789099,0.79116 h -1.740462 a 0.79049999,0.79049999 0 0 1 -0.791166,-0.79116 0.79049999,0.79049999 0 0 1 0.791166,-0.78859 z m 78.160088,5.77123 a 0.75,0.75 0 0 1 0.75034,0.74982 0.75,0.75 0 0 1 -0.75034,0.75034 l -74.050778,0.002 a 0.75,0.75 0 0 1 -0.749825,-0.74982 0.75,0.75 0 0 1 0.749825,-0.74983 z m -5.63273,5.69319 a 0.75,0.75 0 0 1 0.74982,0.75034 0.75,0.75 0 0 1 -0.74982,0.74983 l -62.78325,0.002 a 0.75,0.75 0 0 1 -0.749825,-0.75034 0.75,0.75 0 0 1 0.749825,-0.74982 z m -9.63456,5.62911 a 0.75,0.75 0 0 1 0.74983,0.74983 0.75,0.75 0 0 1 -0.74983,0.74982 l -43.51362,0.004 a 0.75,0.75 0 0 1 -0.75034,-0.74983 0.75,0.75 0 0 1 0.75034,-0.75034 z" /></g></svg>
