<?xml version="1.0" encoding="UTF-8" standalone="no"?>
<!-- Created with Inkscape (http://www.inkscape.org/) -->

<svg
   width="123.11909mm"
   height="123.11961mm"
   viewBox="0 0 123.11909 123.11961"
   version="1.1"
   id="svg1"
   xml:space="preserve"
   inkscape:version="1.3 (0e150ed6c4, 2023-07-21)"
   sodipodi:docname="bossnet_logo_color.svg"
   xmlns:inkscape="http://www.inkscape.org/namespaces/inkscape"
   xmlns:sodipodi="http://sodipodi.sourceforge.net/DTD/sodipodi-0.dtd"
   xmlns:xlink="http://www.w3.org/1999/xlink"
   xmlns="http://www.w3.org/2000/svg"
   xmlns:svg="http://www.w3.org/2000/svg"><sodipodi:namedview
     id="namedview1"
     pagecolor="#ffffff"
     bordercolor="#000000"
     borderopacity="0.25"
     inkscape:showpageshadow="2"
     inkscape:pageopacity="0.0"
     inkscape:pagecheckerboard="0"
     inkscape:deskcolor="#d1d1d1"
     inkscape:document-units="mm"
     inkscape:zoom="0.70822811"
     inkscape:cx="-92.484327"
     inkscape:cy="143.31541"
     inkscape:window-width="1920"
     inkscape:window-height="1012"
     inkscape:window-x="0"
     inkscape:window-y="34"
     inkscape:window-maximized="1"
     inkscape:current-layer="layer1"
     showguides="true" /><defs
     id="defs1"><linearGradient
       id="linearGradient183"
       inkscape:collect="always"><stop
         style="stop-color:#051d33;stop-opacity:1;"
         offset="0.56070119"
         id="stop183" /><stop
         style="stop-color:#eb5e60;stop-opacity:1;"
         offset="1"
         id="stop184" /></linearGradient><linearGradient
       inkscape:collect="always"
       xlink:href="#linearGradient183"
       id="linearGradient184"
       x1="48.438904"
       y1="-108.79749"
       x2="171.55852"
       y2="-108.79749"
       gradientUnits="userSpaceOnUse"
       gradientTransform="rotate(90,16.770514,-17.463287)" /></defs><g
     inkscape:label="Layer 1"
     inkscape:groupmode="layer"
     id="layer1"
     style="display:inline"
     transform="translate(-46.54517,-14.205103)"><path
       id="path3"
       style="display:inline;opacity:1;fill:url(#linearGradient184);stroke:none;stroke-width:0.266259;stroke-opacity:1"
       d="M 108.10471,14.205103 A 61.559719,61.559719 0 0 0 46.54517,75.765168 61.559719,61.559719 0 0 0 108.10471,137.32472 61.559719,61.559719 0 0 0 169.66426,75.765168 61.559719,61.559719 0 0 0 108.10471,14.205103 Z m 0,4.328935 a 57.230839,57.230839 0 0 1 57.23062,57.23113 57.230839,57.230839 0 0 1 -57.23062,57.230622 57.230839,57.230839 0 0 1 -57.230606,-57.230622 57.230839,57.230839 0 0 1 57.230606,-57.23113 z m 0,1.808158 A 55.422817,55.422817 0 0 0 52.681746,75.764648 55.422817,55.422817 0 0 0 108.10471,131.18763 55.422817,55.422817 0 0 0 163.52769,75.764648 55.422817,55.422817 0 0 0 108.10471,20.342196 Z m 13.5754,7.570597 a 0.611,0.611 0 0 1 0.60927,0.611332 l 0.001,3.43545 h 3.7729 a 0.611,0.611 0 0 1 0.61133,0.611332 0.611,0.611 0 0 1 -0.61133,0.609265 l -3.7729,10e-4 0.001,3.436482 a 0.611,0.611 0 0 1 -0.61133,0.611332 0.611,0.611 0 0 1 -0.61133,-0.611332 v -3.436482 l -3.77135,0.001 a 0.611,0.611 0 0 1 -0.61133,-0.611332 0.611,0.611 0 0 1 0.61133,-0.611332 h 3.77135 v -3.43545 a 0.611,0.611 0 0 1 0.61133,-0.611332 z m -21.33771,0.07958 a 0.77475363,0.77475363 0 0 1 0.77463,0.77463 0.77475363,0.77475363 0 0 1 -0.77463,0.774629 0.77475363,0.77475363 0 0 1 -0.77463,-0.774629 0.77475363,0.77475363 0 0 1 0.77463,-0.77463 z m -10.26862,0.310059 c 0.21378,0.0028 0.52559,0.106823 0.53071,0.551387 0.005,0.444602 -0.0802,5.215645 0.0171,6.971668 0.0981,1.770006 1.1503,3.03225 2.35903,3.062862 1.20872,0.03061 1.78225,0.04442 2.08669,0.05323 0.30448,0.0088 0.46929,0.239172 0.47077,0.552938 -10e-4,0.264626 -0.16629,0.458722 -0.47077,0.466122 -0.30444,0.0074 -0.87797,0.01915 -2.08669,0.04496 -1.20873,0.02581 -2.26094,1.090719 -2.35903,2.583305 -0.0973,1.480801 -0.012,5.50379 -0.0171,5.878711 -0.005,0.374924 -0.31693,0.462688 -0.53071,0.465088 -0.21379,-0.0024 -0.5256,-0.09016 -0.53072,-0.465088 -0.005,-0.374921 0.0802,-4.39791 -0.017,-5.878711 -0.0981,-1.492586 -1.15031,-2.557491 -2.35903,-2.583305 -1.20869,-0.02581 -1.78222,-0.03753 -2.0867,-0.04496 -0.30448,-0.0074 -0.46929,-0.201496 -0.47077,-0.466122 0.001,-0.313766 0.16629,-0.544138 0.47077,-0.552938 0.30448,-0.0088 0.87801,-0.02262 2.0867,-0.05323 1.20872,-0.03061 2.26094,-1.292856 2.35903,-3.062862 0.0973,-1.756023 0.0119,-6.527066 0.017,-6.971668 0.005,-0.444564 0.31693,-0.548587 0.53072,-0.551387 z m -6.23632,3.341398 a 0.77475363,0.77475363 0 0 1 0.77463,0.775146 0.77475363,0.77475363 0 0 1 -0.77463,0.77463 0.77475363,0.77475363 0 0 1 -0.77514,-0.77463 0.77475363,0.77475363 0 0 1 0.77514,-0.775146 z m 16.53749,1.390612 a 0.77475363,0.77475363 0 0 1 0.77463,0.775147 0.77475363,0.77475363 0 0 1 -0.77463,0.77463 0.77475363,0.77475363 0 0 1 -0.77463,-0.77463 0.77475363,0.77475363 0 0 1 0.77463,-0.775147 z m 32.48277,1.00149 a 0.77475363,0.77475363 0 0 1 0.77515,0.775146 0.77475363,0.77475363 0 0 1 -0.77515,0.77463 0.77475363,0.77475363 0 0 1 -0.77463,-0.77463 0.77475363,0.77475363 0 0 1 0.77463,-0.775146 z m -24.59023,0.780831 c 0.40387,0.002 0.51896,0.194763 0.52865,0.582393 0.009,0.38762 -0.0144,4.542824 0.0584,6.082833 0.0645,1.365848 1.61112,2.540644 4.90409,2.564184 3.29337,0.0235 3.62301,0.01039 4.1982,0.01809 0.57479,0.008 0.63077,0.236457 0.63355,0.510047 -0.003,0.273549 -0.0588,0.502863 -0.63355,0.510563 -0.57519,0.0077 -0.90483,-0.0055 -4.1982,0.01809 -3.29297,0.02354 -4.83959,1.197823 -4.90409,2.563668 -0.0728,1.540013 -0.0494,5.69573 -0.0584,6.08335 -0.01,0.387584 -0.12478,0.579893 -0.52865,0.582393 -0.40387,-0.0025 -0.51896,-0.194809 -0.52865,-0.582393 -0.009,-0.38762 0.0144,-4.543337 -0.0584,-6.08335 -0.0645,-1.365845 -1.61112,-2.540131 -4.90409,-2.563668 -3.29337,-0.02354 -3.623,-0.01041 -4.19819,-0.01809 -0.57516,-0.0077 -0.63078,-0.237014 -0.63356,-0.510563 0.003,-0.27359 0.0584,-0.502047 0.63356,-0.510047 0.57519,-0.0077 0.90482,0.0054 4.19819,-0.01809 3.29297,-0.02354 4.83959,-1.198336 4.90409,-2.564184 0.0728,-1.540009 0.0494,-5.695213 0.0584,-6.082833 0.01,-0.38763 0.12478,-0.580393 0.52865,-0.582393 z m -30.568667,0.272851 a 0.77475363,0.77475363 0 0 1 0.77463,0.77463 0.77475363,0.77475363 0 0 1 -0.77463,0.77463 0.77475363,0.77475363 0 0 1 -0.774629,-0.77463 0.77475363,0.77475363 0 0 1 0.774629,-0.77463 z m 60.090897,3.588928 a 0.68302,0.68302 0 0 1 0.68368,0.681613 v 3.209623 l 2.55075,-10e-4 a 0.68302,0.68302 0 0 1 0.68368,0.683679 0.68302,0.68302 0 0 1 -0.68368,0.68368 h -2.55075 v 3.209106 a 0.68302,0.68302 0 0 1 -0.68368,0.683679 0.68302,0.68302 0 0 1 -0.68161,-0.683679 l -0.001,-3.209106 h -2.55178 a 0.68302,0.68302 0 0 1 -0.68162,-0.681613 0.68302,0.68302 0 0 1 0.68162,-0.683679 l 2.55178,-10e-4 -0.001,-3.209623 a 0.68302,0.68302 0 0 1 0.68368,-0.681613 z m -58.376789,5.199166 a 0.4861595,0.4861595 0 0 1 0.486275,0.486275 v 2.213819 l 1.876884,-10e-4 a 0.4861595,0.4861595 0 0 1 0.48628,0.486276 0.4861595,0.4861595 0 0 1 -0.48628,0.486275 h -1.876884 v 2.214852 a 0.4861595,0.4861595 0 0 1 -0.484725,0.486275 0.4861595,0.4861595 0 0 1 -0.486275,-0.486275 l -0.001,-2.214852 h -1.875888 a 0.4861595,0.4861595 0 0 1 -0.486275,-0.486307 0.4861595,0.4861595 0 0 1 0.486275,-0.484209 l 1.875854,-10e-4 -0.001,-2.213819 a 0.4861595,0.4861595 0 0 1 0.486792,-0.486275 z m 46.098989,2.015898 a 3.5596087,3.5596087 0 0 1 3.55947,3.559989 3.5596087,3.5596087 0 0 1 -3.55947,3.559473 3.5596087,3.5596087 0 0 1 -3.55947,-3.559473 3.5596087,3.5596087 0 0 1 3.55947,-3.559989 z m -55.686518,0.287838 a 1.549511,1.549511 0 0 1 1.54926,1.549259 1.549511,1.549511 0 0 1 -1.54926,1.549776 1.549511,1.549511 0 0 1 -1.549776,-1.549776 1.549511,1.549511 0 0 1 1.549776,-1.549259 z m 76.829928,0.530717 a 0.77475363,0.77475363 0 0 1 0.77463,0.775146 0.77475363,0.77475363 0 0 1 -0.77463,0.77463 0.77475363,0.77475363 0 0 1 -0.77463,-0.77463 0.77475363,0.77475363 0 0 1 0.77463,-0.775146 z m -76.829928,0.243912 a 0.77475363,0.77475363 0 0 0 -0.775146,0.77463 0.77475363,0.77475363 0 0 0 0.775146,0.77463 0.77475363,0.77475363 0 0 0 0.77463,-0.77463 0.77475363,0.77475363 0 0 0 -0.77463,-0.77463 z m 55.686518,0.183452 a 2.3138454,2.3138454 0 0 0 -2.31407,2.31407 2.3138454,2.3138454 0 0 0 2.31407,2.313554 2.3138454,2.3138454 0 0 0 2.31355,-2.313554 2.3138454,2.3138454 0 0 0 -2.31355,-2.31407 z m -40.75048,4.857586 a 0.77475363,0.77475363 0 0 1 0.77463,0.77463 0.77475363,0.77475363 0 0 1 -0.77463,0.77463 0.77475363,0.77475363 0 0 1 -0.77463,-0.77463 0.77475363,0.77475363 0 0 1 0.77463,-0.77463 z m 65.14589,1.536857 c 0.19707,0.0013 0.46563,0.11139 0.48266,0.471806 0.017,0.360455 0.0309,1.833177 0.0677,2.980697 0.0368,1.14752 1.18285,2.070126 2.42415,2.084627 1.24089,0.0145 1.389,0.0578 1.66966,0.06253 0.28067,0.0047 0.39138,0.253357 0.39274,0.422196 -0.001,0.168839 -0.11207,0.41698 -0.39274,0.42168 -0.28066,0.0047 -0.42877,0.04803 -1.66966,0.06253 -1.2413,0.0145 -2.38735,0.937147 -2.42415,2.084627 -0.0368,1.147518 -0.0507,2.620238 -0.0677,2.980688 -0.017,0.36046 -0.28559,0.47051 -0.48266,0.47181 -0.19707,-10e-4 -0.46563,-0.11135 -0.48266,-0.47181 -0.017,-0.36045 -0.0314,-1.83317 -0.0682,-2.980688 -0.0368,-1.14748 -1.18233,-2.070126 -2.42363,-2.084627 -1.24089,-0.0145 -1.389,-0.0578 -1.66966,-0.06253 -0.28067,-0.0047 -0.39138,-0.252841 -0.39274,-0.42168 0.001,-0.168839 0.11207,-0.417496 0.39274,-0.422196 0.28066,-0.0047 0.42877,-0.04803 1.66966,-0.06253 1.2413,-0.0145 2.38683,-0.937107 2.42363,-2.084627 0.0368,-1.14752 0.0512,-2.620242 0.0682,-2.980697 0.017,-0.360416 0.28559,-0.470506 0.48266,-0.471806 z m -49.66777,0.09147 a 0.77475363,0.77475363 0 0 1 0.77515,0.774629 0.77475363,0.77475363 0 0 1 -0.77515,0.77463 0.77475363,0.77475363 0 0 1 -0.77463,-0.77463 0.77475363,0.77475363 0 0 1 0.77463,-0.774629 z m 34.65008,0.494543 a 0.77475363,0.77475363 0 0 1 0.77463,0.77463 0.77475363,0.77475363 0 0 1 -0.77463,0.77463 0.77475363,0.77475363 0 0 1 -0.77463,-0.77463 0.77475363,0.77475363 0 0 1 0.77463,-0.77463 z m -61.410714,0.19482 a 0.70008624,0.70008624 0 0 1 0.701249,0.699699 v 39.485958 a 0.70008624,0.70008624 0 0 1 -0.699182,0.70125 0.70008624,0.70008624 0 0 1 -0.701249,-0.70125 v -39.48596 a 0.70008624,0.70008624 0 0 1 0.699182,-0.699699 z m -9.71672,0.627352 a 0.69999999,0.69999999 0 0 1 0.699183,0.699182 l 0.001,3.128491 h 2.534212 a 0.68302,0.68302 0 0 1 0.68368,0.682129 0.68302,0.68302 0 0 1 -0.68368,0.683163 l -2.534212,0.001 0.001,3.127971 a 0.69999999,0.69999999 0 0 1 -0.70125,0.69918 0.69999999,0.69999999 0 0 1 -0.699182,-0.69918 l -10e-4,-3.127971 -2.534212,10e-4 a 0.68302,0.68302 0 0 1 -0.68368,-0.683679 0.68302,0.68302 0 0 1 0.68368,-0.683163 h 2.534212 l -10e-4,-3.129008 a 0.69999999,0.69999999 0 0 1 0.701249,-0.699182 z m 54.279364,0.409794 a 0.52183503,0.52183503 0 0 1 0.52142,0.523483 v 2.636014 l 1.80454,-10e-4 a 0.52183503,0.52183503 0 0 1 0.52193,0.523482 0.52183503,0.52183503 0 0 1 -0.52193,0.521415 h -1.80454 v 2.636532 a 0.52183503,0.52183503 0 0 1 -0.52142,0.521413 0.52183503,0.52183503 0 0 1 -0.52141,-0.521413 l -0.001,-2.636532 h -1.80351 a 0.52183503,0.52183503 0 0 1 -0.52348,-0.521415 0.52183503,0.52183503 0 0 1 0.52348,-0.521415 l 1.80351,-0.001 -0.001,-2.636014 a 0.52183503,0.52183503 0 0 1 0.52348,-0.523483 z m -27.78486,1.207678 a 0.77475363,0.77475363 0 0 1 0.77463,0.77463 0.77475363,0.77475363 0 0 1 -0.77463,0.775147 0.77475363,0.77475363 0 0 1 -0.77515,-0.775147 0.77475363,0.77475363 0 0 1 0.77515,-0.77463 z m -11.016895,2.04432 a 1.549511,1.549511 0 0 1 1.549255,1.54926 1.549511,1.549511 0 0 1 -1.549255,1.549776 1.549511,1.549511 0 0 1 -1.549777,-1.549776 1.549511,1.549511 0 0 1 1.549777,-1.54926 z m 61.020555,0.357601 a 0.70042634,0.70042634 0 0 1 0.70125,0.699182 v 34.93947 a 0.70042634,0.70042634 0 0 1 -0.70125,0.70125 0.70042634,0.70042634 0 0 1 -0.69918,-0.70125 l -0.002,-34.93947 a 0.70042634,0.70042634 0 0 1 0.70125,-0.699182 z m -61.020555,0.417029 a 0.77475363,0.77475363 0 0 0 -0.775147,0.77463 0.77475363,0.77475363 0 0 0 0.775147,0.774629 0.77475363,0.77475363 0 0 0 0.774629,-0.774629 0.77475363,0.77475363 0 0 0 -0.774629,-0.77463 z m 20.936705,0.83199 a 0.77475363,0.77475363 0 0 1 0.77462,0.77463 0.77475363,0.77475363 0 0 1 -0.77462,0.77463 0.77475363,0.77475363 0 0 1 -0.77463,-0.77463 0.77475363,0.77475363 0 0 1 0.77463,-0.77463 z m -9.94771,1.544609 a 0.77475363,0.77475363 0 0 1 0.77463,0.77463 0.77475363,0.77475363 0 0 1 -0.77463,0.774625 0.77475363,0.77475363 0 0 1 -0.77463,-0.774625 0.77475363,0.77475363 0 0 1 0.77463,-0.77463 z m 18.13739,0.67231 a 0.77475363,0.77475363 0 0 1 0.77463,0.774625 0.77475363,0.77475363 0 0 1 -0.77463,0.77463 0.77475363,0.77475363 0 0 1 -0.77463,-0.77463 0.77475363,0.77475363 0 0 1 0.77463,-0.774625 z m 17.14572,0.138493 a 0.77475363,0.77475363 0 0 1 0.77515,0.774622 0.77475363,0.77475363 0 0 1 -0.77515,0.77515 0.77475363,0.77475363 0 0 1 -0.77463,-0.77515 0.77475363,0.77475363 0 0 1 0.77463,-0.774622 z m 10.30118,0.831472 a 0.77475363,0.77475363 0 0 1 0.77463,0.77463 0.77475363,0.77475363 0 0 1 -0.77463,0.77463 0.77475363,0.77475363 0 0 1 -0.77463,-0.77463 0.77475363,0.77475363 0 0 1 0.77463,-0.77463 z m -33.73851,3.23029 c 1.36586,0 2.46824,0.44057 3.30678,1.3224 0.83843,0.8736 1.2578,2.027789 1.2578,3.461809 0,1.33512 -0.415,2.4477 -1.24489,3.33778 -0.82114,0.88184 -1.92363,1.3224 -3.30677,1.3224 -1.3745,0 -2.47689,-0.44056 -3.30677,-1.3224 -0.82988,-0.88184 -1.24489,-2.01533 -1.24489,-3.39979 0,-1.38457 0.41501,-2.517959 1.24489,-3.399799 0.83853,-0.88183 1.93664,-1.3224 3.29385,-1.3224 z m 12.33258,0 c 0.3285,0 0.64415,0.0203 0.94671,0.0615 0.31121,0.0412 0.63969,0.12807 0.98547,0.25993 0.34579,0.12362 0.64383,0.28851 0.89452,0.49454 0.2507,0.1978 0.45845,0.47764 0.6227,0.84026 0.1729,0.35439 0.25942,0.76686 0.25942,1.23662 h -1.81539 c -0.0692,-0.93953 -0.73091,-1.40973 -1.98438,-1.40973 -0.50139,0 -0.89877,0.1035 -1.19269,0.30954 -0.29392,0.19779 -0.4408,0.46515 -0.4408,0.80305 0,0.32966 0.12499,0.577239 0.37569,0.742069 0.25069,0.15659 0.72229,0.30067 1.41386,0.43254 l 1.47795,0.27181 c 0.87311,0.16483 1.50869,0.44519 1.90634,0.84078 0.39766,0.38735 0.59635,0.93558 0.59635,1.64434 0,0.91481 -0.3413,1.63156 -1.02423,2.15078 -0.68293,0.51097 -1.63416,0.76636 -2.85305,0.76636 -1.21025,0 -2.15252,-0.25539 -2.8267,-0.76636 -0.66564,-0.51097 -1.02883,-1.24853 -1.08934,-2.21279 h 1.89342 c 0.0346,0.48625 0.23327,0.85711 0.59635,1.1126 0.36307,0.25548 0.87314,0.38343 1.53014,0.38343 0.58783,0 1.05037,-0.10714 1.38751,-0.32142 0.34578,-0.21428 0.51883,-0.51128 0.51883,-0.89039 0,-0.36262 -0.13406,-0.64246 -0.40204,-0.84026 -0.26799,-0.19779 -0.72625,-0.35445 -1.3746,-0.46973 l -1.32291,-0.24754 c -0.95956,-0.17297 -1.64216,-0.4451 -2.04846,-0.81597 -0.4063,-0.37086 -0.60978,-0.90661 -0.60978,-1.607129 0,-0.88184 0.31148,-1.56167 0.93379,-2.03967 0.63106,-0.48625 1.51287,-0.72916 2.64532,-0.72916 z m 11.81375,0 c 0.3285,0 0.64415,0.0203 0.94671,0.0615 0.31121,0.0412 0.63969,0.12807 0.98547,0.25993 0.34579,0.12362 0.64434,0.28851 0.89504,0.49454 0.25069,0.1978 0.45793,0.47764 0.62218,0.84026 0.1729,0.35439 0.25942,0.76686 0.25942,1.23662 h -1.8154 c -0.0692,-0.93953 -0.73038,-1.40973 -1.98385,-1.40973 -0.50139,0 -0.89929,0.1035 -1.19321,0.30954 -0.29392,0.19779 -0.4408,0.46515 -0.4408,0.80305 0,0.32966 0.12551,0.577239 0.3762,0.742069 0.2507,0.15659 0.72178,0.30067 1.41335,0.43254 l 1.47847,0.27181 c 0.87301,0.16483 1.50817,0.44519 1.90582,0.84078 0.39766,0.38735 0.59635,0.93558 0.59635,1.64434 0,0.91481 -0.3413,1.63156 -1.02423,2.15078 -0.68293,0.51097 -1.63364,0.76636 -2.85254,0.76636 -1.21025,0 -2.15242,-0.25539 -2.8267,-0.76636 -0.66564,-0.51097 -1.02883,-1.24853 -1.08934,-2.21279 h 1.89291 c 0.0346,0.48625 0.23379,0.85711 0.59686,1.1126 0.36308,0.25548 0.87263,0.38343 1.52963,0.38343 0.58773,0 1.05037,-0.10714 1.38751,-0.32142 0.34578,-0.21428 0.51883,-0.51128 0.51883,-0.89039 0,-0.36262 -0.13406,-0.64246 -0.40204,-0.84026 -0.26799,-0.19779 -0.72625,-0.35445 -1.3746,-0.46973 l -1.3224,-0.24754 c -0.95955,-0.17297 -1.64267,-0.4451 -2.04897,-0.81597 -0.4063,-0.37086 -0.60926,-0.90661 -0.60926,-1.607129 0,-0.88184 0.31138,-1.56167 0.93379,-2.03967 0.63106,-0.48625 1.51235,-0.72916 2.6448,-0.72916 z m -40.27816,0.14832 h 4.21422 c 0.58782,0 1.09363,0.0822 1.51722,0.24701 0.43222,0.16483 0.75165,0.37913 0.95911,0.64285 0.21612,0.25549 0.37206,0.50723 0.46715,0.75448 0.0951,0.24724 0.14263,0.49015 0.14263,0.72915 0,0.38735 -0.0993,0.721279 -0.29817,1.001489 -0.19882,0.28021 -0.53211,0.56421 -0.99891,0.85266 1.046,0.58515 1.56942,1.3149 1.56942,2.1885 0,0.29669 -0.0518,0.58485 -0.15555,0.86506 -0.10374,0.28021 -0.27251,0.55641 -0.50591,0.82838 -0.22476,0.27197 -0.56607,0.49043 -1.02423,0.65525 -0.45817,0.16483 -1.00296,0.24702 -1.63401,0.24702 h -4.25297 z m 16.14475,1.43402 c -0.78666,0 -1.41807,0.28816 -1.89342,0.86506 -0.47546,0.56866 -0.71314,1.327029 -0.71314,2.274799 0,0.94777 0.23768,1.71029 0.71314,2.2872 0.47535,0.56856 1.10676,0.85266 1.89342,0.85266 0.77802,0 1.40453,-0.2841 1.87999,-0.85266 0.4841,-0.56867 0.72657,-1.31465 0.72657,-2.23759 0,-0.9725 -0.23768,-1.747509 -0.71314,-2.324409 -0.46681,-0.5769 -1.09811,-0.86506 -1.89342,-0.86506 z m -14.20016,0.1111 v 2.039669 h 2.11408 c 0.91632,0 1.37408,-0.33757 1.37408,-1.013379 0,-0.68394 -0.45776,-1.02629 -1.37408,-1.02629 z m -18.480527,1.519289 a 0.70021498,0.70021498 0 0 1 0.701249,0.70125 0.70021498,0.70021498 0 0 1 -0.701249,0.69918 l -12.177551,0.002 a 0.70021498,0.70021498 0 0 1 -0.701249,-0.70125 0.70021498,0.70021498 0 0 1 0.701249,-0.69919 z m 77.394237,0.23254 h 12.18013 a 0.70021498,0.70021498 0 0 1 0.69919,0.70125 0.70021498,0.70021498 0 0 1 -0.69919,0.69918 h -12.18013 a 0.70021498,0.70021498 0 0 1 -0.69918,-0.69918 0.70021498,0.70021498 0 0 1 0.69918,-0.70125 z m -58.91371,1.83348 v 2.33629 h 2.3213 c 0.95955,0 1.43919,-0.3875 1.43919,-1.1622 0,-0.78294 -0.47964,-1.17409 -1.43919,-1.17409 z m 55.41573,1.58802 a 0.70039999,0.70039999 0 0 1 0.6997,0.70125 v 26.084192 a 0.70039999,0.70039999 0 0 1 -0.6997,0.69919 0.70039999,0.70039999 0 0 1 -0.70073,-0.69919 V 74.195758 a 0.70039999,0.70039999 0 0 1 0.70073,-0.70125 z m -65.246656,0.28422 a 0.77475363,0.77475363 0 0 1 0.77463,0.77463 0.77475363,0.77475363 0 0 1 -0.77463,0.77463 0.77475363,0.77475363 0 0 1 -0.774629,-0.77463 0.77475363,0.77475363 0 0 1 0.774629,-0.77463 z m -14.486454,1.03714 a 1.549511,1.549511 0 0 1 1.549776,1.54926 1.549511,1.549511 0 0 1 -1.549776,1.54978 1.549511,1.549511 0 0 1 -1.549259,-1.54978 1.549511,1.549511 0 0 1 1.549259,-1.54926 z m 88.99353,0.0383 a 1.549511,1.549511 0 0 1 1.54926,1.54925 1.549511,1.549511 0 0 1 -1.54926,1.54978 1.549511,1.549511 0 0 1 -1.54978,-1.54978 1.549511,1.549511 0 0 1 1.54978,-1.54925 z m -88.99353,0.73638 a 0.77475363,0.77475363 0 0 0 -0.77463,0.77463 0.77475363,0.77475363 0 0 0 0.77463,0.77463 0.77475363,0.77475363 0 0 0 0.775147,-0.77463 0.77475363,0.77475363 0 0 0 -0.775147,-0.77463 z m 88.99353,0.0382 a 0.77475363,0.77475363 0 0 0 -0.77515,0.77463 0.77475363,0.77475363 0 0 0 0.77515,0.77463 0.77475363,0.77475363 0 0 0 0.77463,-0.77463 0.77475363,0.77475363 0 0 0 -0.77463,-0.77463 z m -95.745573,0.21084 a 0.77475363,0.77475363 0 0 1 0.77463,0.77515 0.77475363,0.77475363 0 0 1 -0.77463,0.77463 0.77475363,0.77475363 0 0 1 -0.774629,-0.77463 0.77475363,0.77475363 0 0 1 0.774629,-0.77515 z m 102.498643,0.0388 a 0.77475363,0.77475363 0 0 1 0.77463,0.77463 0.77475363,0.77475363 0 0 1 -0.77463,0.77463 0.77475363,0.77475363 0 0 1 -0.77514,-0.77463 0.77475363,0.77475363 0 0 1 0.77514,-0.77463 z m -62.6587,2.92334 h 1.33584 l 2.50578,4.10001 v -4.10001 h 1.3007 v 6.0265 h -1.3007 l -2.54092,-4.16667 v 4.16667 h -1.3007 z m 9.51311,0 h 4.56975 v 1.03301 h -3.26905 v 1.36426 h 3.02617 v 1.03301 h -3.02617 v 1.56269 h 3.42511 v 1.03353 h -4.72581 z m 8.31629,0 h 5.06429 v 1.03301 h -1.84743 v 4.99349 h -1.3007 v -4.99349 h -1.91616 z m -44.180243,0.90589 a 0.69999999,0.69999999 0 0 1 0.699182,0.69918 v 19.693372 a 0.69999999,0.69999999 0 0 1 -0.699182,0.69918 0.69999999,0.69999999 0 0 1 -0.699183,-0.69918 l -0.0016,-19.693372 a 0.69999999,0.69999999 0 0 1 0.700733,-0.69918 z m 6.049243,1.82831 a 0.70003998,0.70003998 0 0 1 0.700732,0.70125 v 24.997952 a 0.70003998,0.70003998 0 0 1 -0.699182,0.69919 0.70003998,0.70003998 0 0 1 -0.700732,-0.69919 V 82.237178 a 0.70003998,0.70003998 0 0 1 0.699182,-0.70125 z m -10.368876,0.29662 h 0.162264 a 0.80445631,0.79317498 0 0 1 0.804602,0.79478 0.80445631,0.79317498 0 0 1 -0.804602,0.79324 h -0.162264 a 0.80445631,0.79317498 0 0 1 -0.804086,-0.79324 0.80445631,0.79317498 0 0 1 0.804086,-0.79478 z m 14.846126,0 h 0.16071 a 0.80445631,0.79317498 0 0 1 0.80409,0.79323 0.80445631,0.79317498 0 0 1 -0.80409,0.79479 h -0.16071 a 0.80445631,0.79317498 0 0 1 -0.804089,-0.79479 0.80445631,0.79317498 0 0 1 0.804089,-0.79323 z m 4.18165,0 h 0.16278 a 0.80445631,0.79317498 0 0 1 0.80409,0.79323 0.80445631,0.79317498 0 0 1 -0.80409,0.79479 h -0.16278 a 0.80445631,0.79317498 0 0 1 -0.80409,-0.79479 0.80445631,0.79317498 0 0 1 0.80409,-0.79323 z m 4.18372,0 h 0.16072 a 0.80445631,0.79317498 0 0 1 0.80408,0.79323 0.80445631,0.79317498 0 0 1 -0.80408,0.79272 h -0.16072 a 0.80445631,0.79317498 0 0 1 -0.80408,-0.79272 0.80445631,0.79317498 0 0 1 0.80408,-0.79323 z m 4.18373,0 h 0.16071 a 0.80445631,0.79317498 0 0 1 0.80409,0.79323 0.80445631,0.79317498 0 0 1 -0.80409,0.79272 h -0.16071 a 0.80445631,0.79317498 0 0 1 -0.80409,-0.79272 0.80445631,0.79317498 0 0 1 0.80409,-0.79323 z m 29.28193,0 h 0.1602 a 0.80445631,0.79317498 0 0 1 0.80408,0.79323 0.80445631,0.79317498 0 0 1 -0.80408,0.79272 h -0.1602 a 0.80445631,0.79317498 0 0 1 -0.8046,-0.79272 0.80445631,0.79317498 0 0 1 0.8046,-0.79323 z m 4.18372,0 h 0.1602 a 0.80445631,0.79317498 0 0 1 0.80408,0.79323 0.80445631,0.79317498 0 0 1 -0.80408,0.79272 h -0.1602 a 0.80445631,0.79317498 0 0 1 -0.8046,-0.79272 0.80445631,0.79317498 0 0 1 0.8046,-0.79323 z m 4.18321,0 h 0.16071 a 0.80445631,0.79317498 0 0 1 0.80409,0.79323 0.80445631,0.79317498 0 0 1 -0.80409,0.79272 h -0.16071 a 0.80445631,0.79317498 0 0 1 -0.80615,-0.79272 0.80445631,0.79317498 0 0 1 0.80615,-0.79323 z m 4.18166,0 h 0.16278 a 0.80445631,0.79317498 0 0 1 0.80408,0.79323 0.80445631,0.79317498 0 0 1 -0.80408,0.79272 h -0.16278 a 0.80445631,0.79317498 0 0 1 -0.80409,-0.79272 0.80445631,0.79317498 0 0 1 0.80409,-0.79323 z m 14.43787,0 h 0.16227 a 0.80445631,0.79317498 0 0 1 0.8046,0.79323 0.80445631,0.79317498 0 0 1 -0.8046,0.79272 h -0.16227 a 0.80445631,0.79317498 0 0 1 -0.80408,-0.79272 0.80445631,0.79317498 0 0 1 0.80408,-0.79323 z m 4.18373,0 h 0.1602 a 0.80445631,0.79317498 0 0 1 0.8046,0.79323 0.80445631,0.79317498 0 0 1 -0.8046,0.79272 h -0.1602 a 0.80445631,0.79317498 0 0 1 -0.8046,-0.79272 0.80445631,0.79317498 0 0 1 0.8046,-0.79323 z m 4.18372,0 h 0.1602 a 0.80445631,0.79317498 0 0 1 0.80408,0.79323 0.80445631,0.79317498 0 0 1 -0.80408,0.79272 h -0.1602 a 0.80445631,0.79317498 0 0 1 -0.8046,-0.79272 0.80445631,0.79317498 0 0 1 0.8046,-0.79323 z m -100.396447,0.002 h 0.160713 a 0.80445631,0.79317498 0 0 1 0.804086,0.79323 0.80445631,0.79317498 0 0 1 -0.804086,0.79272 h -0.160713 a 0.80445631,0.79317498 0 0 1 -0.804086,-0.79272 0.80445631,0.79317498 0 0 1 0.804086,-0.79323 z m 4.183724,0 h 0.160713 a 0.80445631,0.79317498 0 0 1 0.804086,0.79323 0.80445631,0.79317498 0 0 1 -0.804086,0.79272 h -0.160713 a 0.80445631,0.79317498 0 0 1 -0.804086,-0.79272 0.80445631,0.79317498 0 0 1 0.804086,-0.79323 z m 75.413483,5.97844 a 0.70035499,0.70035499 0 0 1 0.69918,0.70125 v 17.191202 a 0.70035499,0.70035499 0 0 1 -0.69918,0.70125 0.70035499,0.70035499 0 0 1 -0.70125,-0.70125 V 88.514238 a 0.70035499,0.70035499 0 0 1 0.70125,-0.70125 z m -25.32559,1.4025 a 1.0389972,0.54937168 0 0 1 1.03921,0.54932 1.0389972,0.54937168 0 0 1 -1.03921,0.54932 H 101.5015 a 1.0389972,0.54937168 0 0 1 -1.03921,-0.54932 1.0389972,0.54937168 0 0 1 1.03921,-0.54828 l 10.39213,-5.2e-4 z m 4.9568,5.2e-4 h 17.23099 a 0.86148968,0.54937168 0 0 1 0.86197,0.54932 0.86148968,0.54937168 0 0 1 -0.86197,0.54932 h -17.23099 a 0.86148968,0.54937168 0 0 1 -0.86144,-0.54932 0.86148968,0.54937168 0 0 1 0.86144,-0.54932 z m 30.7852,0 h 9.79889 a 0.97991908,0.54937168 0 0 1 0.97978,0.54932 0.97991908,0.54937168 0 0 1 -0.97978,0.54932 h -9.79889 a 0.97991908,0.54937168 0 0 1 -0.9803,-0.54932 0.97991908,0.54937168 0 0 1 0.9803,-0.54932 z m -51.2687,5.2e-4 v 5.1e-4 a 0.83690493,0.54937168 0 0 1 0.83716,0.54984 0.83690493,0.54937168 0 0 1 -0.83716,0.54829 l -16.739025,5.1e-4 a 0.83690493,0.54937168 0 0 1 -0.835091,-0.54932 0.83690493,0.54937168 0 0 1 0.835091,-0.54932 z m -38.117565,5.1e-4 h 7.172172 a 0.81492429,0.54937168 0 0 1 0.815454,0.54932 0.81492429,0.54937168 0 0 1 -0.815454,0.54932 h -7.172172 a 0.81492429,0.54937168 0 0 1 -0.814938,-0.54932 0.81492429,0.54937168 0 0 1 0.814938,-0.54932 z m 9.014953,1.45728 a 0.70008999,0.70008999 0 0 1 0.699182,0.70125 v 9.482622 a 0.70008999,0.70008999 0 0 1 -0.699182,0.70073 0.70008999,0.70008999 0 0 1 -0.699182,-0.70073 l -0.0021,-9.482622 a 0.70008999,0.70008999 0 0 1 0.701249,-0.70125 z m 82.146402,0.46095 a 0.70024502,0.70024502 0 0 1 0.70125,0.70125 v 9.691402 a 0.70024502,0.70024502 0 0 1 -0.69918,0.69918 0.70024502,0.70024502 0 0 1 -0.70125,-0.69918 v -9.691402 a 0.70024502,0.70024502 0 0 1 0.69918,-0.70125 z m -89.430195,2.66134 h 4.549076 a 0.56863996,0.49234886 0 0 1 0.567924,0.49247 0.56863996,0.49234886 0 0 1 -0.567924,0.49248 h -4.549076 a 0.56863996,0.49234886 0 0 1 -0.568957,-0.49248 0.56863996,0.49234886 0 0 1 0.568957,-0.49247 z m 92.011435,0.008 4.48913,5.2e-4 a 0.56111906,0.49234886 0 0 1 0.5612,0.49247 0.56111906,0.49234886 0 0 1 -0.5612,0.49196 l -4.48913,5.2e-4 a 0.56111906,0.49234886 0 0 1 -0.56018,-0.49248 0.56111906,0.49234886 0 0 1 0.56018,-0.49299 z m -6.15157,0.001 h 1.21853 a 0.64977324,0.49234886 0 0 1 0.64854,0.49145 0.64977324,0.49234886 0 0 1 -0.64854,0.49247 h -1.21853 a 0.64977324,0.49234886 0 0 1 -0.65008,-0.49247 0.64977324,0.49234886 0 0 1 0.65008,-0.49145 z m -66.115334,0.0367 H 94.62285 a 0.93121761,0.50791969 0 0 1 0.93225,0.5085 0.93121761,0.50791969 0 0 1 -0.93225,0.50746 H 79.725056 a 0.93121761,0.50791969 0 0 1 -0.932242,-0.50746 0.93121761,0.50791969 0 0 1 0.932242,-0.5085 z m 18.275364,0 h 1.63091 a 0.81550002,0.50791969 0 0 1 0.81649,0.5085 0.81550002,0.50791969 0 0 1 -0.81649,0.50746 h -1.63091 a 0.81550002,0.50791969 0 0 1 -0.81442,-0.50746 0.81550002,0.50791969 0 0 1 0.81442,-0.5085 z m 4.89479,0 h 13.04675 a 0.81550002,0.50791969 0 0 1 0.81649,0.5085 0.81550002,0.50791969 0 0 1 -0.81649,0.50746 h -13.04675 a 0.81550002,0.50791969 0 0 1 -0.81649,-0.50746 0.81550002,0.50791969 0 0 1 0.81649,-0.5085 z m 16.30857,0 h 1.63091 a 0.81550002,0.50791969 0 0 1 0.81648,0.5085 0.81550002,0.50791969 0 0 1 -0.81648,0.50746 h -1.63091 a 0.81550002,0.50791969 0 0 1 -0.81442,-0.50746 0.81550002,0.50791969 0 0 1 0.81442,-0.5085 z m 4.72529,0 h 10.36578 a 0.64782845,0.50791969 0 0 1 0.64854,0.50747 0.64782845,0.50791969 0 0 1 -0.64854,0.50849 h -10.36578 a 0.64782845,0.50791969 0 0 1 -0.64699,-0.50746 0.64782845,0.50791969 0 0 1 0.64699,-0.5085 z m 10.31152,2.46704 a 0.69963002,0.69963002 0 0 1 0.70125,0.69918 l 0.002,2.81068 a 0.69963002,0.69963002 0 0 1 -0.69918,0.701252 0.69963002,0.69963002 0 0 1 -0.70125,-0.699182 l -0.002,-2.81275 a 0.69963002,0.69963002 0 0 1 0.69919,-0.69918 z m -54.818357,0.83767 a 0.69999999,0.69999999 0 0 1 0.699182,0.6997 l 0.0021,4.898412 a 0.69999999,0.69999999 0 0 1 -0.699182,0.69918 0.69999999,0.69999999 0 0 1 -0.70125,-0.69918 v -4.898412 a 0.69999999,0.69999999 0 0 1 0.699183,-0.6997 z m 48.451297,1.7446 a 0.79058999,0.79058999 0 0 1 0.79117,0.79065 0.79058999,0.79058999 0 0 1 -0.79117,0.791162 h -12.64832 a 0.79058999,0.79058999 0 0 1 -0.79117,-0.791162 0.79058999,0.79058999 0 0 1 0.7891,-0.7891 z m -64.828076,0.002 h 1.580266 a 0.79058999,0.79058999 0 0 1 0.790649,0.79116 0.79058999,0.79058999 0 0 1 -0.790649,0.791172 h -1.580266 a 0.79058999,0.79058999 0 0 1 -0.791166,-0.791172 0.79058999,0.79058999 0 0 1 0.791166,-0.79116 z m 28.643726,0 h 15.57631 a 0.97342612,0.79058999 0 0 1 0.97152,0.7891 0.97342612,0.79058999 0 0 1 -0.97152,0.791162 H 91.68918 a 0.97342612,0.79058999 0 0 1 -0.97358,-0.789102 0.97342612,0.79058999 0 0 1 0.97358,-0.79116 z m 18.79162,0 h 1.58026 a 0.79058999,0.79058999 0 0 1 0.79117,0.7891 0.79058999,0.79058999 0 0 1 -0.79117,0.791162 h -1.58026 a 0.79058999,0.79058999 0 0 1 -0.79065,-0.791162 0.79058999,0.79058999 0 0 1 0.79065,-0.7891 z m -28.33367,5.1e-4 h 6.32416 a 0.79049999,0.79049999 0 0 1 0.79117,0.79065 0.79049999,0.79049999 0 0 1 -0.79117,0.791172 h -6.32416 a 0.79049999,0.79049999 0 0 1 -0.79116,-0.791172 0.79049999,0.79049999 0 0 1 0.79116,-0.79065 z m -9.197887,0.002 h 1.21853 a 0.64977324,0.79049999 0 0 1 0.649056,0.78858 0.64977324,0.79049999 0 0 1 -0.649056,0.791172 h -1.21853 a 0.64977324,0.79049999 0 0 1 -0.65009,-0.791172 0.64977324,0.79049999 0 0 1 0.65009,-0.78858 z m 79.045817,0.0238 h 1.21853 a 0.64977324,0.79049999 0 0 1 0.64854,0.7891 0.64977324,0.79049999 0 0 1 -0.64854,0.791172 h -1.21853 a 0.64977324,0.79049999 0 0 1 -0.65009,-0.791172 0.64977324,0.79049999 0 0 1 0.65009,-0.7891 z m -21.48345,0.0207 h 1.21853 a 0.64977324,0.79049999 0 0 1 0.64854,0.7891 0.64977324,0.79049999 0 0 1 -0.64854,0.790652 h -1.21853 a 0.64977324,0.79049999 0 0 1 -0.65008,-0.790652 0.64977324,0.79049999 0 0 1 0.65008,-0.7891 z m 9.17412,0.0202 h 1.21853 a 0.64977324,0.79049999 0 0 1 0.64854,0.7891 0.64977324,0.79049999 0 0 1 -0.64854,0.790652 h -1.21853 a 0.64977324,0.79049999 0 0 1 -0.65009,-0.790652 0.64977324,0.79049999 0 0 1 0.65009,-0.7891 z m 6.15466,0.12919 h 1.21853 a 0.64977324,0.79049999 0 0 1 0.64854,0.7891 0.64977324,0.79049999 0 0 1 -0.64854,0.791162 h -1.21853 a 0.64977324,0.79049999 0 0 1 -0.65008,-0.791162 0.64977324,0.79049999 0 0 1 0.65008,-0.7891 z m -14.71486,2.256712 a 0.70003498,0.70003498 0 0 1 0.69918,0.70125 l 0.002,5.29115 a 0.70003498,0.70003498 0 0 1 -0.70125,0.70125 0.70003498,0.70003498 0 0 1 -0.69918,-0.69919 l -0.002,-5.29321 a 0.70003498,0.70003498 0 0 1 0.70125,-0.70125 z m 2.26136,3.16208 h 1.21853 a 0.64977324,0.79049999 0 0 1 0.64854,0.7891 0.64977324,0.79049999 0 0 1 -0.64854,0.79065 h -1.21853 a 0.64977324,0.79049999 0 0 1 -0.65009,-0.79065 0.64977324,0.79049999 0 0 1 0.65009,-0.7891 z m 6.36499,0.0269 h 4.54959 a 0.56863996,0.79049999 0 0 1 0.56741,0.79065 0.56863996,0.79049999 0 0 1 -0.56741,0.79117 h -4.54959 a 0.56863996,0.79049999 0 0 1 -0.56896,-0.79117 0.56863996,0.79049999 0 0 1 0.56896,-0.79065 z m -66.300342,0.13178 a 0.79049999,0.79049999 0 0 1 0.791166,0.79065 0.79049999,0.79049999 0 0 1 -0.791166,0.79116 h -1.581816 a 0.79049999,0.79049999 0 0 1 -0.789099,-0.79116 0.79049999,0.79049999 0 0 1 0.789099,-0.78859 z m 5.158858,0 h 4.549074 a 0.56863996,0.79049999 0 0 1 0.56792,0.79065 0.56863996,0.79049999 0 0 1 -0.56792,0.79116 h -4.549074 a 0.56863996,0.79049999 0 0 1 -0.568958,-0.79116 0.56863996,0.79049999 0 0 1 0.568958,-0.79065 z m 7.489984,0 h 1.57974 a 0.79049999,0.79049999 0 0 1 0.79117,0.79065 0.79049999,0.79049999 0 0 1 -0.79117,0.79116 h -1.57974 a 0.79049999,0.79049999 0 0 1 -0.79117,-0.79116 0.79049999,0.79049999 0 0 1 0.79117,-0.79065 z m 4.74182,0 h 6.32417 a 0.79049999,0.79049999 0 0 1 0.79116,0.79065 0.79049999,0.79049999 0 0 1 -0.79116,0.79116 H 90.8422 a 0.79049999,0.79049999 0 0 1 -0.79064,-0.79116 0.79049999,0.79049999 0 0 1 0.79064,-0.79065 z m 9.48624,0 h 1.58027 a 0.79049999,0.79049999 0 0 1 0.79117,0.79065 0.79049999,0.79049999 0 0 1 -0.79117,0.79116 h -1.58027 a 0.79049999,0.79049999 0 0 1 -0.79065,-0.79116 0.79049999,0.79049999 0 0 1 0.79065,-0.79065 z m 4.74235,0 h 6.32416 a 0.79049999,0.79049999 0 0 1 0.79117,0.79065 0.79049999,0.79049999 0 0 1 -0.79117,0.78909 l -6.32416,0.002 a 0.79049999,0.79049999 0 0 1 -0.7891,-0.79116 0.79049999,0.79049999 0 0 1 0.7891,-0.79065 z m 9.48624,0 h 1.58234 a 0.79049999,0.79049999 0 0 1 0.78909,0.79065 0.79049999,0.79049999 0 0 1 -0.78909,0.78909 h -1.58234 a 0.79049999,0.79049999 0 0 1 -0.79065,-0.78909 0.79049999,0.79049999 0 0 1 0.79065,-0.79065 z m 4.98885,0 h 8.27701 a 1.0349224,0.79049999 0 0 1 1.0356,0.79065 1.0349224,0.79049999 0 0 1 -1.03302,0.78909 h -8.27959 a 1.0349224,0.79049999 0 0 1 -1.0356,-0.78909 1.0349224,0.79049999 0 0 1 1.0356,-0.79065 z m 28.21274,0 h 1.48208 a 0.79049999,0.79049999 0 0 1 0.7891,0.78909 0.79049999,0.79049999 0 0 1 -0.7891,0.79065 h -1.48208 a 0.79049999,0.79049999 0 0 1 -0.79116,-0.79065 0.79049999,0.79049999 0 0 1 0.79116,-0.78909 z m -80.789374,0.002 h 1.738395 a 0.79049999,0.79049999 0 0 1 0.791166,0.78859 0.79049999,0.79049999 0 0 1 -0.789099,0.79116 h -1.740462 a 0.79049999,0.79049999 0 0 1 -0.791166,-0.79116 0.79049999,0.79049999 0 0 1 0.791166,-0.78859 z m 78.160084,5.77123 a 0.75,0.75 0 0 1 0.75034,0.74982 0.75,0.75 0 0 1 -0.75034,0.75034 l -74.050774,0.002 a 0.75,0.75 0 0 1 -0.749825,-0.74982 0.75,0.75 0 0 1 0.749825,-0.74983 z m -5.63273,5.69319 a 0.75,0.75 0 0 1 0.74982,0.75034 0.75,0.75 0 0 1 -0.74982,0.74983 l -62.783246,0.002 a 0.75,0.75 0 0 1 -0.749825,-0.75034 0.75,0.75 0 0 1 0.749825,-0.74982 z m -9.63456,5.62911 a 0.75,0.75 0 0 1 0.74983,0.74983 0.75,0.75 0 0 1 -0.74983,0.74982 l -43.51362,0.004 a 0.75,0.75 0 0 1 -0.75034,-0.74983 0.75,0.75 0 0 1 0.75034,-0.75034 z" /></g></svg>
