<?xml version="1.0" encoding="UTF-8" standalone="no"?>
<!-- Created with Inkscape (http://www.inkscape.org/) -->

<svg
   width="223.90981mm"
   height="196.72086mm"
   viewBox="0 0 223.90981 196.72086"
   version="1.1"
   id="svg1"
   xml:space="preserve"
   inkscape:version="1.3 (0e150ed6c4, 2023-07-21)"
   sodipodi:docname="cardsort_logo_color.svg"
   xmlns:inkscape="http://www.inkscape.org/namespaces/inkscape"
   xmlns:sodipodi="http://sodipodi.sourceforge.net/DTD/sodipodi-0.dtd"
   xmlns="http://www.w3.org/2000/svg"
   xmlns:svg="http://www.w3.org/2000/svg"><sodipodi:namedview
     id="namedview1"
     pagecolor="#ffffff"
     bordercolor="#000000"
     borderopacity="0.25"
     inkscape:showpageshadow="2"
     inkscape:pageopacity="0.0"
     inkscape:pagecheckerboard="0"
     inkscape:deskcolor="#d1d1d1"
     inkscape:document-units="mm"
     inkscape:zoom="0.70822811"
     inkscape:cx="362.17145"
     inkscape:cy="277.45298"
     inkscape:window-width="1920"
     inkscape:window-height="1012"
     inkscape:window-x="0"
     inkscape:window-y="34"
     inkscape:window-maximized="1"
     inkscape:current-layer="layer1" /><defs
     id="defs1" /><g
     inkscape:label="Layer 1"
     inkscape:groupmode="layer"
     id="layer1"
     transform="translate(8.1523919,-68.672935)"><g
       id="g28"
       style="fill:#732e73;fill-opacity:0.399145"><path
         style="display:inline;fill:#732e73;fill-opacity:0.399145;stroke:none;stroke-width:2.5;stroke-linecap:round;stroke-dasharray:none;stroke-opacity:1"
         d="m 30.316449,141.12593 81.091101,48.92054 67.45663,-44.21455 -0.78605,-5.75211 -5.10474,-4.62619 -68.40899,42.14079 -71.491926,-42.08513 z"
         id="path27-6" /><path
         style="display:inline;fill:#732e73;fill-opacity:0.399145;stroke:none;stroke-width:2.5;stroke-linecap:round;stroke-dasharray:none;stroke-opacity:1"
         d="m 31.018458,127.02095 81.091102,48.92054 67.45663,-44.21455 -0.78605,-5.75211 -5.10474,-4.62619 -68.40899,42.14079 -71.491927,-42.08513 z"
         id="path27" /><path
         style="display:inline;fill:#732e73;fill-opacity:0.399145;stroke:none;stroke-width:2.5;stroke-linecap:round;stroke-dasharray:none;stroke-opacity:1"
         d="m 84.499727,180.92898 -7.338079,5.53014 -6.699988,5.37063 c 0,0 2.286503,3.24366 4.466659,2.12698 2.180156,-1.11667 4.945233,-3.40317 6.061896,-4.25396 1.116661,-0.85079 3.084116,-1.7016 5.636488,0.10633 2.552374,1.80794 18.498287,13.83334 27.172177,13.71904 8.04605,-0.10603 11.96427,-5.95553 15.89918,-8.18887 3.93491,-2.23333 61.78877,-43.1777 61.78877,-43.1777 l -12.49602,-5.79602 -68.64828,43.76261 -5.95555,1.22302 z"
         id="path25"
         sodipodi:nodetypes="cccsssssccccc" /><path
         style="display:inline;fill:#732e73;fill-opacity:0.399145;stroke:none;stroke-width:2.5;stroke-linecap:round;stroke-dasharray:none;stroke-opacity:1"
         d="m 52.563902,163.55878 c 0,0 -1.466402,2.068 4.399204,5.64001 5.865606,3.57199 8.723209,3.42159 2.444003,7.8208 -6.279205,4.39921 -17.446421,13.34802 -17.446421,13.34802 l 7.181609,21.28163 3.835205,-1.61681 5.489609,-8.1968 26.019228,-21.95844 -31.396038,-18.83762 z"
         id="path26" /><path
         style="display:inline;fill:#732e73;fill-opacity:0.399145;stroke:none;stroke-width:2.5;stroke-linecap:round;stroke-dasharray:none;stroke-opacity:1"
         d="m 111.17044,252.26629 -0.0607,-20.36216 91.29435,-66.40276 0.69791,21.66914 z"
         id="path24"
         sodipodi:nodetypes="ccccc" /></g><g
       id="g27"
       style="stroke:#304273;stroke-opacity:1"><path
         id="path1-3"
         style="fill:none;stroke:#304273;stroke-width:5;stroke-dasharray:none;stroke-opacity:1"
         d="m 35.097083,121.83701 c -0.975244,0.55293 -1.916555,1.0881 -2.312521,1.3441 -4.042,2.61321 -3.191777,10.19256 0.82734,12.78423 4.019116,2.59167 57.252805,35.17575 67.003148,41.13444 5.20153,3.1788 12.47477,-1.83784 19.9657,-6.57996 7.49093,-4.74212 37.7166,-24.04936 52.41438,-33.73024 9.5421,-6.28502 6.33223,-10.89205 0.16329,-14.85697 -14.7184,9.69294 -44.86524,28.9502 -52.34667,33.68631 -7.49094,4.74212 -14.76417,9.75876 -19.96571,6.57997 -9.555297,-5.8395 -59.917031,-36.66835 -65.748957,-40.36188 z" /><path
         style="fill:none;stroke:#304273;stroke-width:5;stroke-dasharray:none;stroke-opacity:1"
         d="m 32.780519,108.20221 c 4.042,-2.61321 41.10753,-22.17575 53.16646,-28.503731 12.05893,-6.327981 19.258361,-11.083175 26.508031,-7.106408 7.7456,4.248804 39.04921,22.413672 49.06807,28.012029 10.01886,5.59837 26.45297,11.33641 11.46802,21.20643 -14.69779,9.68089 -44.92355,28.98802 -52.41448,33.73015 -7.49094,4.74212 -14.76408,9.7588 -19.96562,6.58 -9.750351,-5.9587 -62.984161,-38.54279 -67.003291,-41.13446 -4.01912,-2.59168 -4.8692,-10.1708 -0.82719,-12.78401 z"
         id="path1-2"
         sodipodi:nodetypes="zzszszszz" /><path
         style="fill:none;stroke:#304273;stroke-width:5;stroke-dasharray:none;stroke-opacity:1"
         d="m 203.82184,178.52393 c 0,0 19.06935,5.14852 3.02694,16.87767 -21.14818,15.46216 -64.70242,50.48306 -78.35959,59.85446 -13.65717,9.37139 -19.50178,9.98773 -31.626847,2.57545 -5.128995,-3.13545 -14.990012,-10.46225 -30.122364,-19.93433 -12.6747,9.99243 -34.868643,-1.19466 -35.153884,-21.32997 -15.735164,-9.9349 -31.49915003,-19.51653 -33.6551353,-21.11069 -5.6714339,-4.19353 -5.870273,-7.98903 8.0268166,-13.42671"
         id="path1-2-2"
         sodipodi:nodetypes="cszsccsc" /><path
         id="path1-6-2"
         style="fill:none;stroke:#304273;stroke-width:5;stroke-dasharray:none;stroke-opacity:1"
         d="m 174.31132,135.82117 c -0.43357,0.32209 -0.81327,0.63716 -1.31619,0.96841 -14.69778,9.68088 -44.92345,28.98812 -52.41438,33.73024 -7.49093,4.74212 -14.76417,9.75876 -19.9657,6.57996 -9.721586,-5.94112 -62.52229,-38.26085 -66.818147,-41.02075 -0.181197,0.10929 -0.591848,0.3364 -0.714168,0.41548 -4.042002,2.61321 -3.191778,10.19204 0.82734,12.78372 4.019119,2.59166 57.252812,35.17574 67.003145,41.13444 5.20154,3.17879 12.47477,-1.83785 19.96571,-6.57996 7.49092,-4.74213 37.71659,-24.04936 52.41437,-33.73024 9.08523,-5.98411 6.5994,-10.44519 1.01802,-14.2813 z" /><ellipse
         style="fill:none;stroke:#304273;stroke-width:5;stroke-dasharray:none;stroke-opacity:1"
         id="path2"
         cx="81.044342"
         cy="119.5284"
         rx="13.050236"
         ry="8.2694178" /><ellipse
         style="fill:none;stroke:#304273;stroke-width:5;stroke-dasharray:none;stroke-opacity:1"
         id="path2-7"
         cx="119.92241"
         cy="109.88946"
         rx="8.3522348"
         ry="5.3690729" /><ellipse
         style="fill:#304273;stroke:#304273;stroke-width:5;stroke-dasharray:none;stroke-opacity:1;fill-opacity:1"
         id="path3"
         cx="117.1289"
         cy="130.23598"
         rx="5.0225434"
         ry="2.6717665" /><ellipse
         style="fill:#304273;stroke:#304273;stroke-width:5;stroke-dasharray:none;stroke-opacity:1;fill-opacity:1"
         id="path3-3"
         cx="82.276955"
         cy="97.126442"
         rx="5.0225434"
         ry="2.6717665" /><ellipse
         style="fill:#304273;stroke:#304273;stroke-width:5;stroke-dasharray:none;stroke-opacity:1;fill-opacity:1"
         id="path3-4"
         cx="144.59795"
         cy="111.71626"
         rx="5.0225434"
         ry="2.6717665" /><path
         style="fill:none;stroke:#304273;stroke-width:4.99999;stroke-dasharray:none;stroke-opacity:1"
         d="m 32.105128,147.18427 c 0,0 -23.3967766,15.68647 -26.0555049,17.4944 -2.6587284,1.80793 1.9274016,3.03929 7.9230029,6.64681 6.274591,3.77539 30.771896,10.49519 35.02586,41.7618"
         id="path4"
         sodipodi:nodetypes="cssc" /><path
         style="fill:none;stroke:#304273;stroke-width:4.99999;stroke-dasharray:none;stroke-opacity:1"
         d="m 50.734221,214.53306 c 0,0 2.587546,-8.32509 7.054191,-12.26001 4.466649,-3.93492 26.321377,-21.21663 26.321377,-21.21663"
         id="path5"
         sodipodi:nodetypes="csc" /><path
         style="fill:none;stroke:#304273;stroke-width:4.99999;stroke-dasharray:none;stroke-opacity:1"
         d="m 54.531565,214.04526 c 0,0 15.038076,-8.73961 31.67303,0.98321 18.139785,10.60236 24.758305,17.12864 24.758305,17.12864 l 90.07761,-65.03241 c 0,0 7.23173,-4.36031 -1.11668,-8.98649 -8.3484,-4.62618 -20.63169,-11.06029 -20.63169,-11.06029"
         id="path6"
         sodipodi:nodetypes="csccsc" /><path
         style="fill:none;stroke:#304273;stroke-width:4.99999;stroke-dasharray:none;stroke-opacity:1"
         d="m 5.3583527,165.33143 c 0,0 0.05318,19.26248 0.1595278,21.01722 0.1063477,1.75475 -0.3323336,3.42973 3.4962233,5.71624 1.4226222,0.84962 8.5490832,4.48336 24.3232012,15.07655 6.169211,4.14296 4.456107,4.46136 6.025956,6.93681 m 23.238433,15.42134 c 3.322897,-1.03332 4.998064,-1.96593 7.984006,-0.11271 16.600586,10.30314 33.0904,21.43232 34.37319,22.10287 3.50952,1.83452 7.54084,1.54205 10.32783,0.0975 3.85817,-1.99969 85.43472,-62.71285 86.87044,-64.09539 1.43571,-1.38255 1.28698,-2.93594 1.23381,-5.80736 -0.0532,-2.87142 0.42704,-17.76527 0.42704,-17.76527"
         id="path7"
         sodipodi:nodetypes="csssccsssssc" /><ellipse
         style="fill:#732e73;fill-opacity:0.4;stroke:#304273;stroke-width:4.94634;stroke-dasharray:none;stroke-opacity:1"
         id="path8"
         cx="117.87587"
         cy="170.3056"
         rx="10.341577"
         ry="5.0108891"
         transform="matrix(0.84245042,0.53877388,-0.29460222,0.95561997,0,0)" /><path
         style="fill:none;stroke:#304273;stroke-width:4.99999;stroke-dasharray:none;stroke-opacity:1"
         d="m 36.513025,213.06644 c 0,0 19.458024,-8.93001 29.196438,17.76601"
         id="path9"
         sodipodi:nodetypes="cc" /><path
         style="fill:none;stroke:#304273;stroke-width:2.5;stroke-linecap:round;stroke-dasharray:none;stroke-opacity:1"
         d="m 44.045078,210.93914 c 0,0 -3.722404,-13.61122 -20.642423,-25.19203"
         id="path10" /><path
         style="fill:none;stroke:#304273;stroke-width:2.5;stroke-linecap:round;stroke-dasharray:none;stroke-opacity:1"
         d="m 40.96463,211.76819 c 0,0 -9.417947,-16.941 -33.6790314,-28.61928"
         id="path11" /><path
         style="fill:none;stroke:#304273;stroke-width:2.5;stroke-linecap:round;stroke-dasharray:none;stroke-opacity:1"
         d="m 6.8443679,176.45997 c 0,0 5.0015941,2.59056 11.9800151,6.5626"
         id="path12"
         sodipodi:nodetypes="cc" /><path
         style="fill:none;stroke:#304273;stroke-width:2.5;stroke-linecap:round;stroke-dasharray:none;stroke-opacity:1"
         d="m 23.778089,164.04612 c 0,0 21.262528,8.01438 26.096577,19.87684"
         id="path13"
         sodipodi:nodetypes="cc" /><path
         style="fill:none;stroke:#304273;stroke-width:2.5;stroke-linecap:round;stroke-dasharray:none;stroke-opacity:1"
         d="m 81.703025,200.33889 c 0,0 14.585561,2.8148 31.368325,15.80567"
         id="path14" /><path
         style="fill:none;stroke:#304273;stroke-width:2.5;stroke-linecap:round;stroke-dasharray:none;stroke-opacity:1"
         d="m 102.62733,198.96347 c 5.2056,2.41072 11.54356,5.97126 18.23032,11.14721"
         id="path14-9"
         sodipodi:nodetypes="cc" /><path
         style="fill:none;stroke:#304273;stroke-width:2.5;stroke-linecap:round;stroke-dasharray:none;stroke-opacity:1"
         d="m 114.36264,195.6423 c 3.08212,1.84317 10.3302,6.38576 13.68732,8.98437"
         id="path14-9-1"
         sodipodi:nodetypes="cc" /><path
         style="fill:none;stroke:#304273;stroke-width:2.5;stroke-linecap:round;stroke-dasharray:none;stroke-opacity:1"
         d="m 123.03244,190.92953 c 3.08212,1.84317 9.09078,5.70701 12.4479,8.30562"
         id="path14-9-1-1"
         sodipodi:nodetypes="cc" /><path
         style="fill:none;stroke:#304273;stroke-width:2.5;stroke-linecap:round;stroke-dasharray:none;stroke-opacity:1"
         d="m 131.96448,185.68193 c 3.08212,1.84317 7.86192,5.09619 11.21904,7.6948"
         id="path14-9-1-1-8"
         sodipodi:nodetypes="cc" /><path
         style="fill:none;stroke:#304273;stroke-width:2.5;stroke-linecap:round;stroke-dasharray:none;stroke-opacity:1"
         d="m 140.08342,180.04622 c 3.08212,1.84317 7.91905,5.163 11.27617,7.76161"
         id="path14-9-1-1-8-3"
         sodipodi:nodetypes="cc" /><path
         style="fill:none;stroke:#304273;stroke-width:2.5;stroke-linecap:round;stroke-dasharray:none;stroke-opacity:1"
         d="m 148.46739,174.69985 c 3.08212,1.84317 7.5188,4.4946 10.87592,7.09321"
         id="path14-9-1-1-8-3-6"
         sodipodi:nodetypes="cc" /><path
         style="fill:none;stroke:#304273;stroke-width:2.5;stroke-linecap:round;stroke-dasharray:none;stroke-opacity:1"
         d="m 157.36514,169.13193 c 3.08212,1.84317 6.35132,4.0346 9.70844,6.63321"
         id="path14-9-1-1-8-3-6-6"
         sodipodi:nodetypes="cc" /><path
         style="fill:none;stroke:#304273;stroke-width:2.5;stroke-linecap:round;stroke-dasharray:none;stroke-opacity:1"
         d="m 166.65334,163.75801 c 3.08212,1.84317 5.76995,3.42264 9.12707,6.02125"
         id="path14-9-1-1-8-3-6-6-4"
         sodipodi:nodetypes="cc" /><path
         style="fill:none;stroke:#304273;stroke-width:2.5;stroke-linecap:round;stroke-dasharray:none;stroke-opacity:1"
         d="m 175.21997,158.28014 c 3.08212,1.84317 5.68035,3.6261 9.03747,6.22471"
         id="path14-9-1-1-8-3-6-6-4-6"
         sodipodi:nodetypes="cc" /><path
         style="fill:none;stroke:#304273;stroke-width:2.5;stroke-linecap:round;stroke-dasharray:none;stroke-opacity:1"
         d="m 33.242351,158.08258 c 0,0 20.660144,8.46565 25.494193,20.32811"
         id="path13-4"
         sodipodi:nodetypes="cc" /><path
         style="fill:none;stroke:#304273;stroke-width:2.5;stroke-linecap:round;stroke-dasharray:none;stroke-opacity:1"
         d="m 61.824017,221.08374 c 0,0 3.016278,-8.81767 32.488373,8.07788"
         id="path15"
         sodipodi:nodetypes="cc" /><path
         style="fill:none;stroke:#304273;stroke-width:2.5;stroke-linecap:round;stroke-dasharray:none;stroke-opacity:1"
         d="m 64.425595,224.87749 c 0,0 -1.010103,-9.97516 43.103055,19.93488"
         id="path16"
         sodipodi:nodetypes="cc" /><path
         style="fill:none;stroke:#304273;stroke-width:2.5;stroke-linecap:round;stroke-dasharray:none;stroke-opacity:1"
         d="m 107.55449,238.10973 -9.829528,-6.43591"
         id="path17" /><path
         style="fill:none;stroke:#304273;stroke-width:2.5;stroke-linecap:round;stroke-dasharray:none;stroke-opacity:1"
         d="m 112.46304,242.18196 65.38788,-48.01324"
         id="path18" /><path
         style="fill:none;stroke:#304273;stroke-width:2.5;stroke-linecap:round;stroke-dasharray:none;stroke-opacity:1"
         d="m 182.40793,191.1437 21.99604,-16.04858"
         id="path19" /><path
         style="fill:none;stroke:#304273;stroke-width:2.5;stroke-linecap:round;stroke-dasharray:none;stroke-opacity:1"
         d="M 80.372423,109.93863 81.750084,99.693311"
         id="path20" /><path
         style="fill:none;stroke:#304273;stroke-width:2.5;stroke-linecap:round;stroke-dasharray:none;stroke-opacity:1"
         d="M 91.469243,114.07959 111.1883,110.35417"
         id="path21" /><path
         style="fill:none;stroke:#304273;stroke-width:2.5;stroke-linecap:round;stroke-dasharray:none;stroke-opacity:1"
         d="m 119.20678,116.46066 -1.69818,11.04725"
         id="path22" /><path
         style="display:inline;fill:none;stroke:#304273;stroke-width:2.5;stroke-linecap:round;stroke-dasharray:none;stroke-opacity:1"
         d="m 127.80863,109.93641 12.54645,1.1482"
         id="path23" /></g></g></svg>
