<?xml version="1.0" encoding="UTF-8" standalone="no"?>
<!-- Created with Inkscape (http://www.inkscape.org/) -->

<svg
   width="123.11909mm"
   height="123.11961mm"
   viewBox="0 0 123.11909 123.11961"
   version="1.1"
   id="svg1"
   xml:space="preserve"
   inkscape:version="1.3 (0e150ed6c4, 2023-07-21)"
   sodipodi:docname="gaianet_color.svg"
   xmlns:inkscape="http://www.inkscape.org/namespaces/inkscape"
   xmlns:sodipodi="http://sodipodi.sourceforge.net/DTD/sodipodi-0.dtd"
   xmlns:xlink="http://www.w3.org/1999/xlink"
   xmlns="http://www.w3.org/2000/svg"
   xmlns:svg="http://www.w3.org/2000/svg"><sodipodi:namedview
     id="namedview1"
     pagecolor="#ffffff"
     bordercolor="#000000"
     borderopacity="0.25"
     inkscape:showpageshadow="2"
     inkscape:pageopacity="0.0"
     inkscape:pagecheckerboard="0"
     inkscape:deskcolor="#d1d1d1"
     inkscape:document-units="mm"
     inkscape:zoom="1.0015858"
     inkscape:cx="251.1018"
     inkscape:cy="188.20155"
     inkscape:window-width="1920"
     inkscape:window-height="1012"
     inkscape:window-x="0"
     inkscape:window-y="34"
     inkscape:window-maximized="1"
     inkscape:current-layer="layer1"
     showguides="true" /><defs
     id="defs1"><linearGradient
       id="linearGradient154"
       inkscape:collect="always"><stop
         style="stop-color:#000000;stop-opacity:1;"
         offset="0"
         id="stop154" /><stop
         style="stop-color:#28b6ff;stop-opacity:1;"
         offset="1"
         id="stop155" /></linearGradient><linearGradient
       inkscape:collect="always"
       xlink:href="#linearGradient154"
       id="linearGradient155"
       x1="48.438904"
       y1="-108.79749"
       x2="171.55852"
       y2="-108.79749"
       gradientUnits="userSpaceOnUse" /></defs><g
     inkscape:label="Layer 1"
     inkscape:groupmode="layer"
     id="layer1"
     style="display:inline"
     transform="translate(-47.237944,-48.438904)"><path
       id="path3"
       style="display:inline;opacity:1;fill:url(#linearGradient155);stroke-width:0.266259"
       d="m 48.438904,-108.79749 a 61.559719,61.559719 0 0 0 61.560066,61.559546 61.559719,61.559719 0 0 0 61.55955,-61.559546 61.559719,61.559719 0 0 0 -61.55955,-61.55955 61.559719,61.559719 0 0 0 -61.560066,61.55955 z m 4.328935,0 a 57.230839,57.230839 0 0 1 57.231131,-57.23062 57.230839,57.230839 0 0 1 57.23062,57.23062 57.230839,57.230839 0 0 1 -57.23062,57.230612 57.230839,57.230839 0 0 1 -57.231131,-57.230612 z m 1.808158,0 a 55.422817,55.422817 0 0 0 55.422453,55.42297 55.422817,55.422817 0 0 0 55.42298,-55.42297 55.422817,55.422817 0 0 0 -55.42298,-55.42298 55.422817,55.422817 0 0 0 -55.422453,55.42298 z m 7.570597,-13.5754 a 0.611,0.611 0 0 1 0.611332,-0.60927 l 3.43545,-0.001 v -3.7729 a 0.611,0.611 0 0 1 0.611332,-0.61133 0.611,0.611 0 0 1 0.609265,0.61133 l 0.001,3.7729 3.436482,-0.001 a 0.611,0.611 0 0 1 0.611332,0.61133 0.611,0.611 0 0 1 -0.611332,0.61133 h -3.436482 l 10e-4,3.77135 a 0.611,0.611 0 0 1 -0.611332,0.61133 0.611,0.611 0 0 1 -0.611332,-0.61133 v -3.77135 h -3.43545 a 0.611,0.611 0 0 1 -0.611332,-0.61133 z m 0.07958,21.33771 a 0.77475363,0.77475363 0 0 1 0.77463,-0.77463 0.77475363,0.77475363 0 0 1 0.774629,0.77463 0.77475363,0.77475363 0 0 1 -0.774629,0.77463 0.77475363,0.77475363 0 0 1 -0.77463,-0.77463 z m 0.310059,10.268627 c 0.0028,-0.213786 0.106788,-0.525596 0.551387,-0.530717 0.444602,-0.0051 5.21561,0.08026 6.971668,-0.01705 1.770076,-0.09809 3.03225,-1.150267 3.062862,-2.359029 0.03061,-1.208761 0.04442,-1.78222 0.05323,-2.086694 0.0088,-0.304481 0.239137,-0.469295 0.552938,-0.470773 0.264626,0.0015 0.458722,0.166291 0.466122,0.470773 0.0074,0.304474 0.01915,0.877932 0.04496,2.086694 0.02581,1.208762 1.090649,2.260939 2.583305,2.359029 1.480836,0.09731 5.50379,0.01195 5.878711,0.01705 0.374924,0.0051 0.462688,0.31693 0.465088,0.530717 -0.0024,0.213786 -0.09016,0.525596 -0.465088,0.530717 -0.374921,0.0051 -4.397875,-0.08025 -5.878711,0.01705 -1.492656,0.09809 -2.557491,1.150268 -2.583305,2.35903 -0.02581,1.208754 -0.03753,1.782213 -0.04496,2.086694 -0.0074,0.304481 -0.201496,0.469294 -0.466122,0.470772 -0.313801,-0.0015 -0.544138,-0.166291 -0.552938,-0.470772 -0.0088,-0.304481 -0.02262,-0.87794 -0.05323,-2.086694 -0.03061,-1.208762 -1.292786,-2.26094 -3.062862,-2.35903 -1.756058,-0.0973 -6.527066,-0.01195 -6.971668,-0.01705 -0.444599,-0.0051 -0.548587,-0.316931 -0.551387,-0.530717 z m 3.341398,6.236312 a 0.77475363,0.77475363 0 0 1 0.775146,-0.77463 0.77475363,0.77475363 0 0 1 0.77463,0.77463 0.77475363,0.77475363 0 0 1 -0.77463,0.775147 0.77475363,0.77475363 0 0 1 -0.775146,-0.775147 z m 1.390612,-16.537489 a 0.77475363,0.77475363 0 0 1 0.775147,-0.77463 0.77475363,0.77475363 0 0 1 0.77463,0.77463 0.77475363,0.77475363 0 0 1 -0.77463,0.77463 0.77475363,0.77475363 0 0 1 -0.775147,-0.77463 z m 1.00149,-32.48277 a 0.77475363,0.77475363 0 0 1 0.775146,-0.77515 0.77475363,0.77475363 0 0 1 0.77463,0.77515 0.77475363,0.77475363 0 0 1 -0.77463,0.77463 0.77475363,0.77475363 0 0 1 -0.775146,-0.77463 z m 0.780831,24.59023 c 0.002,-0.40387 0.194763,-0.51896 0.582393,-0.52865 0.38762,-0.009 4.542791,0.0144 6.082833,-0.0584 1.365914,-0.0645 2.540644,-1.61079 2.564184,-4.90409 0.0235,-3.29337 0.01039,-3.62301 0.01809,-4.1982 0.008,-0.57512 0.236457,-0.63077 0.510047,-0.63355 0.273582,0.003 0.502863,0.0584 0.510563,0.63355 0.0077,0.57519 -0.0055,0.90483 0.01809,4.1982 0.02354,3.2933 1.197757,4.83959 2.563668,4.90409 1.540046,0.0728 5.69573,0.0494 6.08335,0.0584 0.387617,0.01 0.579893,0.12478 0.582393,0.52865 -0.0025,0.40387 -0.194776,0.51896 -0.582393,0.52865 -0.38762,0.009 -4.543304,-0.0144 -6.08335,0.0584 -1.365911,0.0645 -2.540131,1.61079 -2.563668,4.90409 -0.02354,3.29337 -0.01041,3.623007 -0.01809,4.198197 -0.0077,0.575192 -0.236981,0.630773 -0.510563,0.633553 -0.27359,-0.0028 -0.502047,-0.05836 -0.510047,-0.633553 -0.0077,-0.57519 0.0054,-0.904827 -0.01809,-4.198197 -0.02354,-3.2933 -1.19827,-4.83959 -2.564184,-4.90409 -1.540042,-0.0728 -5.695213,-0.0494 -6.082833,-0.0584 -0.38763,-0.01 -0.580393,-0.12478 -0.582393,-0.52865 z m 0.272851,30.568673 a 0.77475363,0.77475363 0 0 1 0.77463,-0.77463 0.77475363,0.77475363 0 0 1 0.77463,0.77463 0.77475363,0.77475363 0 0 1 -0.77463,0.774629 0.77475363,0.77475363 0 0 1 -0.77463,-0.774629 z m 3.588928,-60.090903 a 0.68302,0.68302 0 0 1 0.681613,-0.68368 h 3.209623 l -0.001,-2.55075 a 0.68302,0.68302 0 0 1 0.683679,-0.68368 0.68302,0.68302 0 0 1 0.68368,0.68368 v 2.55075 h 3.209106 a 0.68302,0.68302 0 0 1 0.683679,0.68368 0.68302,0.68302 0 0 1 -0.683679,0.68161 l -3.209106,0.001 v 2.55178 a 0.68302,0.68302 0 0 1 -0.681613,0.68162 0.68302,0.68302 0 0 1 -0.683679,-0.68162 l -0.001,-2.55178 -3.209623,0.001 a 0.68302,0.68302 0 0 1 -0.681613,-0.68368 z m 5.199166,58.376795 a 0.4861595,0.4861595 0 0 1 0.486275,-0.486275 h 2.213819 l -0.001,-1.876888 a 0.4861595,0.4861595 0 0 1 0.486276,-0.486275 0.4861595,0.4861595 0 0 1 0.486275,0.486275 v 1.876888 h 2.214852 a 0.4861595,0.4861595 0 0 1 0.486275,0.484725 0.4861595,0.4861595 0 0 1 -0.486275,0.486275 l -2.214852,0.001 v 1.875854 a 0.4861595,0.4861595 0 0 1 -0.486275,0.486275 0.4861595,0.4861595 0 0 1 -0.484209,-0.486275 l -10e-4,-1.875854 -2.213819,0.001 a 0.4861595,0.4861595 0 0 1 -0.486275,-0.486792 z m 2.015898,-46.098995 a 3.5596087,3.5596087 0 0 1 3.559989,-3.55947 3.5596087,3.5596087 0 0 1 3.559473,3.55947 3.5596087,3.5596087 0 0 1 -3.559473,3.55947 3.5596087,3.5596087 0 0 1 -3.559989,-3.55947 z m 0.287838,55.686524 a 1.549511,1.549511 0 0 1 1.549259,-1.54926 1.549511,1.549511 0 0 1 1.549776,1.54926 1.549511,1.549511 0 0 1 -1.549776,1.549776 1.549511,1.549511 0 0 1 -1.549259,-1.549776 z m 0.530717,-76.829934 a 0.77475363,0.77475363 0 0 1 0.775146,-0.77463 0.77475363,0.77475363 0 0 1 0.77463,0.77463 0.77475363,0.77475363 0 0 1 -0.77463,0.77463 0.77475363,0.77475363 0 0 1 -0.775146,-0.77463 z m 0.243912,76.829934 a 0.77475363,0.77475363 0 0 0 0.77463,0.775146 0.77475363,0.77475363 0 0 0 0.77463,-0.775146 0.77475363,0.77475363 0 0 0 -0.77463,-0.77463 0.77475363,0.77475363 0 0 0 -0.77463,0.77463 z m 0.183452,-55.686524 a 2.3138454,2.3138454 0 0 0 2.31407,2.31407 2.3138454,2.3138454 0 0 0 2.313554,-2.31407 2.3138454,2.3138454 0 0 0 -2.313554,-2.31355 2.3138454,2.3138454 0 0 0 -2.31407,2.31355 z m 4.857584,40.750485 a 0.77475363,0.77475363 0 0 1 0.77463,-0.77463 0.77475363,0.77475363 0 0 1 0.77463,0.77463 0.77475363,0.77475363 0 0 1 -0.77463,0.774629 0.77475363,0.77475363 0 0 1 -0.77463,-0.774629 z m 1.536857,-65.145895 c 0.0013,-0.19707 0.111355,-0.46563 0.471806,-0.48266 0.360455,-0.017 1.833142,-0.0309 2.980697,-0.0677 1.147555,-0.0368 2.070126,-1.18285 2.084627,-2.42415 0.0145,-1.24124 0.0578,-1.389 0.06253,-1.66966 0.0047,-0.28067 0.253357,-0.39138 0.422196,-0.39274 0.168839,0.001 0.41698,0.11207 0.42168,0.39274 0.0047,0.28066 0.04803,0.42842 0.06253,1.66966 0.0145,1.2413 0.937077,2.38735 2.084627,2.42415 1.147555,0.0368 2.620242,0.0507 2.980697,0.0677 0.360456,0.017 0.470506,0.28559 0.471806,0.48266 -0.0013,0.19707 -0.11135,0.46563 -0.471806,0.48266 -0.360455,0.017 -1.833142,0.0314 -2.980697,0.0682 -1.14755,0.0368 -2.070126,1.18233 -2.084627,2.42363 -0.0145,1.24124 -0.0578,1.389 -0.06253,1.66966 -0.0047,0.28067 -0.252841,0.39138 -0.42168,0.39274 -0.168839,-0.001 -0.417496,-0.11207 -0.422196,-0.39274 -0.0047,-0.28066 -0.04803,-0.42842 -0.06253,-1.66966 -0.0145,-1.2413 -0.937072,-2.38683 -2.084627,-2.42363 -1.147555,-0.0368 -2.620242,-0.0512 -2.980697,-0.0682 -0.360451,-0.017 -0.470506,-0.28559 -0.471806,-0.48266 z m 0.09147,49.66777 a 0.77475363,0.77475363 0 0 1 0.774629,-0.77515 0.77475363,0.77475363 0 0 1 0.77463,0.77515 0.77475363,0.77475363 0 0 1 -0.77463,0.77463 0.77475363,0.77475363 0 0 1 -0.774629,-0.77463 z m 0.494543,-34.65008 a 0.77475363,0.77475363 0 0 1 0.77463,-0.77463 0.77475363,0.77475363 0 0 1 0.77463,0.77463 0.77475363,0.77475363 0 0 1 -0.77463,0.77463 0.77475363,0.77475363 0 0 1 -0.77463,-0.77463 z m 0.19482,61.41072 a 0.70008498,0.70008498 0 0 1 0.699699,-0.701249 h 39.485961 a 0.70008498,0.70008498 0 0 1 0.70125,0.699182 0.70008498,0.70008498 0 0 1 -0.70125,0.701249 H 89.248299 A 0.70008498,0.70008498 0 0 1 88.5486,-74.1717 Z m 0.627352,9.71672 a 0.69999999,0.69999999 0 0 1 0.699182,-0.699183 l 3.128491,-0.001 v -2.534212 a 0.68302,0.68302 0 0 1 0.682129,-0.68368 0.68302,0.68302 0 0 1 0.683163,0.68368 l 0.001,2.534212 3.127975,-0.001 a 0.69999999,0.69999999 0 0 1 0.699182,0.70125 0.69999999,0.69999999 0 0 1 -0.699182,0.699182 l -3.127975,10e-4 0.001,2.534212 a 0.68302,0.68302 0 0 1 -0.683679,0.68368 0.68302,0.68302 0 0 1 -0.683163,-0.68368 v -2.534212 l -3.129008,10e-4 a 0.69999999,0.69999999 0 0 1 -0.699182,-0.701249 z m 0.409794,-54.27937 a 0.52183503,0.52183503 0 0 1 0.523483,-0.52142 h 2.636014 l -0.001,-1.80454 a 0.52183503,0.52183503 0 0 1 0.523482,-0.52193 0.52183503,0.52183503 0 0 1 0.521415,0.52193 v 1.80454 h 2.636532 a 0.52183503,0.52183503 0 0 1 0.521415,0.52142 0.52183503,0.52183503 0 0 1 -0.521415,0.52141 l -2.636532,0.001 v 1.80351 a 0.52183503,0.52183503 0 0 1 -0.521415,0.52348 0.52183503,0.52183503 0 0 1 -0.521415,-0.52348 l -10e-4,-1.80351 -2.636014,0.001 a 0.52183503,0.52183503 0 0 1 -0.523483,-0.52348 z m 1.207678,27.784863 a 0.77475363,0.77475363 0 0 1 0.77463,-0.77463 0.77475363,0.77475363 0 0 1 0.775147,0.77463 0.77475363,0.77475363 0 0 1 -0.775147,0.775146 0.77475363,0.77475363 0 0 1 -0.77463,-0.775146 z m 2.04432,11.016898 a 1.549511,1.549511 0 0 1 1.54926,-1.549259 1.549511,1.549511 0 0 1 1.549776,1.549259 1.549511,1.549511 0 0 1 -1.549776,1.549777 1.549511,1.549511 0 0 1 -1.54926,-1.549777 z m 0.357601,-61.020561 a 0.70042503,0.70042503 0 0 1 0.699182,-0.70125 H 128.834 a 0.70042503,0.70042503 0 0 1 0.70125,0.70125 0.70042503,0.70042503 0 0 1 -0.70125,0.69918 l -34.939473,0.002 a 0.70042503,0.70042503 0 0 1 -0.699182,-0.70125 z m 0.417029,61.020561 a 0.77475363,0.77475363 0 0 0 0.77463,0.775147 0.77475363,0.77475363 0 0 0 0.774629,-0.775147 0.77475363,0.77475363 0 0 0 -0.774629,-0.774629 0.77475363,0.77475363 0 0 0 -0.77463,0.774629 z m 0.83199,-20.936711 a 0.77475363,0.77475363 0 0 1 0.77463,-0.77462 0.77475363,0.77475363 0 0 1 0.77463,0.77462 0.77475363,0.77475363 0 0 1 -0.77463,0.77463 0.77475363,0.77475363 0 0 1 -0.77463,-0.77463 z m 1.544609,9.947718 a 0.77475363,0.77475363 0 0 1 0.77463,-0.77463 0.77475363,0.77475363 0 0 1 0.774629,0.77463 0.77475363,0.77475363 0 0 1 -0.774629,0.77463 0.77475363,0.77475363 0 0 1 -0.77463,-0.77463 z m 0.67231,-18.137398 a 0.77475363,0.77475363 0 0 1 0.77463,-0.77463 0.77475363,0.77475363 0 0 1 0.77463,0.77463 0.77475363,0.77475363 0 0 1 -0.77463,0.77463 0.77475363,0.77475363 0 0 1 -0.77463,-0.77463 z m 0.138493,-17.14572 a 0.77475363,0.77475363 0 0 1 0.77463,-0.77515 0.77475363,0.77475363 0 0 1 0.775146,0.77515 0.77475363,0.77475363 0 0 1 -0.775146,0.77463 0.77475363,0.77475363 0 0 1 -0.77463,-0.77463 z m 0.831474,-10.30118 a 0.77475363,0.77475363 0 0 1 0.77463,-0.77463 0.77475363,0.77475363 0 0 1 0.774629,0.77463 0.77475363,0.77475363 0 0 1 -0.774629,0.77463 0.77475363,0.77475363 0 0 1 -0.77463,-0.77463 z m 3.50056,43.315703 c 0,-1.141092 0.27203,-2.078989 0.81597,-2.813782 0.54394,-0.734793 1.2815,-1.162618 2.21279,-1.283643 v 1.828312 c -0.96426,0.345786 -1.44643,1.097814 -1.44643,2.256193 0,0.821242 0.2762,1.469648 0.82838,1.945101 0.55218,0.466811 1.31419,0.700216 2.28668,0.700216 0.92305,0 1.68141,-0.251019 2.2748,-0.752409 0.59338,-0.510032 0.89038,-1.157923 0.89038,-1.944584 0,-0.121025 -0.0125,-0.259358 -0.0372,-0.414962 -0.033,-0.164248 -0.0907,-0.359184 -0.17311,-0.583943 -0.0907,-0.224761 -0.20613,-0.432002 -0.34623,-0.622185 -0.14011,-0.19018 -0.3336,-0.358953 -0.58085,-0.505912 -0.25548,-0.146959 -0.54416,-0.237756 -0.86558,-0.272335 v 2.15284 h -1.54512 v -3.786332 h 4.8705 v 1.166854 l -1.18649,0.233578 c 0.50273,0.363073 0.86943,0.769008 1.10019,1.21853 0.23076,0.44952 0.34623,0.994305 0.34623,1.634009 0,1.279404 -0.44523,2.338537 -1.33532,3.177067 -0.89008,0.829884 -2.0193,1.244885 -3.38739,1.244885 -1.40103,0 -2.53809,-0.423548 -3.41167,-1.270724 -0.8736,-0.847174 -1.31052,-1.949568 -1.31052,-3.306774 z m 0.17312,-11.347113 v -2.15232 l 9.01185,-3.26802 v 1.99729 l -1.81694,0.62219 v 3.53983 l 1.81694,0.63562 v 1.98386 z m 0,-9.57047 v -1.9451 h 9.01185 v 1.9451 z m 0,-9.45421 v -2.15232 l 9.01185,-3.26802 v 1.9973 l -1.81694,0.62218 v 3.53984 l 1.81694,0.63562 v 1.98385 z m 2.12597,17.98754 3.5233,1.23144 v -2.46341 z m 0,-19.02468 3.5233,1.23145 v -2.46342 z m 0.64337,54.499513 a 0.70021498,0.70021498 0 0 1 0.70125,-0.701249 0.70021498,0.70021498 0 0 1 0.69918,0.701249 l 0.002,12.177551 a 0.70021498,0.70021498 0 0 1 -0.70125,0.701249 0.70021498,0.70021498 0 0 1 -0.69919,-0.701249 z m 0.23254,-77.394243 v -12.18013 a 0.70021498,0.70021498 0 0 1 0.70125,-0.69919 0.70021498,0.70021498 0 0 1 0.69918,0.69919 v 12.18013 a 0.70021498,0.70021498 0 0 1 -0.69918,0.69918 0.70021498,0.70021498 0 0 1 -0.70125,-0.69918 z m 3.4215,3.49798 a 0.70039999,0.70039999 0 0 1 0.70125,-0.6997 h 26.08419 a 0.70039999,0.70039999 0 0 1 0.69919,0.6997 0.70039999,0.70039999 0 0 1 -0.69919,0.70073 h -26.08419 a 0.70039999,0.70039999 0 0 1 -0.70125,-0.70073 z m 0.28422,65.246662 a 0.77475363,0.77475363 0 0 1 0.77463,-0.77463 0.77475363,0.77475363 0 0 1 0.77463,0.77463 0.77475363,0.77475363 0 0 1 -0.77463,0.774629 0.77475363,0.77475363 0 0 1 -0.77463,-0.774629 z m 1.03714,14.486454 a 1.549511,1.549511 0 0 1 1.54926,-1.549776 1.549511,1.549511 0 0 1 1.54978,1.549776 1.549511,1.549511 0 0 1 -1.54978,1.549259 1.549511,1.549511 0 0 1 -1.54926,-1.549259 z m 0.0382,-88.993536 a 1.549511,1.549511 0 0 1 1.54925,-1.54926 1.549511,1.549511 0 0 1 1.54978,1.54926 1.549511,1.549511 0 0 1 -1.54978,1.54978 1.549511,1.549511 0 0 1 -1.54925,-1.54978 z m 0.73638,88.993536 a 0.77475363,0.77475363 0 0 0 0.77463,0.77463 0.77475363,0.77475363 0 0 0 0.77463,-0.77463 0.77475363,0.77475363 0 0 0 -0.77463,-0.775147 0.77475363,0.77475363 0 0 0 -0.77463,0.775147 z m 0.0382,-88.993536 a 0.77475363,0.77475363 0 0 0 0.77463,0.77515 0.77475363,0.77475363 0 0 0 0.77463,-0.77515 0.77475363,0.77475363 0 0 0 -0.77463,-0.77463 0.77475363,0.77475363 0 0 0 -0.77463,0.77463 z m 0.21084,95.745579 a 0.77475363,0.77475363 0 0 1 0.77515,-0.77463 0.77475363,0.77475363 0 0 1 0.77463,0.77463 0.77475363,0.77475363 0 0 1 -0.77463,0.774629 0.77475363,0.77475363 0 0 1 -0.77515,-0.774629 z m 0.0388,-102.498649 a 0.77475363,0.77475363 0 0 1 0.77463,-0.77463 0.77475363,0.77475363 0 0 1 0.77463,0.77463 0.77475363,0.77475363 0 0 1 -0.77463,0.77514 0.77475363,0.77475363 0 0 1 -0.77463,-0.77514 z m 2.92334,62.658703 v -1.335836 l 4.10001,-2.505787 h -4.10001 v -1.3007 h 6.0265 v 1.3007 l -4.16667,2.540927 h 4.16667 v 1.300696 z m 0,-9.513113 v -4.56975 h 1.03301 v 3.26905 h 1.36426 v -3.02617 h 1.03301 v 3.02617 h 1.56269 v -3.42511 h 1.03353 v 4.72581 z m 0,-8.31629 v -5.06429 h 1.03301 v 1.84743 h 4.99349 v 1.3007 h -4.99349 v 1.91616 z m 0.90589,44.180249 a 0.69999999,0.69999999 0 0 1 0.69918,-0.699182 h 19.69337 a 0.69999999,0.69999999 0 0 1 0.69918,0.699182 0.69999999,0.69999999 0 0 1 -0.69918,0.699183 l -19.69337,0.0015 a 0.69999999,0.69999999 0 0 1 -0.69918,-0.700733 z m 1.82831,-6.049243 a 0.70003998,0.70003998 0 0 1 0.70125,-0.700732 h 24.99795 a 0.70003998,0.70003998 0 0 1 0.69919,0.699182 0.70003998,0.70003998 0 0 1 -0.69919,0.700732 h -24.99795 a 0.70003998,0.70003998 0 0 1 -0.70125,-0.699182 z m 0.29662,10.368876 v -0.162264 a 0.79317498,0.80445631 0 0 1 0.79478,-0.804602 0.79317498,0.80445631 0 0 1 0.79324,0.804602 v 0.162264 a 0.79317498,0.80445631 0 0 1 -0.79324,0.804086 0.79317498,0.80445631 0 0 1 -0.79478,-0.804086 z m 0,-14.846122 v -0.160714 a 0.79317498,0.80445631 0 0 1 0.79323,-0.804085 0.79317498,0.80445631 0 0 1 0.79479,0.804085 v 0.160714 a 0.79317498,0.80445631 0 0 1 -0.79479,0.804085 0.79317498,0.80445631 0 0 1 -0.79323,-0.804085 z m 0,-4.181657 v -0.162781 a 0.79317498,0.80445631 0 0 1 0.79323,-0.804085 0.79317498,0.80445631 0 0 1 0.79479,0.804085 v 0.162781 a 0.79317498,0.80445631 0 0 1 -0.79479,0.804086 0.79317498,0.80445631 0 0 1 -0.79323,-0.804086 z m 0,-4.183724 v -0.160713 a 0.79317498,0.80445631 0 0 1 0.79323,-0.804086 0.79317498,0.80445631 0 0 1 0.79272,0.804086 v 0.160713 a 0.79317498,0.80445631 0 0 1 -0.79272,0.804086 0.79317498,0.80445631 0 0 1 -0.79323,-0.804086 z m 0,-4.183724 v -0.160713 a 0.79317498,0.80445631 0 0 1 0.79323,-0.804086 0.79317498,0.80445631 0 0 1 0.79272,0.804086 v 0.160713 a 0.79317498,0.80445631 0 0 1 -0.79272,0.804086 0.79317498,0.80445631 0 0 1 -0.79323,-0.804086 z m 0,-29.281935 v -0.1602 a 0.79317498,0.80445631 0 0 1 0.79323,-0.80408 0.79317498,0.80445631 0 0 1 0.79272,0.80408 v 0.1602 a 0.79317498,0.80445631 0 0 1 -0.79272,0.8046 0.79317498,0.80445631 0 0 1 -0.79323,-0.8046 z m 0,-4.18372 v -0.1602 a 0.79317498,0.80445631 0 0 1 0.79323,-0.80408 0.79317498,0.80445631 0 0 1 0.79272,0.80408 v 0.1602 a 0.79317498,0.80445631 0 0 1 -0.79272,0.8046 0.79317498,0.80445631 0 0 1 -0.79323,-0.8046 z m 0,-4.18321 v -0.16071 a 0.79317498,0.80445631 0 0 1 0.79323,-0.80409 0.79317498,0.80445631 0 0 1 0.79272,0.80409 v 0.16071 a 0.79317498,0.80445631 0 0 1 -0.79272,0.80615 0.79317498,0.80445631 0 0 1 -0.79323,-0.80615 z m 0,-4.18166 v -0.16278 a 0.79317498,0.80445631 0 0 1 0.79323,-0.80408 0.79317498,0.80445631 0 0 1 0.79272,0.80408 v 0.16278 a 0.79317498,0.80445631 0 0 1 -0.79272,0.80409 0.79317498,0.80445631 0 0 1 -0.79323,-0.80409 z m 0,-14.43787 v -0.16227 a 0.79317498,0.80445631 0 0 1 0.79323,-0.8046 0.79317498,0.80445631 0 0 1 0.79272,0.8046 v 0.16227 a 0.79317498,0.80445631 0 0 1 -0.79272,0.80408 0.79317498,0.80445631 0 0 1 -0.79323,-0.80408 z m 0,-4.18373 v -0.1602 a 0.79317498,0.80445631 0 0 1 0.79323,-0.8046 0.79317498,0.80445631 0 0 1 0.79272,0.8046 v 0.1602 a 0.79317498,0.80445631 0 0 1 -0.79272,0.8046 0.79317498,0.80445631 0 0 1 -0.79323,-0.8046 z m 0,-4.18372 v -0.1602 a 0.79317498,0.80445631 0 0 1 0.79323,-0.80408 0.79317498,0.80445631 0 0 1 0.79272,0.80408 v 0.1602 a 0.79317498,0.80445631 0 0 1 -0.79272,0.8046 0.79317498,0.80445631 0 0 1 -0.79323,-0.8046 z m 0.002,100.396453 V -58.4755 a 0.79317498,0.80445631 0 0 1 0.79323,-0.804086 0.79317498,0.80445631 0 0 1 0.79272,0.804086 v 0.160713 a 0.79317498,0.80445631 0 0 1 -0.79272,0.804086 0.79317498,0.80445631 0 0 1 -0.79323,-0.804086 z m 0,-4.183724 v -0.160713 a 0.79317498,0.80445631 0 0 1 0.79323,-0.804086 0.79317498,0.80445631 0 0 1 0.79272,0.804086 v 0.160713 a 0.79317498,0.80445631 0 0 1 -0.79272,0.804086 0.79317498,0.80445631 0 0 1 -0.79323,-0.804086 z m 5.50405,-50.087899 a 0.82797003,1.0389972 0 0 1 0.82786,-1.03921 0.82797003,1.0389972 0 0 1 0.82837,1.03921 v 10.39213 a 0.82797003,1.0389972 0 0 1 -0.82837,1.03921 0.82797003,1.0389972 0 0 1 -0.82579,-1.03921 z m 0,-4.9568 v -17.23099 a 0.82797003,0.86148968 0 0 1 0.82786,-0.86197 0.82797003,0.86148968 0 0 1 0.82837,0.86197 v 17.23099 a 0.82797003,0.86148968 0 0 1 -0.82837,0.86144 0.82797003,0.86148968 0 0 1 -0.82786,-0.86144 z m 0,-30.7852 v -9.79889 a 0.82797003,0.97991908 0 0 1 0.82786,-0.97978 0.82797003,0.97991908 0 0 1 0.82837,0.97978 v 9.79889 a 0.82797003,0.97991908 0 0 1 -0.82837,0.9803 0.82797003,0.97991908 0 0 1 -0.82786,-0.9803 z m 0.002,51.268701 a 0.82797003,0.83690493 0 0 1 0.82838,-0.837158 0.82797003,0.83690493 0 0 1 0.8263,0.837158 l 0.002,16.73903 a 0.82797003,0.83690493 0 0 1 -0.82837,0.835091 0.82797003,0.83690493 0 0 1 -0.82786,-0.835091 z m 5.2e-4,38.11757 v -7.172172 a 0.82797003,0.81492429 0 0 1 0.82786,-0.815454 0.82797003,0.81492429 0 0 1 0.82837,0.815454 v 7.172172 a 0.82797003,0.81492429 0 0 1 -0.82837,0.814938 0.82797003,0.81492429 0 0 1 -0.82786,-0.814938 z m 0.47232,-78.969861 a 0.70035499,0.70035499 0 0 1 0.70125,-0.69918 h 17.1912 a 0.70035499,0.70035499 0 0 1 0.70125,0.69918 0.70035499,0.70035499 0 0 1 -0.70125,0.70125 h -17.1912 a 0.70035499,0.70035499 0 0 1 -0.70125,-0.70125 z m 2.86133,69.954908 a 0.70008999,0.70008999 0 0 1 0.70125,-0.699182 h 9.48262 a 0.70008999,0.70008999 0 0 1 0.70073,0.699182 0.70008999,0.70008999 0 0 1 -0.70073,0.699182 l -9.48262,0.0021 a 0.70008999,0.70008999 0 0 1 -0.70125,-0.701249 z m 0.46095,-82.146408 a 0.70024502,0.70024502 0 0 1 0.70125,-0.70125 h 9.6914 a 0.70024502,0.70024502 0 0 1 0.69918,0.69918 0.70024502,0.70024502 0 0 1 -0.69918,0.70125 h -9.6914 a 0.70024502,0.70024502 0 0 1 -0.70125,-0.69918 z m 1.77922,3.57033 v -1.21853 a 0.79049999,0.64977324 0 0 1 0.7891,-0.64854 0.79049999,0.64977324 0 0 1 0.79117,0.64854 v 1.21853 a 0.79049999,0.64977324 0 0 1 -0.79117,0.65008 0.79049999,0.64977324 0 0 1 -0.7891,-0.65008 z m 0.23926,85.859871 v -4.549076 a 0.79049999,0.56863996 0 0 1 0.79117,-0.567924 0.79049999,0.56863996 0 0 1 0.79065,0.567924 v 4.549076 a 0.79049999,0.56863996 0 0 1 -0.79065,0.568957 0.79049999,0.56863996 0 0 1 -0.79117,-0.568957 z m 0.0129,-92.011441 v -4.48913 a 0.79049999,0.56111906 0 0 1 0.79117,-0.5612 0.79049999,0.56111906 0 0 1 0.7891,0.5612 l 0.002,4.48913 a 0.79049999,0.56111906 0 0 1 -0.79116,0.56018 0.79049999,0.56111906 0 0 1 -0.79117,-0.56018 z m 0.0605,72.26691 v -14.897799 a 0.81550002,0.93121761 0 0 1 0.81649,-0.932243 0.81550002,0.93121761 0 0 1 0.81442,0.932243 v 14.897799 a 0.81550002,0.93121761 0 0 1 -0.81442,0.932242 0.81550002,0.93121761 0 0 1 -0.81649,-0.932242 z m 0,-18.275371 v -1.630909 a 0.81550002,0.81550002 0 0 1 0.81649,-0.81649 0.81550002,0.81550002 0 0 1 0.81442,0.81649 v 1.630909 a 0.81550002,0.81550002 0 0 1 -0.81442,0.814421 0.81550002,0.81550002 0 0 1 -0.81649,-0.814421 z m 0,-4.894789 v -13.04675 a 0.81550002,0.81550002 0 0 1 0.81649,-0.81649 0.81550002,0.81550002 0 0 1 0.81442,0.81649 v 13.04675 a 0.81550002,0.81550002 0 0 1 -0.81442,0.81649 0.81550002,0.81550002 0 0 1 -0.81649,-0.81649 z m 0,-16.30857 v -1.63091 a 0.81550002,0.81550002 0 0 1 0.81649,-0.81648 0.81550002,0.81550002 0 0 1 0.81442,0.81648 v 1.63091 a 0.81550002,0.81550002 0 0 1 -0.81442,0.81442 0.81550002,0.81550002 0 0 1 -0.81649,-0.81442 z m 0,-4.72529 v -10.36578 a 0.81550002,0.64782845 0 0 1 0.81442,-0.64854 0.81550002,0.64782845 0 0 1 0.81649,0.64854 v 10.36578 a 0.81550002,0.64782845 0 0 1 -0.81442,0.64699 0.81550002,0.64782845 0 0 1 -0.81649,-0.64699 z m 3.08199,-10.31152 a 0.69963002,0.69963002 0 0 1 0.69918,-0.70125 l 2.81068,-0.002 a 0.69963002,0.69963002 0 0 1 0.70125,0.69918 0.69963002,0.69963002 0 0 1 -0.69918,0.70125 l -2.81275,0.002 a 0.69963002,0.69963002 0 0 1 -0.69918,-0.69919 z m 0.83767,54.818363 a 0.69999999,0.69999999 0 0 1 0.6997,-0.699182 l 4.89841,-0.0021 a 0.69999999,0.69999999 0 0 1 0.69918,0.699182 0.69999999,0.69999999 0 0 1 -0.69918,0.70125 h -4.89841 a 0.69999999,0.69999999 0 0 1 -0.6997,-0.699183 z m 0.33228,-23.536033 v -0.16226 a 0.79317498,0.80445631 0 0 1 0.79323,-0.80409 0.79317498,0.80445631 0 0 1 0.62064,0.30696 v -3.64784 a 0.79058999,0.97342612 0 0 1 0.7891,-0.97152 0.79058999,0.97342612 0 0 1 0.79116,0.97152 v 3.63802 a 0.79317498,0.80445631 0 0 1 0.6041,-0.28525 0.79317498,0.80445631 0 0 1 0.79323,0.8046 v 0.16226 a 0.79317498,0.80445631 0 0 1 -0.79323,0.80409 0.79317498,0.80445631 0 0 1 -0.6041,-0.28474 v 10.737332 a 0.79058999,0.97342612 0 0 1 -0.7891,0.973584 0.79058999,0.97342612 0 0 1 -0.79116,-0.973584 v -10.771432 a 0.79317498,0.80445631 0 0 1 -0.62064,0.30695 0.79317498,0.80445631 0 0 1 -0.79323,-0.8046 z m 1.41232,-24.91527 a 0.79058999,0.79058999 0 0 1 0.79065,-0.79117 0.79058999,0.79058999 0 0 1 0.79116,0.79117 v 12.64832 a 0.79058999,0.79058999 0 0 1 -0.79116,0.79117 0.79058999,0.79058999 0 0 1 -0.7891,-0.7891 z m 0.002,64.828082 v -1.580266 a 0.79058999,0.79058999 0 0 1 0.79116,-0.790649 0.79058999,0.79058999 0 0 1 0.79117,0.790649 v 1.580266 a 0.79058999,0.79058999 0 0 1 -0.79117,0.791166 0.79058999,0.79058999 0 0 1 -0.79116,-0.791166 z m 0,-47.435352 v -1.58026 a 0.79058999,0.79058999 0 0 1 0.7891,-0.79117 0.79058999,0.79058999 0 0 1 0.79116,0.79117 v 1.58026 a 0.79058999,0.79058999 0 0 1 -0.79116,0.79065 0.79058999,0.79058999 0 0 1 -0.7891,-0.79065 z m 5.1e-4,28.333675 v -6.324162 a 0.79049999,0.79049999 0 0 1 0.79065,-0.791166 0.79049999,0.79049999 0 0 1 0.79117,0.791166 v 6.324162 a 0.79049999,0.79049999 0 0 1 -0.79117,0.791166 0.79049999,0.79049999 0 0 1 -0.79065,-0.791166 z m 0.002,9.197888 v -1.21853 a 0.79049999,0.64977324 0 0 1 0.78858,-0.649056 0.79049999,0.64977324 0 0 1 0.79117,0.649056 v 1.21853 a 0.79049999,0.64977324 0 0 1 -0.79117,0.65009 0.79049999,0.64977324 0 0 1 -0.78858,-0.65009 z m 0.0238,-79.045823 v -1.21853 a 0.79049999,0.64977324 0 0 1 0.7891,-0.64854 0.79049999,0.64977324 0 0 1 0.79117,0.64854 v 1.21853 a 0.79049999,0.64977324 0 0 1 -0.79117,0.65009 0.79049999,0.64977324 0 0 1 -0.7891,-0.65009 z m 0.0207,21.48345 v -1.21853 a 0.79049999,0.64977324 0 0 1 0.7891,-0.64854 0.79049999,0.64977324 0 0 1 0.79065,0.64854 v 1.21853 a 0.79049999,0.64977324 0 0 1 -0.79065,0.65008 0.79049999,0.64977324 0 0 1 -0.7891,-0.65008 z m 0.0202,-9.17412 v -1.21853 a 0.79049999,0.64977324 0 0 1 0.7891,-0.64854 0.79049999,0.64977324 0 0 1 0.79065,0.64854 v 1.21853 a 0.79049999,0.64977324 0 0 1 -0.79065,0.65009 0.79049999,0.64977324 0 0 1 -0.7891,-0.65009 z m 0.12919,-6.15466 v -1.21853 a 0.79049999,0.64977324 0 0 1 0.7891,-0.64854 0.79049999,0.64977324 0 0 1 0.79116,0.64854 v 1.21853 a 0.79049999,0.64977324 0 0 1 -0.79116,0.65008 0.79049999,0.64977324 0 0 1 -0.7891,-0.65008 z m 2.25671,14.71486 a 0.70003498,0.70003498 0 0 1 0.70125,-0.69918 l 5.29115,-0.002 a 0.70003498,0.70003498 0 0 1 0.70125,0.70125 0.70003498,0.70003498 0 0 1 -0.69919,0.69918 l -5.29321,0.002 a 0.70003498,0.70003498 0 0 1 -0.70125,-0.70125 z m 3.16208,-2.26136 v -1.21853 a 0.79049999,0.64977324 0 0 1 0.7891,-0.64854 0.79049999,0.64977324 0 0 1 0.79065,0.64854 v 1.21853 a 0.79049999,0.64977324 0 0 1 -0.79065,0.65009 0.79049999,0.64977324 0 0 1 -0.7891,-0.65009 z m 0.0269,-6.36499 v -4.54959 a 0.79049999,0.56863996 0 0 1 0.79065,-0.56741 0.79049999,0.56863996 0 0 1 0.79117,0.56741 v 4.54959 a 0.79049999,0.56863996 0 0 1 -0.79117,0.56896 0.79049999,0.56863996 0 0 1 -0.79065,-0.56896 z m 0.13178,66.300348 a 0.79049999,0.79049999 0 0 1 0.79065,-0.791166 0.79049999,0.79049999 0 0 1 0.79116,0.791166 v 1.581816 a 0.79049999,0.79049999 0 0 1 -0.79116,0.789099 0.79049999,0.79049999 0 0 1 -0.78859,-0.789099 z m 0,-5.158858 v -4.549076 a 0.79049999,0.56863996 0 0 1 0.79065,-0.567924 0.79049999,0.56863996 0 0 1 0.79116,0.567924 v 4.549076 a 0.79049999,0.56863996 0 0 1 -0.79116,0.568958 0.79049999,0.56863996 0 0 1 -0.79065,-0.568958 z m 0,-7.489982 V -88.3729 a 0.79049999,0.79049999 0 0 1 0.79065,-0.791167 0.79049999,0.79049999 0 0 1 0.79116,0.791167 v 1.579748 a 0.79049999,0.79049999 0 0 1 -0.79116,0.791166 0.79049999,0.79049999 0 0 1 -0.79065,-0.791166 z m 0,-4.741829 v -6.324162 a 0.79049999,0.79049999 0 0 1 0.79065,-0.791166 0.79049999,0.79049999 0 0 1 0.79116,0.791166 v 6.324162 a 0.79049999,0.79049999 0 0 1 -0.79116,0.790649 0.79049999,0.79049999 0 0 1 -0.79065,-0.790649 z m 0,-9.486239 v -1.58027 a 0.79049999,0.79049999 0 0 1 0.79065,-0.79117 0.79049999,0.79049999 0 0 1 0.79116,0.79117 v 1.58027 a 0.79049999,0.79049999 0 0 1 -0.79116,0.79065 0.79049999,0.79049999 0 0 1 -0.79065,-0.79065 z m 0,-4.74235 v -6.32416 a 0.79049999,0.79049999 0 0 1 0.79065,-0.79117 0.79049999,0.79049999 0 0 1 0.78909,0.79117 l 0.002,6.32416 a 0.79049999,0.79049999 0 0 1 -0.79116,0.7891 0.79049999,0.79049999 0 0 1 -0.79065,-0.7891 z m 0,-9.48624 v -1.58234 a 0.79049999,0.79049999 0 0 1 0.79065,-0.78909 0.79049999,0.79049999 0 0 1 0.78909,0.78909 v 1.58234 a 0.79049999,0.79049999 0 0 1 -0.78909,0.79065 0.79049999,0.79049999 0 0 1 -0.79065,-0.79065 z m 0,-4.98885 v -8.27701 a 0.79049999,1.0349224 0 0 1 0.79065,-1.0356 0.79049999,1.0349224 0 0 1 0.78909,1.03302 v 8.27959 a 0.79049999,1.0349224 0 0 1 -0.78909,1.0356 0.79049999,1.0349224 0 0 1 -0.79065,-1.0356 z m 0,-28.21274 v -1.48208 a 0.79049999,0.79049999 0 0 1 0.78909,-0.7891 0.79049999,0.79049999 0 0 1 0.79065,0.7891 v 1.48208 a 0.79049999,0.79049999 0 0 1 -0.79065,0.79116 0.79049999,0.79049999 0 0 1 -0.78909,-0.79116 z m 0.002,80.78938 v -1.738395 a 0.79049999,0.79049999 0 0 1 0.78859,-0.791166 0.79049999,0.79049999 0 0 1 0.79116,0.789099 v 1.740462 a 0.79049999,0.79049999 0 0 1 -0.79116,0.791166 0.79049999,0.79049999 0 0 1 -0.78859,-0.791166 z m 5.77123,-78.16009 a 0.75,0.75 0 0 1 0.74982,-0.75034 0.75,0.75 0 0 1 0.75034,0.75034 l 0.002,74.05078 a 0.75,0.75 0 0 1 -0.74982,0.749825 0.75,0.75 0 0 1 -0.74983,-0.749825 z m 5.69319,5.63273 a 0.75,0.75 0 0 1 0.75034,-0.74982 0.75,0.75 0 0 1 0.74983,0.74982 l 0.002,62.783252 a 0.75,0.75 0 0 1 -0.75034,0.749825 0.75,0.75 0 0 1 -0.74982,-0.749825 z m 5.62911,9.63456 a 0.75,0.75 0 0 1 0.74983,-0.74983 0.75,0.75 0 0 1 0.74982,0.74983 l 0.004,43.513621 a 0.75,0.75 0 0 1 -0.74983,0.750342 0.75,0.75 0 0 1 -0.75034,-0.750342 z"
       transform="rotate(90)" /></g></svg>
