<?xml version="1.0" encoding="UTF-8" standalone="no"?>
<!-- Created with Inkscape (http://www.inkscape.org/) -->

<svg
   width="169.6418mm"
   height="163.8532mm"
   viewBox="0 0 169.6418 163.8532"
   version="1.1"
   id="svg1"
   xml:space="preserve"
   inkscape:version="1.3 (0e150ed6c4, 2023-07-21)"
   sodipodi:docname="gcam_color.svg"
   xmlns:inkscape="http://www.inkscape.org/namespaces/inkscape"
   xmlns:sodipodi="http://sodipodi.sourceforge.net/DTD/sodipodi-0.dtd"
   xmlns:xlink="http://www.w3.org/1999/xlink"
   xmlns="http://www.w3.org/2000/svg"
   xmlns:svg="http://www.w3.org/2000/svg"><sodipodi:namedview
     id="namedview1"
     pagecolor="#ffffff"
     bordercolor="#000000"
     borderopacity="0.25"
     inkscape:showpageshadow="2"
     inkscape:pageopacity="0.0"
     inkscape:pagecheckerboard="0"
     inkscape:deskcolor="#d1d1d1"
     inkscape:document-units="mm"
     showguides="true"
     inkscape:zoom="1"
     inkscape:cx="76.5"
     inkscape:cy="327.5"
     inkscape:window-width="1920"
     inkscape:window-height="1012"
     inkscape:window-x="0"
     inkscape:window-y="34"
     inkscape:window-maximized="1"
     inkscape:current-layer="layer1" /><defs
     id="defs1"><linearGradient
       id="linearGradient111"
       inkscape:collect="always"><stop
         style="stop-color:#709200;stop-opacity:1;"
         offset="0"
         id="stop111" /><stop
         style="stop-color:#9d3e31;stop-opacity:1;"
         offset="1"
         id="stop112" /></linearGradient><linearGradient
       id="linearGradient103"
       inkscape:collect="always"><stop
         style="stop-color:#1b3279;stop-opacity:1;"
         offset="0"
         id="stop103" /><stop
         style="stop-color:#870148;stop-opacity:1;"
         offset="1"
         id="stop104" /></linearGradient><linearGradient
       id="linearGradient94"
       inkscape:collect="always"><stop
         style="stop-color:#017fa4;stop-opacity:1;"
         offset="0"
         id="stop94" /><stop
         style="stop-color:#870148;stop-opacity:1;"
         offset="1"
         id="stop95" /></linearGradient><linearGradient
       id="linearGradient85"
       inkscape:collect="always"><stop
         style="stop-color:#709200;stop-opacity:1;"
         offset="0"
         id="stop85" /><stop
         style="stop-color:#017fa4;stop-opacity:1;"
         offset="1"
         id="stop86" /></linearGradient><linearGradient
       id="linearGradient77"
       inkscape:collect="always"><stop
         style="stop-color:#1b3279;stop-opacity:1;"
         offset="0"
         id="stop77" /><stop
         style="stop-color:#9d3e31;stop-opacity:1;"
         offset="1"
         id="stop78" /></linearGradient><linearGradient
       id="linearGradient69"
       inkscape:collect="always"><stop
         style="stop-color:#709200;stop-opacity:1;"
         offset="0"
         id="stop69" /><stop
         style="stop-color:#1b3279;stop-opacity:1;"
         offset="1"
         id="stop70" /></linearGradient><linearGradient
       id="linearGradient60"
       inkscape:collect="always"><stop
         style="stop-color:#709200;stop-opacity:1;"
         offset="0"
         id="stop60" /><stop
         style="stop-color:#870148;stop-opacity:1;"
         offset="1"
         id="stop61" /></linearGradient><linearGradient
       id="linearGradient51"
       inkscape:collect="always"><stop
         style="stop-color:#870148;stop-opacity:1;"
         offset="0"
         id="stop51" /><stop
         style="stop-color:#9d3e31;stop-opacity:1;"
         offset="1"
         id="stop52" /></linearGradient><linearGradient
       id="linearGradient38"
       inkscape:collect="always"><stop
         style="stop-color:#017fa4;stop-opacity:1;"
         offset="0.0001"
         id="stop38" /><stop
         style="stop-color:#9d3e31;stop-opacity:1;"
         offset="0.7643351"
         id="stop39" /></linearGradient><linearGradient
       id="linearGradient29"
       inkscape:collect="always"><stop
         style="stop-color:#017fa4;stop-opacity:1;"
         offset="0"
         id="stop29" /><stop
         style="stop-color:#1b3279;stop-opacity:1;"
         offset="1"
         id="stop30" /></linearGradient><linearGradient
       id="linearGradient9"
       inkscape:collect="always"><stop
         style="stop-color:#000000;stop-opacity:1;"
         offset="0"
         id="stop9" /><stop
         style="stop-color:#000000;stop-opacity:0;"
         offset="1"
         id="stop10" /></linearGradient><linearGradient
       inkscape:collect="always"
       xlink:href="#linearGradient9"
       id="linearGradient10"
       x1="75.405623"
       y1="38.080131"
       x2="91.192383"
       y2="38.080131"
       gradientUnits="userSpaceOnUse" /><linearGradient
       inkscape:collect="always"
       xlink:href="#linearGradient29"
       id="linearGradient30"
       x1="73.962601"
       y1="67.437363"
       x2="53.109108"
       y2="82.825348"
       gradientUnits="userSpaceOnUse" /><linearGradient
       inkscape:collect="always"
       xlink:href="#linearGradient38"
       id="linearGradient39"
       x1="131.33855"
       y1="67.608711"
       x2="151.92044"
       y2="82.25489"
       gradientUnits="userSpaceOnUse" /><linearGradient
       inkscape:collect="always"
       xlink:href="#linearGradient51"
       id="linearGradient52"
       x1="160.63882"
       y1="163.88121"
       x2="170.79562"
       y2="134.92091"
       gradientUnits="userSpaceOnUse" /><linearGradient
       inkscape:collect="always"
       xlink:href="#linearGradient60"
       id="linearGradient61"
       x1="91.160281"
       y1="196.68651"
       x2="114.46273"
       y2="196.68651"
       gradientUnits="userSpaceOnUse" /><linearGradient
       inkscape:collect="always"
       xlink:href="#linearGradient69"
       id="linearGradient70"
       x1="42.681267"
       y1="161.26555"
       x2="34.910221"
       y2="137.69852"
       gradientUnits="userSpaceOnUse" /><linearGradient
       inkscape:collect="always"
       xlink:href="#linearGradient77"
       id="linearGradient78"
       x1="67.859378"
       y1="98.991674"
       x2="137.61739"
       y2="98.991674"
       gradientUnits="userSpaceOnUse" /><linearGradient
       inkscape:collect="always"
       xlink:href="#linearGradient85"
       id="linearGradient86"
       x1="71.277451"
       y1="156.42455"
       x2="88.959129"
       y2="89.315002"
       gradientUnits="userSpaceOnUse" /><linearGradient
       inkscape:collect="always"
       xlink:href="#linearGradient94"
       id="linearGradient95"
       x1="116.69406"
       y1="88.712448"
       x2="134.56322"
       y2="156.49986"
       gradientUnits="userSpaceOnUse" /><linearGradient
       inkscape:collect="always"
       xlink:href="#linearGradient103"
       id="linearGradient104"
       x1="62.483719"
       y1="127.27068"
       x2="116.74066"
       y2="170.67662"
       gradientUnits="userSpaceOnUse" /><linearGradient
       inkscape:collect="always"
       xlink:href="#linearGradient111"
       id="linearGradient112"
       x1="89.776062"
       y1="171.00612"
       x2="143.78847"
       y2="127.50919"
       gradientUnits="userSpaceOnUse" /></defs><g
     inkscape:label="Layer 1"
     inkscape:groupmode="layer"
     id="layer1"
     transform="translate(-18.264472,-41.601409)"><circle
       style="fill:none;stroke:#017fa4;stroke-width:3.468;stroke-dasharray:none;stroke-dashoffset:0;stroke-opacity:1"
       id="path1"
       cx="103.12681"
       cy="65.202812"
       r="21.867403" /><circle
       style="fill:none;stroke:#1b3279;stroke-width:3.468;stroke-dasharray:none;stroke-dashoffset:0;stroke-opacity:1"
       id="path1-6"
       cx="41.865875"
       cy="109.46349"
       r="21.867403" /><circle
       style="fill:none;stroke:#9d3e31;stroke-width:3.468;stroke-dasharray:none;stroke-dashoffset:0;stroke-opacity:1"
       id="path1-6-2"
       cx="164.30487"
       cy="109.46349"
       r="21.867403" /><circle
       style="fill:none;stroke:#709200;stroke-width:3.468;stroke-dasharray:none;stroke-dashoffset:0;stroke-opacity:1"
       id="path1-6-2-3"
       cx="65.467278"
       cy="181.8532"
       r="21.867403" /><circle
       style="fill:none;stroke:#870148;stroke-width:3.468;stroke-dasharray:none;stroke-dashoffset:0;stroke-opacity:1"
       id="path1-6-2-3-2"
       cx="140.70346"
       cy="181.8532"
       r="21.867403" /><path
       id="path77"
       style="color:#000000;fill:url(#linearGradient78);-inkscape-stroke:none"
       d="M 104.60597 93.733111 C 103.21021 93.723826 101.83766 93.754863 100.49201 93.820444 C 85.442442 94.553891 73.860806 99.575911 70.48144 101.19054 L 70.109369 100.49239 L 67.859378 104.1056 L 68.257803 104.11904 L 72.113382 104.25185 L 71.783686 103.63328 C 77.015 101.12532 105.41376 88.86362 133.71272 103.60434 L 133.36339 104.2441 L 137.61739 104.14074 L 137.41017 103.79865 L 135.40409 100.50582 L 135.03512 101.18175 C 124.55862 95.714025 114.04936 93.79593 104.60597 93.733111 z " /><path
       id="path111"
       style="color:#000000;display:inline;fill:url(#linearGradient112);-inkscape-stroke:none"
       d="m 143.7147,127.1719 -0.29456,0.26768 -2.85977,2.58951 0.69401,0.22272 c -10.86575,31.66892 -41.820129,37.8497 -48.14073,38.7935 l -0.06873,-0.69763 -3.457153,2.48253 0.363285,0.16382 3.511931,1.59215 -0.07803,-0.78962 c 6.482193,-0.97451 39.133447,-7.47172 50.504407,-40.69984 l 0.72761,0.23358 z" /><path
       id="path102"
       style="color:#000000;display:inline;fill:url(#linearGradient104);stroke:none;-inkscape-stroke:none"
       d="m 62.558409,127.1719 -0.08372,0.39067 -0.816487,3.76773 0.726054,-0.23306 c 11.371128,33.22767 44.022254,39.72481 50.504414,40.69932 l -0.078,0.78962 3.87676,-1.75597 -0.32401,-0.23461 -3.13314,-2.24792 -0.0692,0.69763 c -6.31685,-0.94297 -37.275596,-7.12178 -48.14229,-38.7935 l 0.694015,-0.22272 z" /><path
       id="path85"
       style="color:#000000;fill:url(#linearGradient86);-inkscape-stroke:none"
       d="M 88.808486 88.855372 L 88.406444 88.945289 L 84.519343 89.808802 L 85.054194 90.390679 C 60.772882 113.68264 67.601043 147.33392 69.030366 153.22715 L 68.245917 153.44936 L 71.39818 156.50757 L 71.499982 156.10915 L 72.476667 152.24995 L 71.781619 152.44684 C 70.383616 146.59374 64.04567 114.55473 86.986375 92.49391 L 87.494355 93.046848 L 88.808486 88.855372 z " /><path
       id="path68"
       style="color:#000000;fill:url(#linearGradient70);-inkscape-stroke:none"
       d="M 35.455154 137.68185 L 35.298574 138.0627 L 33.787039 141.74413 L 34.566319 141.63871 C 35.810887 149.36423 38.680751 156.03515 39.86367 158.5643 L 39.148469 158.93171 L 42.84385 161.30883 L 42.863487 160.89645 L 43.058824 156.92202 L 42.409251 157.25585 C 41.270629 154.79561 38.573611 148.45987 37.399738 141.25631 L 38.142328 141.15606 L 35.455154 137.68185 z " /><path
       id="path49"
       style="color:#000000;fill:url(#linearGradient52);-inkscape-stroke:none"
       d="M 169.82215 137.60744 L 169.57048 137.93145 L 167.13497 141.08216 L 167.87705 141.18241 C 166.70353 148.38354 164.00822 154.71753 162.86908 157.17937 L 162.22054 156.84554 L 162.43345 161.23235 L 162.78123 161.00962 L 166.12883 158.8573 L 165.41363 158.48936 C 166.59615 155.96123 169.46606 149.28997 170.71098 141.5643 L 171.49233 141.66972 L 169.82215 137.60744 z " /><path
       id="path59"
       style="color:#000000;fill:url(#linearGradient61);-inkscape-stroke:none"
       d="M 110.41595 194.49595 L 110.51 195.24268 C 104.16663 195.88788 97.716881 195.47039 95.102159 195.24733 L 95.185358 194.50991 L 91.160281 196.26587 L 91.492044 196.50978 L 94.691332 198.87708 L 94.780215 198.09057 C 97.446664 198.32505 104.13942 198.77256 110.86657 198.07816 L 110.96476 198.85744 L 114.46273 196.20334 L 114.08395 196.04314 L 110.41595 194.49595 z " /><path
       id="path28"
       style="color:#000000;fill:url(#linearGradient30);fill-opacity:1;-inkscape-stroke:none"
       d="M 68.531171 68.164129 L 68.909959 68.864344 C 66.692901 70.148018 61.397813 73.386426 56.627505 77.64417 L 56.09007 77.070562 L 54.816246 81.273406 L 55.218805 81.179872 L 59.095571 80.277601 L 58.581391 79.728798 C 63.053249 75.751558 68.109919 72.641052 70.271117 71.38047 L 70.623033 72.031076 L 72.923668 68.289186 L 72.511807 68.2773 L 68.531171 68.164129 z " /><path
       id="path37"
       style="color:#000000;fill:url(#linearGradient39);-inkscape-stroke:none"
       d="M 136.84741 68.164129 L 132.45699 68.289186 L 132.67403 68.640585 L 134.75762 72.031076 L 135.10954 71.379953 C 137.27019 72.64026 142.32694 75.751118 146.79926 79.728798 L 146.28508 80.277601 L 150.56234 81.273406 L 150.44348 80.879115 L 149.2911 77.070562 L 148.75315 77.64417 C 143.98253 73.386334 138.68647 70.147855 136.46914 68.864344 L 136.84741 68.164129 z " /><path
       id="path94"
       style="color:#000000;fill:url(#linearGradient95);-inkscape-stroke:none"
       d="M 116.6564 88.855372 L 116.77939 89.248113 L 117.97053 93.046848 L 118.47748 92.494427 C 141.41828 114.55619 135.08007 146.59637 133.68275 152.44736 L 132.98615 152.24995 L 134.06464 156.50757 L 134.35919 156.22284 L 137.2169 153.44936 L 136.43297 153.22715 C 137.86262 147.33372 144.69232 113.68156 120.41018 90.389645 L 120.94348 89.808802 L 116.6564 88.855372 z " /></g><g
     inkscape:groupmode="layer"
     id="layer2"
     inkscape:label="Layer 2"
     transform="translate(-18.264472,-41.601409)"><path
       style="display:inline;fill:#1b3279;fill-opacity:1;stroke:none;stroke-width:2.468;stroke-linecap:round;stroke-dasharray:none;stroke-dashoffset:0;stroke-opacity:1"
       d="m 40.425727,94.275192 h 5.859941 l -3.963681,8.908448 h 5.43241 l -8.153321,12.50373 2.264799,-9.12306 h -6.059011 z"
       id="path7" /><path
       id="path11"
       style="color:#000000;opacity:1;fill:#1b3279;stroke-linecap:round;-inkscape-stroke:none;fill-opacity:1"
       d="m 38.153743,95.333199 c -3.922503,1.466845 -6.727754,5.237711 -6.727754,9.647471 0,4.3574 2.739789,8.09042 6.589262,9.59425 l 0.556555,-2.24173 c -2.861296,-1.22872 -4.852934,-4.05237 -4.852934,-7.35252 0,-2.62623 1.260896,-4.95101 3.217892,-6.409942 z m 8.889897,0.781348 -0.93586,2.103747 c 2.247942,1.418563 3.734139,3.911986 3.734139,6.762376 0,3.93354 -2.828195,7.18961 -6.587195,7.87446 l -1.582332,2.42724 c 0.03645,3.8e-4 0.0725,0.003 0.109037,0.003 5.70187,0 10.353373,-4.62406 10.353373,-10.30428 0,-3.76828 -2.048239,-7.069656 -5.091162,-8.866123 z"
       sodipodi:nodetypes="csccsccccsccssc" /><path
       id="path3"
       style="display:inline;opacity:1;fill:#017fa4;fill-opacity:1;stroke:none;stroke-width:2.73951;stroke-dasharray:none;stroke-dashoffset:0;stroke-opacity:1"
       d="m 102.81388,50.640837 c -1.26417,1.439386 -3.240515,3.946108 -4.513937,5.935555 -2.051099,3.204398 -3.001117,5.285606 -3.01842,8.323006 -0.03042,5.340562 5.798047,6.735506 7.532357,6.735506 1.7343,0 7.56276,-1.394944 7.53236,-6.735506 -0.0173,-3.0374 -0.96734,-5.118608 -3.01842,-8.323006 -1.27342,-1.989447 -3.24977,-4.496169 -4.51394,-5.935555 z m -4.056601,11.955342 a 1.234,1.234 0 0 1 1.241785,1.226282 c 0.01188,1.784389 0.619996,2.198741 1.261936,2.498039 0.64193,0.299298 1.32602,0.261999 1.32602,0.261999 a 1.234,1.234 0 0 1 1.33429,1.124996 1.234,1.234 0 0 1 -1.12293,1.333769 c 0,0 -1.2654,0.128816 -2.58021,-0.484208 -1.314808,-0.613026 -2.670849,-2.190591 -2.687689,-4.719092 a 1.234,1.234 0 0 1 1.226798,-1.241785 z" /><path
       style="opacity:1;fill:#709200;fill-opacity:1;stroke:none;stroke-width:3.16799;stroke-linecap:round;stroke-dasharray:none;stroke-dashoffset:0;stroke-opacity:1"
       d="m 66.721347,181.8532 h -9.697366 c 0,0 -3.669768,0.23583 -3.690651,-3.55397 -0.01935,-3.51137 3.973101,-3.92602 3.973101,-3.92602 0,0 0.970771,-2.76084 4.689778,-2.74916 4.72507,0.0148 5.213303,4.31203 5.213303,4.31203 0,0 2.477522,0.109 2.524607,3.00336 0.04618,2.83862 -3.012772,2.91376 -3.012772,2.91376 z"
       id="path13"
       sodipodi:nodetypes="ccscscsc" /><path
       id="path14"
       style="fill:#709200;fill-opacity:1;stroke:none;stroke-width:3.16799;stroke-linecap:round;stroke-dasharray:none;stroke-dashoffset:0;stroke-opacity:1"
       d="m 67.584505,169.80566 a 4.2673635,4.2673635 0 0 0 -2.936771,1.18442 c 3.242583,0.83978 3.6158,4.11758 3.6158,4.11758 0,0 1.824097,0.0819 2.370914,1.93528 a 4.2673635,4.2673635 0 0 0 1.217497,-2.96984 4.2673635,4.2673635 0 0 0 -4.26744,-4.26744 z" /><path
       style="fill:#aa0000;fill-opacity:1;stroke:#709200;stroke-width:0.7;stroke-linecap:round;stroke-dasharray:none;stroke-dashoffset:0;stroke-opacity:1"
       d="m 67.550106,164.94543 c 0,2.42328 0,2.42328 0,2.42328"
       id="path15" /><path
       style="fill:#709200;fill-opacity:1;stroke:#709200;stroke-width:0.7;stroke-linecap:round;stroke-dasharray:none;stroke-dashoffset:0;stroke-opacity:1"
       d="m 76.693165,174.61057 c -2.42328,0 -2.42328,0 -2.42328,0"
       id="path15-7" /><path
       style="fill:#709200;fill-opacity:1;stroke:#709200;stroke-width:0.7;stroke-linecap:round;stroke-dasharray:none;stroke-dashoffset:0;stroke-opacity:1"
       d="m 62.785161,169.92345 c -1.713518,-1.71352 -1.713518,-1.71352 -1.713518,-1.71352"
       id="path15-7-3" /><path
       style="fill:#709200;fill-opacity:1;stroke:#709200;stroke-width:0.7;stroke-linecap:round;stroke-dasharray:none;stroke-dashoffset:0;stroke-opacity:1"
       d="m 72.398007,169.1985 c 1.713518,-1.71352 1.713518,-1.71352 1.713518,-1.71352"
       id="path15-7-3-3" /><path
       style="fill:#709200;fill-opacity:1;stroke:#709200;stroke-width:0.7;stroke-linecap:round;stroke-dasharray:none;stroke-dashoffset:0;stroke-opacity:1"
       d="m 71.870772,178.79456 c 1.713518,1.71352 1.713518,1.71352 1.713518,1.71352"
       id="path15-7-3-3-1" /><path
       style="fill:#709200;fill-opacity:1;stroke:none;stroke-width:0.7;stroke-linecap:round;stroke-dasharray:none;stroke-dashoffset:0;stroke-opacity:1"
       d="m 57.791664,183.55758 c 0,0 -0.414256,0.66375 -1.016812,1.24277 -0.341123,0.3278 -0.2542,0.87558 0.0047,1.10154 0.256253,0.22363 1.024748,0.39264 1.33221,-0.49898 0.276935,-0.80309 -0.320106,-1.84533 -0.320106,-1.84533 z"
       id="path16"
       sodipodi:nodetypes="cssscc" /><path
       style="fill:#709200;fill-opacity:1;stroke:none;stroke-width:0.7;stroke-linecap:round;stroke-dasharray:none;stroke-dashoffset:0;stroke-opacity:1"
       d="m 61.855458,183.55758 c 0,0 -0.414256,0.66375 -1.016812,1.24277 -0.341123,0.3278 -0.2542,0.87558 0.0047,1.10154 0.256253,0.22363 1.024748,0.39264 1.33221,-0.49898 0.276935,-0.80309 -0.320106,-1.84533 -0.320106,-1.84533 z"
       id="path16-3"
       sodipodi:nodetypes="cssscc" /><path
       style="fill:#709200;fill-opacity:1;stroke:none;stroke-width:0.7;stroke-linecap:round;stroke-dasharray:none;stroke-dashoffset:0;stroke-opacity:1"
       d="m 65.919252,183.55758 c 0,0 -0.414256,0.66375 -1.016812,1.24277 -0.341123,0.3278 -0.2542,0.87558 0.0047,1.10154 0.256253,0.22363 1.024748,0.39264 1.33221,-0.49898 0.276935,-0.80309 -0.320106,-1.84533 -0.320106,-1.84533 z"
       id="path16-3-1"
       sodipodi:nodetypes="cssscc" /><path
       id="path17"
       style="fill:#870148;fill-opacity:1;stroke:none;stroke-width:0.882524;stroke-linecap:round;stroke-dasharray:none;stroke-dashoffset:0;stroke-opacity:1"
       d="m 140.70356,171.70063 a 2.6926632,2.7679815 0 0 0 -2.69286,2.76779 2.6926632,2.7679815 0 0 0 2.69286,2.76831 2.6926632,2.7679815 0 0 0 2.69234,-2.76831 2.6926632,2.7679815 0 0 0 -2.69234,-2.76779 z m -0.047,5.66736 c -5.54313,-1e-5 -5.04827,5.1201 -5.04827,5.1201 1.66939,0.6933 3.44438,0.9064 5.04827,0.9064 1.60389,0 3.37888,-0.2131 5.04827,-0.9064 0,0 0.49486,-5.12009 -5.04827,-5.1201 z" /><path
       id="path17-0"
       style="fill:#870148;fill-opacity:1;stroke:none;stroke-width:0.386048;stroke-linecap:round;stroke-dasharray:none;stroke-dashoffset:0;stroke-opacity:1"
       d="m 144.00723,165.12325 a 1.16419,1.225042 0 0 0 -1.16427,1.22474 1.16419,1.225042 0 0 0 1.16427,1.22524 1.16419,1.225042 0 0 0 0.71003,-0.25528 c 0.06,-0.39334 0.21821,-0.75519 0.44546,-1.06195 a 1.16419,1.225042 0 0 0 -1.15549,-1.13275 z m -0.0202,2.50838 c -0.41454,0 -0.75076,0.0677 -1.02371,0.17983 6.7e-4,0.0227 0.002,0.0454 0.002,0.0682 5e-5,0.59363 -0.23831,1.13145 -0.61133,1.53944 0.33299,0.14019 0.62252,0.31618 0.86868,0.51418 0.44611,-0.54539 1.06717,-0.94378 1.77871,-1.10278 -0.1898,-0.33292 -0.30463,-0.7124 -0.31006,-1.11983 -0.20571,-0.0497 -0.43806,-0.0791 -0.70435,-0.0791 z" /><path
       id="path17-9"
       style="fill:#870148;fill-opacity:1;stroke:none;stroke-width:0.407533;stroke-linecap:round;stroke-dasharray:none;stroke-dashoffset:0;stroke-opacity:1"
       d="m 137.46603,165.12325 a 1.2434222,1.2782028 0 0 0 -1.24385,1.27796 1.2434222,1.2782028 0 0 0 1.24385,1.27848 1.2434222,1.2782028 0 0 0 1.24282,-1.27848 1.2434222,1.2782028 0 0 0 -1.24282,-1.27796 z m -0.0217,2.6169 c -0.57687,0 -1.0115,0.12026 -1.33945,0.30644 -0.0146,0.19519 -0.0541,0.3829 -0.11472,0.56172 0.87662,0.15526 1.62937,0.67725 2.1084,1.39992 0.27496,-0.23874 0.60997,-0.44913 1.0051,-0.60927 -0.35578,-0.39712 -0.58558,-0.91168 -0.59583,-1.48156 -0.28631,-0.11027 -0.63517,-0.17725 -1.0635,-0.17725 z" /><path
       id="path17-2"
       style="fill:#870148;fill-opacity:1;stroke:none;stroke-width:0.596364;stroke-linecap:round;stroke-dasharray:none;stroke-dashoffset:0;stroke-opacity:1"
       d="m 146.99723,165.86068 a 1.8195612,1.8704574 0 0 0 -1.81953,1.87068 1.8195612,1.8704574 0 0 0 0.28784,1.00304 c 0.079,-0.006 0.15869,-0.0103 0.23926,-0.0103 0.75855,9e-5 1.4529,0.27579 1.99885,0.72967 a 1.8195612,1.8704574 0 0 0 1.11311,-1.72238 1.8195612,1.8704574 0 0 0 -1.81953,-1.87068 z m 1.07073,3.95118 c 0.50654,0.57734 0.81747,1.335 0.81753,2.15956 5e-5,0.62315 -0.18485,1.20227 -0.49351,1.69757 0.66154,-0.089 1.33496,-0.24892 1.98489,-0.51884 0,0 0.26131,-2.72999 -2.30891,-3.33829 z" /><path
       id="path17-7"
       style="fill:#870148;fill-opacity:1;stroke:none;stroke-width:0.557213;stroke-linecap:round;stroke-dasharray:none;stroke-dashoffset:0;stroke-opacity:1"
       d="m 133.84506,166.15472 a 1.7001105,1.7476654 0 0 0 -1.70015,1.74769 1.7001105,1.7476654 0 0 0 1.07848,1.62368 c 0.5688,-0.55318 1.33167,-0.90115 2.17558,-0.91519 a 1.7001105,1.7476654 0 0 0 0.14624,-0.70849 1.7001105,1.7476654 0 0 0 -1.70015,-1.74769 z m -0.88212,3.65249 c -2.5926,0.48101 -2.33474,3.15846 -2.33474,3.15846 0.65015,0.27 1.32553,0.42445 1.98541,0.50333 -0.25315,-0.46316 -0.40366,-0.98824 -0.40359,-1.55081 5e-5,-0.79715 0.28301,-1.53501 0.75292,-2.11098 z" /><path
       id="path17-8"
       style="fill:#870148;fill-opacity:1;stroke:none;stroke-width:0.57158;stroke-linecap:round;stroke-dasharray:none;stroke-dashoffset:0;stroke-opacity:1"
       d="m 140.73405,166.15472 a 1.7439428,1.7927238 0 0 0 -1.74408,1.79265 1.7439428,1.7927238 0 0 0 1.74408,1.79317 1.7439428,1.7927238 0 0 0 1.74356,-1.79317 1.7439428,1.7927238 0 0 0 -1.74356,-1.79265 z m -0.0305,3.67057 c -1.0639,0 -1.78312,0.29123 -2.27015,0.70022 0.11008,0.28095 0.18663,0.57851 0.22066,0.88832 0.58262,-0.41148 1.288,-0.65429 2.05,-0.65423 0.66349,9e-5 1.28311,0.18558 1.81695,0.50488 0.0559,-0.30538 0.1549,-0.59593 0.2868,-0.86765 -0.48052,-0.34016 -1.15535,-0.57153 -2.10426,-0.57154 z" /><path
       id="path17-59"
       style="fill:#870148;fill-opacity:1;stroke:none;stroke-width:0.812102;stroke-linecap:round;stroke-dasharray:none;stroke-dashoffset:0;stroke-opacity:1"
       d="m 135.31991,169.28682 a 2.4777985,2.5471066 0 0 0 -2.47789,2.54714 2.4777985,2.5471066 0 0 0 2.47789,2.54764 2.4777985,2.5471066 0 0 0 1.88464,-0.89452 c 0.11492,-0.4222 0.30093,-0.81487 0.5457,-1.16427 a 2.4777985,2.5471066 0 0 0 0.047,-0.48885 2.4777985,2.5471066 0 0 0 -2.47736,-2.54714 z m -0.0429,5.21519 c -5.10079,-1e-5 -4.64571,4.71186 -4.64571,4.71186 1.44166,0.59874 2.96738,0.80589 4.36976,0.8294 0.0558,-0.16463 0.11876,-0.3311 0.19327,-0.49867 0.45219,-1.01694 1.4079,-2.00858 2.85151,-2.59364 -0.53528,-0.59742 -0.89558,-1.35821 -0.96222,-2.20194 -0.50811,-0.15471 -1.10263,-0.24701 -1.80661,-0.24701 z" /><path
       id="path17-5"
       style="fill:#870148;fill-opacity:1;stroke:none;stroke-width:0.806497;stroke-linecap:round;stroke-dasharray:none;stroke-dashoffset:0;stroke-opacity:1"
       d="m 145.75906,169.32972 a 2.4606972,2.5295271 0 0 0 -2.46083,2.52904 2.4606972,2.5295271 0 0 0 0.003,0.0264 c 0.51117,0.53606 0.86628,1.2264 0.98857,1.99057 a 2.4606972,2.5295271 0 0 0 1.46968,0.51315 2.4606972,2.5295271 0 0 0 2.46032,-2.53008 2.4606972,2.5295271 0 0 0 -2.46032,-2.52904 z m -0.0429,5.17901 c -0.51976,0 -0.97852,0.0516 -1.38855,0.14004 -0.0451,0.89726 -0.41774,1.70884 -0.98857,2.33319 1.40139,0.58997 2.33666,1.56285 2.78123,2.56264 0.0688,0.15469 0.12714,0.30812 0.17983,0.46043 1.3055,-0.048 2.70354,-0.26696 4.02922,-0.81752 0,0 0.45244,-4.67877 -4.61316,-4.67878 z" /></g><path
     id="path4"
     style="display:inline;fill:#9d3e31;fill-opacity:1;stroke-width:0.264583;stroke:none;stroke-opacity:1"
     d="m 142.97323,52.808849 c -1.0916,2.277078 -1.34718,8.030532 -1.15393,9.033042 0.19289,1.00064 0.78779,0.7692 0.76119,1.07538 -0.0233,0.26766 -0.67398,0.43333 -0.84542,0.47284 -0.16334,-0.0487 -0.33105,-0.0902 -0.49868,-0.13177 -0.0197,-0.009 -0.031,-0.0161 -0.0532,-0.0258 -0.34053,-0.1489 -1.15491,-0.2576 -2.16834,-0.33796 -0.28636,-0.0262 -0.57085,-0.0444 -0.8537,-0.0584 -0.95098,-0.0565 -1.97813,-0.0915 -2.95434,-0.11575 -0.25665,-0.0124 -0.51359,-0.0187 -0.77101,-0.0186 -0.83723,-0.0162 -1.36887,-0.0216 -1.88619,-0.0248 -0.85831,-0.0379 -1.72957,-0.005 -2.61638,0.0574 -0.17117,0.009 -0.30713,0.018 -0.35967,0.0243 -0.006,4.9e-4 -0.0127,5.4e-4 -0.0191,0.001 l 5.2e-4,0.002 c -0.001,2.5e-4 -0.005,2.8e-4 -0.006,5.2e-4 0,0 0.0544,0.47811 0.18862,1.05006 0.009,0.0401 0.0206,0.0732 0.0331,0.10129 0.32902,1.45452 0.91099,2.85587 1.72547,4.15478 l 0.0646,0.14573 0.0279,0.002 c 0.47997,0.77198 1.03919,1.50383 1.67069,2.18643 3.60476,-2.21551 12.16137,-7.30876 25.70955,-7.22724 0.18,0.005 0.32325,0.0133 0.4687,0.0318 -10.40521,-0.0445 -16.40214,2.11582 -25.75347,7.62124 0.74209,0.71202 1.56354,1.35689 2.45205,1.92495 3.33468,-2.43229 10.71231,-9.07799 23.34328,-9.50691 -10.08857,0.762 -14.4911,3.40811 -22.7614,9.88983 1.01024,0.58776 2.09132,1.07562 3.22357,1.45469 4.77732,-4.2267 10.59711,-9.11652 20.35222,-11.23695 0.24613,-0.0345 0.28094,-0.0129 0.10493,0.0319 -7.86756,2.0473 -11.67793,4.58455 -19.95433,11.36985 1.30116,0.39948 2.65432,0.65366 4.02766,0.75654 4.43076,-4.07173 9.7408,-8.31378 16.22743,-12.03389 0.31083,-0.14484 0.38169,-0.12668 0.13022,0.0501 -4.60171,2.75822 -11.07102,7.6006 -15.45177,12.04009 0.16277,0.0123 0.32574,0.0225 0.48886,0.0305 1.4652,-0.006 2.92298,-0.18321 4.33462,-0.52813 4.39044,-3.94066 9.02074,-8.15795 10.99106,-11.33678 0.20821,-0.27562 0.22671,-0.22733 0.0646,0.0594 -1.74557,2.8221 -6.06388,7.28509 -9.83971,10.91975 4.70402,-1.49123 8.37998,-4.78207 9.39447,-7.43231 1.0145,-2.65023 0.96528,-4.2527 0.96528,-4.2527 -4.59416,-0.32793 -8.25509,-0.18831 -14.18686,0.32294 -0.76621,-0.0517 -1.35203,-0.20311 -0.82579,-0.59635 0.84259,-0.62964 0.47224,-5.073009 -0.55293,-7.562845 -0.89209,2.216888 -1.11409,6.853005 -0.61909,7.336505 0.61201,0.59783 0.30179,0.65009 0.30179,0.65009 0,0 -2.74563,0.11196 -2.81223,-0.29559 -0.0566,-0.34619 0.45985,-0.11103 0.69918,-1.17874 0.23947,-1.06833 0.005,-6.497469 -0.80822,-8.895582 z m -8.2336,10.161652 c 0.56543,0.0898 1.40343,0.25349 2.12545,0.51677 1.02081,0.42726 1.8493,0.97701 2.47478,1.47277 -0.14797,0.0445 -0.29586,0.0916 -0.4439,0.13798 -1.37506,-1.16553 -2.75423,-1.79881 -4.15633,-2.12752 z m 2.47478,0.0129 c 1.66864,0.27008 3.07516,0.89968 4.03025,1.45314 -0.20794,0.0516 -0.4158,0.10662 -0.62374,0.16175 -1.10512,-0.85276 -2.24601,-1.34603 -3.40651,-1.61489 z m -5.92522,0.13901 c 1.945,0.64244 3.03273,2.17977 3.87677,3.35328 -0.15647,0.0668 -0.31303,0.13234 -0.46974,0.20154 -1.14655,-1.766 -1.90649,-3.01994 -3.40703,-3.55482 z m 2.14406,0.11834 c 1.67384,0.58636 2.9424,1.56824 3.83749,2.40554 -0.10109,0.0366 -0.20219,0.0736 -0.30334,0.1111 -1.46958,-1.29031 -2.55581,-2.07481 -3.53415,-2.51664 z"
     sodipodi:nodetypes="csccccccccccccccscccccccccccccccccccccccccccscscssccccccccccccccccccc" /><g
     inkscape:groupmode="layer"
     id="layer3"
     inkscape:label="Layer 3"
     transform="translate(-18.264472,-41.601409)"><path
       style="display:inline;fill:#00ff00;fill-opacity:1;stroke:#9d3e31;stroke-width:0.683;stroke-linecap:round;stroke-dasharray:none;stroke-dashoffset:0;stroke-opacity:1"
       d="m 150.23698,97.351801 h 5.57363"
       id="path21" /><path
       style="display:inline;fill:#00ff00;fill-opacity:1;stroke:#9d3e31;stroke-width:0.683;stroke-linecap:round;stroke-dasharray:none;stroke-dashoffset:0;stroke-opacity:1"
       d="m 152.7415,99.031082 h 5.57363"
       id="path21-2" /></g><text
     xml:space="preserve"
     style="font-size:5.40115px;fill:#017fa4;fill-opacity:1;stroke-width:0.450095"
     x="75.226288"
     y="40.01062"
     id="text9"
     transform="scale(1.0211817,0.97925765)"><tspan
       sodipodi:role="line"
       id="tspan9"
       style="fill:#017fa4;fill-opacity:1;stroke-width:0.450095"
       x="75.226288"
       y="40.01062">Water</tspan></text><text
     xml:space="preserve"
     style="font-size:5.55934px;fill:#1b3279;fill-opacity:1;stroke-width:0.463277"
     x="13.567883"
     y="85.264244"
     id="text9-5"
     transform="scale(1.0200842,0.98031122)"><tspan
       sodipodi:role="line"
       id="tspan9-3"
       style="fill:#1b3279;fill-opacity:1;stroke-width:0.463277"
       x="13.567883"
       y="85.264244">Energy</tspan></text><text
     xml:space="preserve"
     style="font-size:5.45467px;fill:#709200;fill-opacity:1;stroke-width:0.454555"
     x="36.467312"
     y="152.16023"
     id="text9-5-9"
     transform="scale(1.0008787,0.99912206)"><tspan
       sodipodi:role="line"
       id="tspan9-3-1"
       style="fill:#709200;fill-opacity:1;stroke-width:0.454555"
       x="36.467312"
       y="152.16023">Climate</tspan></text><text
     xml:space="preserve"
     style="font-size:5.55934px;fill:#9d3e31;fill-opacity:1;stroke-width:0.463277"
     x="137.60083"
     y="85.13472"
     id="text9-5-93"
     transform="scale(1.0200842,0.98031123)"><tspan
       sodipodi:role="line"
       id="tspan9-3-6"
       style="fill:#9d3e31;fill-opacity:1;stroke-width:0.463277"
       x="137.60083"
       y="85.13472">Land</tspan></text><text
     xml:space="preserve"
     style="font-size:5.55934px;fill:#870148;fill-opacity:1;stroke-width:0.463277;stroke:none;stroke-opacity:1"
     x="111.88578"
     y="150.45372"
     id="text9-5-6"
     transform="scale(1.0200842,0.98031123)"><tspan
       sodipodi:role="line"
       id="tspan9-3-18"
       style="fill:#870148;fill-opacity:1;stroke-width:0.463277;stroke:none;stroke-opacity:1"
       x="111.88578"
       y="150.45372">Socio-</tspan></text><text
     xml:space="preserve"
     style="font-size:5.55934px;fill:#870148;fill-opacity:1;stroke-width:0.463277;stroke:none;stroke-opacity:1"
     x="105.24574"
     y="156.77782"
     id="text9-5-6-0"
     transform="scale(1.0200842,0.98031123)"><tspan
       sodipodi:role="line"
       id="tspan9-3-18-2"
       style="fill:#870148;fill-opacity:1;stroke-width:0.463277;stroke:none;stroke-opacity:1"
       x="105.24574"
       y="156.77782">Economics</tspan></text></svg>
