<?xml version="1.0" encoding="UTF-8" standalone="no"?>
<!-- Created with Inkscape (http://www.inkscape.org/) -->

<svg
   width="169.6418mm"
   height="163.8532mm"
   viewBox="0 0 169.6418 163.8532"
   version="1.1"
   id="svg1"
   xml:space="preserve"
   inkscape:version="1.3 (0e150ed6c4, 2023-07-21)"
   sodipodi:docname="gcam_color.svg"
   xmlns:inkscape="http://www.inkscape.org/namespaces/inkscape"
   xmlns:sodipodi="http://sodipodi.sourceforge.net/DTD/sodipodi-0.dtd"
   xmlns:xlink="http://www.w3.org/1999/xlink"
   xmlns="http://www.w3.org/2000/svg"
   xmlns:svg="http://www.w3.org/2000/svg"><sodipodi:namedview
     id="namedview1"
     pagecolor="#ffffff"
     bordercolor="#000000"
     borderopacity="0.25"
     inkscape:showpageshadow="2"
     inkscape:pageopacity="0.0"
     inkscape:pagecheckerboard="0"
     inkscape:deskcolor="#d1d1d1"
     inkscape:document-units="mm"
     showguides="true"
     inkscape:zoom="1"
     inkscape:cx="76.5"
     inkscape:cy="327.5"
     inkscape:window-width="1920"
     inkscape:window-height="1012"
     inkscape:window-x="0"
     inkscape:window-y="34"
     inkscape:window-maximized="1"
     inkscape:current-layer="svg1" /><defs
     id="defs1"><linearGradient
       id="linearGradient111"
       inkscape:collect="always"><stop
         style="stop-color:#709200;stop-opacity:1;"
         offset="0"
         id="stop111" /><stop
         style="stop-color:#9d3e31;stop-opacity:1;"
         offset="1"
         id="stop112" /></linearGradient><linearGradient
       id="linearGradient103"
       inkscape:collect="always"><stop
         style="stop-color:#1b3279;stop-opacity:1;"
         offset="0"
         id="stop103" /><stop
         style="stop-color:#870148;stop-opacity:1;"
         offset="1"
         id="stop104" /></linearGradient><linearGradient
       id="linearGradient94"
       inkscape:collect="always"><stop
         style="stop-color:#017fa4;stop-opacity:1;"
         offset="0"
         id="stop94" /><stop
         style="stop-color:#870148;stop-opacity:1;"
         offset="1"
         id="stop95" /></linearGradient><linearGradient
       id="linearGradient85"
       inkscape:collect="always"><stop
         style="stop-color:#709200;stop-opacity:1;"
         offset="0"
         id="stop85" /><stop
         style="stop-color:#017fa4;stop-opacity:1;"
         offset="1"
         id="stop86" /></linearGradient><linearGradient
       id="linearGradient77"
       inkscape:collect="always"><stop
         style="stop-color:#1b3279;stop-opacity:1;"
         offset="0"
         id="stop77" /><stop
         style="stop-color:#9d3e31;stop-opacity:1;"
         offset="1"
         id="stop78" /></linearGradient><linearGradient
       id="linearGradient69"
       inkscape:collect="always"><stop
         style="stop-color:#709200;stop-opacity:1;"
         offset="0"
         id="stop69" /><stop
         style="stop-color:#1b3279;stop-opacity:1;"
         offset="1"
         id="stop70" /></linearGradient><linearGradient
       id="linearGradient60"
       inkscape:collect="always"><stop
         style="stop-color:#709200;stop-opacity:1;"
         offset="0"
         id="stop60" /><stop
         style="stop-color:#870148;stop-opacity:1;"
         offset="1"
         id="stop61" /></linearGradient><linearGradient
       id="linearGradient51"
       inkscape:collect="always"><stop
         style="stop-color:#870148;stop-opacity:1;"
         offset="0"
         id="stop51" /><stop
         style="stop-color:#9d3e31;stop-opacity:1;"
         offset="1"
         id="stop52" /></linearGradient><linearGradient
       id="linearGradient38"
       inkscape:collect="always"><stop
         style="stop-color:#017fa4;stop-opacity:1;"
         offset="0.0001"
         id="stop38" /><stop
         style="stop-color:#9d3e31;stop-opacity:1;"
         offset="0.7643351"
         id="stop39" /></linearGradient><linearGradient
       id="linearGradient29"
       inkscape:collect="always"><stop
         style="stop-color:#017fa4;stop-opacity:1;"
         offset="0"
         id="stop29" /><stop
         style="stop-color:#1b3279;stop-opacity:1;"
         offset="1"
         id="stop30" /></linearGradient><linearGradient
       id="linearGradient9"
       inkscape:collect="always"><stop
         style="stop-color:#000000;stop-opacity:1;"
         offset="0"
         id="stop9" /><stop
         style="stop-color:#000000;stop-opacity:0;"
         offset="1"
         id="stop10" /></linearGradient><linearGradient
       inkscape:collect="always"
       xlink:href="#linearGradient9"
       id="linearGradient10"
       x1="75.405623"
       y1="38.080131"
       x2="91.192383"
       y2="38.080131"
       gradientUnits="userSpaceOnUse" /><linearGradient
       inkscape:collect="always"
       xlink:href="#linearGradient29"
       id="linearGradient30"
       x1="73.962601"
       y1="67.437363"
       x2="53.109108"
       y2="82.825348"
       gradientUnits="userSpaceOnUse" /><linearGradient
       inkscape:collect="always"
       xlink:href="#linearGradient38"
       id="linearGradient39"
       x1="131.33855"
       y1="67.608711"
       x2="151.92044"
       y2="82.25489"
       gradientUnits="userSpaceOnUse" /><linearGradient
       inkscape:collect="always"
       xlink:href="#linearGradient51"
       id="linearGradient52"
       x1="160.63882"
       y1="163.88121"
       x2="170.79562"
       y2="134.92091"
       gradientUnits="userSpaceOnUse" /><linearGradient
       inkscape:collect="always"
       xlink:href="#linearGradient60"
       id="linearGradient61"
       x1="91.160281"
       y1="196.68651"
       x2="114.46273"
       y2="196.68651"
       gradientUnits="userSpaceOnUse" /><linearGradient
       inkscape:collect="always"
       xlink:href="#linearGradient69"
       id="linearGradient70"
       x1="42.681267"
       y1="161.26555"
       x2="34.910221"
       y2="137.69852"
       gradientUnits="userSpaceOnUse" /><linearGradient
       inkscape:collect="always"
       xlink:href="#linearGradient77"
       id="linearGradient78"
       x1="67.859378"
       y1="98.991674"
       x2="137.61739"
       y2="98.991674"
       gradientUnits="userSpaceOnUse" /><linearGradient
       inkscape:collect="always"
       xlink:href="#linearGradient85"
       id="linearGradient86"
       x1="71.277451"
       y1="156.42455"
       x2="88.959129"
       y2="89.315002"
       gradientUnits="userSpaceOnUse" /><linearGradient
       inkscape:collect="always"
       xlink:href="#linearGradient94"
       id="linearGradient95"
       x1="116.69406"
       y1="88.712448"
       x2="134.56322"
       y2="156.49986"
       gradientUnits="userSpaceOnUse" /><linearGradient
       inkscape:collect="always"
       xlink:href="#linearGradient103"
       id="linearGradient104"
       x1="62.483719"
       y1="127.27068"
       x2="116.74066"
       y2="170.67662"
       gradientUnits="userSpaceOnUse" /><linearGradient
       inkscape:collect="always"
       xlink:href="#linearGradient111"
       id="linearGradient112"
       x1="89.776062"
       y1="171.00612"
       x2="143.78847"
       y2="127.50919"
       gradientUnits="userSpaceOnUse" /></defs><g
     inkscape:label="Layer 1"
     inkscape:groupmode="layer"
     id="layer1"
     transform="translate(-18.264472,-41.601409)"><circle
       style="fill:none;stroke:#017fa4;stroke-width:3.468;stroke-dasharray:none;stroke-dashoffset:0;stroke-opacity:1"
       id="path1"
       cx="103.12681"
       cy="65.202812"
       r="21.867403" /><circle
       style="fill:none;stroke:#1b3279;stroke-width:3.468;stroke-dasharray:none;stroke-dashoffset:0;stroke-opacity:1"
       id="path1-6"
       cx="41.865875"
       cy="109.46349"
       r="21.867403" /><circle
       style="fill:none;stroke:#9d3e31;stroke-width:3.468;stroke-dasharray:none;stroke-dashoffset:0;stroke-opacity:1"
       id="path1-6-2"
       cx="164.30487"
       cy="109.46349"
       r="21.867403" /><circle
       style="fill:none;stroke:#709200;stroke-width:3.468;stroke-dasharray:none;stroke-dashoffset:0;stroke-opacity:1"
       id="path1-6-2-3"
       cx="65.467278"
       cy="181.8532"
       r="21.867403" /><circle
       style="fill:none;stroke:#870148;stroke-width:3.468;stroke-dasharray:none;stroke-dashoffset:0;stroke-opacity:1"
       id="path1-6-2-3-2"
       cx="140.70346"
       cy="181.8532"
       r="21.867403" /><path
       id="path77"
       style="color:#000000;fill:url(#linearGradient78);-inkscape-stroke:none"
       d="M 104.60597 93.733111 C 103.21021 93.723826 101.83766 93.754863 100.49201 93.820444 C 85.442442 94.553891 73.860806 99.575911 70.48144 101.19054 L 70.109369 100.49239 L 67.859378 104.1056 L 68.257803 104.11904 L 72.113382 104.25185 L 71.783686 103.63328 C 77.015 101.12532 105.41376 88.86362 133.71272 103.60434 L 133.36339 104.2441 L 137.61739 104.14074 L 137.41017 103.79865 L 135.40409 100.50582 L 135.03512 101.18175 C 124.55862 95.714025 114.04936 93.79593 104.60597 93.733111 z " /><path
       id="path111"
       style="color:#000000;display:inline;fill:url(#linearGradient112);-inkscape-stroke:none"
       d="m 143.7147,127.1719 -0.29456,0.26768 -2.85977,2.58951 0.69401,0.22272 c -10.86575,31.66892 -41.820129,37.8497 -48.14073,38.7935 l -0.06873,-0.69763 -3.457153,2.48253 0.363285,0.16382 3.511931,1.59215 -0.07803,-0.78962 c 6.482193,-0.97451 39.133447,-7.47172 50.504407,-40.69984 l 0.72761,0.23358 z" /><path
       id="path102"
       style="color:#000000;display:inline;fill:url(#linearGradient104);stroke:none;-inkscape-stroke:none"
       d="m 62.558409,127.1719 -0.08372,0.39067 -0.816487,3.76773 0.726054,-0.23306 c 11.371128,33.22767 44.022254,39.72481 50.504414,40.69932 l -0.078,0.78962 3.87676,-1.75597 -0.32401,-0.23461 -3.13314,-2.24792 -0.0692,0.69763 c -6.31685,-0.94297 -37.275596,-7.12178 -48.14229,-38.7935 l 0.694015,-0.22272 z" /><path
       id="path85"
       style="color:#000000;fill:url(#linearGradient86);-inkscape-stroke:none"
       d="M 88.808486 88.855372 L 88.406444 88.945289 L 84.519343 89.808802 L 85.054194 90.390679 C 60.772882 113.68264 67.601043 147.33392 69.030366 153.22715 L 68.245917 153.44936 L 71.39818 156.50757 L 71.499982 156.10915 L 72.476667 152.24995 L 71.781619 152.44684 C 70.383616 146.59374 64.04567 114.55473 86.986375 92.49391 L 87.494355 93.046848 L 88.808486 88.855372 z " /><path
       id="path68"
       style="color:#000000;fill:url(#linearGradient70);-inkscape-stroke:none"
       d="M 35.455154 137.68185 L 35.298574 138.0627 L 33.787039 141.74413 L 34.566319 141.63871 C 35.810887 149.36423 38.680751 156.03515 39.86367 158.5643 L 39.148469 158.93171 L 42.84385 161.30883 L 42.863487 160.89645 L 43.058824 156.92202 L 42.409251 157.25585 C 41.270629 154.79561 38.573611 148.45987 37.399738 141.25631 L 38.142328 141.15606 L 35.455154 137.68185 z " /><path
       id="path49"
       style="color:#000000;fill:url(#linearGradient52);-inkscape-stroke:none"
       d="M 169.82215 137.60744 L 169.57048 137.93145 L 167.13497 141.08216 L 167.87705 141.18241 C 166.70353 148.38354 164.00822 154.71753 162.86908 157.17937 L 162.22054 156.84554 L 162.43345 161.23235 L 162.78123 161.00962 L 166.12883 158.8573 L 165.41363 158.48936 C 166.59615 155.96123 169.46606 149.28997 170.71098 141.5643 L 171.49233 141.66972 L 169.82215 137.60744 z " /><path
       id="path59"
       style="color:#000000;fill:url(#linearGradient61);-inkscape-stroke:none"
       d="M 110.41595 194.49595 L 110.51 195.24268 C 104.16663 195.88788 97.716881 195.47039 95.102159 195.24733 L 95.185358 194.50991 L 91.160281 196.26587 L 91.492044 196.50978 L 94.691332 198.87708 L 94.780215 198.09057 C 97.446664 198.32505 104.13942 198.77256 110.86657 198.07816 L 110.96476 198.85744 L 114.46273 196.20334 L 114.08395 196.04314 L 110.41595 194.49595 z " /><path
       id="path28"
       style="color:#000000;fill:url(#linearGradient30);fill-opacity:1;-inkscape-stroke:none"
       d="M 68.531171 68.164129 L 68.909959 68.864344 C 66.692901 70.148018 61.397813 73.386426 56.627505 77.64417 L 56.09007 77.070562 L 54.816246 81.273406 L 55.218805 81.179872 L 59.095571 80.277601 L 58.581391 79.728798 C 63.053249 75.751558 68.109919 72.641052 70.271117 71.38047 L 70.623033 72.031076 L 72.923668 68.289186 L 72.511807 68.2773 L 68.531171 68.164129 z " /><path
       id="path37"
       style="color:#000000;fill:url(#linearGradient39);-inkscape-stroke:none"
       d="M 136.84741 68.164129 L 132.45699 68.289186 L 132.67403 68.640585 L 134.75762 72.031076 L 135.10954 71.379953 C 137.27019 72.64026 142.32694 75.751118 146.79926 79.728798 L 146.28508 80.277601 L 150.56234 81.273406 L 150.44348 80.879115 L 149.2911 77.070562 L 148.75315 77.64417 C 143.98253 73.386334 138.68647 70.147855 136.46914 68.864344 L 136.84741 68.164129 z " /><path
       id="path94"
       style="color:#000000;fill:url(#linearGradient95);-inkscape-stroke:none"
       d="M 116.6564 88.855372 L 116.77939 89.248113 L 117.97053 93.046848 L 118.47748 92.494427 C 141.41828 114.55619 135.08007 146.59637 133.68275 152.44736 L 132.98615 152.24995 L 134.06464 156.50757 L 134.35919 156.22284 L 137.2169 153.44936 L 136.43297 153.22715 C 137.86262 147.33372 144.69232 113.68156 120.41018 90.389645 L 120.94348 89.808802 L 116.6564 88.855372 z " /></g><g
     inkscape:groupmode="layer"
     id="layer2"
     inkscape:label="Layer 2"
     transform="translate(-18.264472,-41.601409)"><path
       style="display:inline;fill:#1b3279;fill-opacity:1;stroke:none;stroke-width:2.468;stroke-linecap:round;stroke-dasharray:none;stroke-dashoffset:0;stroke-opacity:1"
       d="m 40.425727,94.275192 h 5.859941 l -3.963681,8.908448 h 5.43241 l -8.153321,12.50373 2.264799,-9.12306 h -6.059011 z"
       id="path7" /><path
       id="path11"
       style="color:#000000;opacity:1;fill:#1b3279;stroke-linecap:round;-inkscape-stroke:none;fill-opacity:1"
       d="m 38.153743,95.333199 c -3.922503,1.466845 -6.727754,5.237711 -6.727754,9.647471 0,4.3574 2.739789,8.09042 6.589262,9.59425 l 0.556555,-2.24173 c -2.861296,-1.22872 -4.852934,-4.05237 -4.852934,-7.35252 0,-2.62623 1.260896,-4.95101 3.217892,-6.409942 z m 8.889897,0.781348 -0.93586,2.103747 c 2.247942,1.418563 3.734139,3.911986 3.734139,6.762376 0,3.93354 -2.828195,7.18961 -6.587195,7.87446 l -1.582332,2.42724 c 0.03645,3.8e-4 0.0725,0.003 0.109037,0.003 5.70187,0 10.353373,-4.62406 10.353373,-10.30428 0,-3.76828 -2.048239,-7.069656 -5.091162,-8.866123 z"
       sodipodi:nodetypes="csccsccccsccssc" /><path
       id="path3"
       style="display:inline;opacity:1;fill:#017fa4;fill-opacity:1;stroke:none;stroke-width:2.73951;stroke-dasharray:none;stroke-dashoffset:0;stroke-opacity:1"
       d="m 102.81388,50.640837 c -1.26417,1.439386 -3.240515,3.946108 -4.513937,5.935555 -2.051099,3.204398 -3.001117,5.285606 -3.01842,8.323006 -0.03042,5.340562 5.798047,6.735506 7.532357,6.735506 1.7343,0 7.56276,-1.394944 7.53236,-6.735506 -0.0173,-3.0374 -0.96734,-5.118608 -3.01842,-8.323006 -1.27342,-1.989447 -3.24977,-4.496169 -4.51394,-5.935555 z m -4.056601,11.955342 a 1.234,1.234 0 0 1 1.241785,1.226282 c 0.01188,1.784389 0.619996,2.198741 1.261936,2.498039 0.64193,0.299298 1.32602,0.261999 1.32602,0.261999 a 1.234,1.234 0 0 1 1.33429,1.124996 1.234,1.234 0 0 1 -1.12293,1.333769 c 0,0 -1.2654,0.128816 -2.58021,-0.484208 -1.314808,-0.613026 -2.670849,-2.190591 -2.687689,-4.719092 a 1.234,1.234 0 0 1 1.226798,-1.241785 z" /><path
       style="opacity:1;fill:#709200;fill-opacity:1;stroke:none;stroke-width:3.16799;stroke-linecap:round;stroke-dasharray:none;stroke-dashoffset:0;stroke-opacity:1"
       d="m 66.721347,181.8532 h -9.697366 c 0,0 -3.669768,0.23583 -3.690651,-3.55397 -0.01935,-3.51137 3.973101,-3.92602 3.973101,-3.92602 0,0 0.970771,-2.76084 4.689778,-2.74916 4.72507,0.0148 5.213303,4.31203 5.213303,4.31203 0,0 2.477522,0.109 2.524607,3.00336 0.04618,2.83862 -3.012772,2.91376 -3.012772,2.91376 z"
       id="path13"
       sodipodi:nodetypes="ccscscsc" /><path
       id="path14"
       style="fill:#709200;fill-opacity:1;stroke:none;stroke-width:3.16799;stroke-linecap:round;stroke-dasharray:none;stroke-dashoffset:0;stroke-opacity:1"
       d="m 67.584505,169.80566 a 4.2673635,4.2673635 0 0 0 -2.936771,1.18442 c 3.242583,0.83978 3.6158,4.11758 3.6158,4.11758 0,0 1.824097,0.0819 2.370914,1.93528 a 4.2673635,4.2673635 0 0 0 1.217497,-2.96984 4.2673635,4.2673635 0 0 0 -4.26744,-4.26744 z" /><path
       style="fill:#aa0000;fill-opacity:1;stroke:#709200;stroke-width:0.7;stroke-linecap:round;stroke-dasharray:none;stroke-dashoffset:0;stroke-opacity:1"
       d="m 67.550106,164.94543 c 0,2.42328 0,2.42328 0,2.42328"
       id="path15" /><path
       style="fill:#709200;fill-opacity:1;stroke:#709200;stroke-width:0.7;stroke-linecap:round;stroke-dasharray:none;stroke-dashoffset:0;stroke-opacity:1"
       d="m 76.693165,174.61057 c -2.42328,0 -2.42328,0 -2.42328,0"
       id="path15-7" /><path
       style="fill:#709200;fill-opacity:1;stroke:#709200;stroke-width:0.7;stroke-linecap:round;stroke-dasharray:none;stroke-dashoffset:0;stroke-opacity:1"
       d="m 62.785161,169.92345 c -1.713518,-1.71352 -1.713518,-1.71352 -1.713518,-1.71352"
       id="path15-7-3" /><path
       style="fill:#709200;fill-opacity:1;stroke:#709200;stroke-width:0.7;stroke-linecap:round;stroke-dasharray:none;stroke-dashoffset:0;stroke-opacity:1"
       d="m 72.398007,169.1985 c 1.713518,-1.71352 1.713518,-1.71352 1.713518,-1.71352"
       id="path15-7-3-3" /><path
       style="fill:#709200;fill-opacity:1;stroke:#709200;stroke-width:0.7;stroke-linecap:round;stroke-dasharray:none;stroke-dashoffset:0;stroke-opacity:1"
       d="m 71.870772,178.79456 c 1.713518,1.71352 1.713518,1.71352 1.713518,1.71352"
       id="path15-7-3-3-1" /><path
       style="fill:#709200;fill-opacity:1;stroke:none;stroke-width:0.7;stroke-linecap:round;stroke-dasharray:none;stroke-dashoffset:0;stroke-opacity:1"
       d="m 57.791664,183.55758 c 0,0 -0.414256,0.66375 -1.016812,1.24277 -0.341123,0.3278 -0.2542,0.87558 0.0047,1.10154 0.256253,0.22363 1.024748,0.39264 1.33221,-0.49898 0.276935,-0.80309 -0.320106,-1.84533 -0.320106,-1.84533 z"
       id="path16"
       sodipodi:nodetypes="cssscc" /><path
       style="fill:#709200;fill-opacity:1;stroke:none;stroke-width:0.7;stroke-linecap:round;stroke-dasharray:none;stroke-dashoffset:0;stroke-opacity:1"
       d="m 61.855458,183.55758 c 0,0 -0.414256,0.66375 -1.016812,1.24277 -0.341123,0.3278 -0.2542,0.87558 0.0047,1.10154 0.256253,0.22363 1.024748,0.39264 1.33221,-0.49898 0.276935,-0.80309 -0.320106,-1.84533 -0.320106,-1.84533 z"
       id="path16-3"
       sodipodi:nodetypes="cssscc" /><path
       style="fill:#709200;fill-opacity:1;stroke:none;stroke-width:0.7;stroke-linecap:round;stroke-dasharray:none;stroke-dashoffset:0;stroke-opacity:1"
       d="m 65.919252,183.55758 c 0,0 -0.414256,0.66375 -1.016812,1.24277 -0.341123,0.3278 -0.2542,0.87558 0.0047,1.10154 0.256253,0.22363 1.024748,0.39264 1.33221,-0.49898 0.276935,-0.80309 -0.320106,-1.84533 -0.320106,-1.84533 z"
       id="path16-3-1"
       sodipodi:nodetypes="cssscc" /><path
       id="path17"
       style="fill:#870148;fill-opacity:1;stroke:none;stroke-width:0.882524;stroke-linecap:round;stroke-dasharray:none;stroke-dashoffset:0;stroke-opacity:1"
       d="m 140.70356,171.70063 a 2.6926632,2.7679815 0 0 0 -2.69286,2.76779 2.6926632,2.7679815 0 0 0 2.69286,2.76831 2.6926632,2.7679815 0 0 0 2.69234,-2.76831 2.6926632,2.7679815 0 0 0 -2.69234,-2.76779 z m -0.047,5.66736 c -5.54313,-1e-5 -5.04827,5.1201 -5.04827,5.1201 1.66939,0.6933 3.44438,0.9064 5.04827,0.9064 1.60389,0 3.37888,-0.2131 5.04827,-0.9064 0,0 0.49486,-5.12009 -5.04827,-5.1201 z" /><path
       id="path17-0"
       style="fill:#870148;fill-opacity:1;stroke:none;stroke-width:0.386048;stroke-linecap:round;stroke-dasharray:none;stroke-dashoffset:0;stroke-opacity:1"
       d="m 144.00723,165.12325 a 1.16419,1.225042 0 0 0 -1.16427,1.22474 1.16419,1.225042 0 0 0 1.16427,1.22524 1.16419,1.225042 0 0 0 0.71003,-0.25528 c 0.06,-0.39334 0.21821,-0.75519 0.44546,-1.06195 a 1.16419,1.225042 0 0 0 -1.15549,-1.13275 z m -0.0202,2.50838 c -0.41454,0 -0.75076,0.0677 -1.02371,0.17983 6.7e-4,0.0227 0.002,0.0454 0.002,0.0682 5e-5,0.59363 -0.23831,1.13145 -0.61133,1.53944 0.33299,0.14019 0.62252,0.31618 0.86868,0.51418 0.44611,-0.54539 1.06717,-0.94378 1.77871,-1.10278 -0.1898,-0.33292 -0.30463,-0.7124 -0.31006,-1.11983 -0.20571,-0.0497 -0.43806,-0.0791 -0.70435,-0.0791 z" /><path
       id="path17-9"
       style="fill:#870148;fill-opacity:1;stroke:none;stroke-width:0.407533;stroke-linecap:round;stroke-dasharray:none;stroke-dashoffset:0;stroke-opacity:1"
       d="m 137.46603,165.12325 a 1.2434222,1.2782028 0 0 0 -1.24385,1.27796 1.2434222,1.2782028 0 0 0 1.24385,1.27848 1.2434222,1.2782028 0 0 0 1.24282,-1.27848 1.2434222,1.2782028 0 0 0 -1.24282,-1.27796 z m -0.0217,2.6169 c -0.57687,0 -1.0115,0.12026 -1.33945,0.30644 -0.0146,0.19519 -0.0541,0.3829 -0.11472,0.56172 0.87662,0.15526 1.62937,0.67725 2.1084,1.39992 0.27496,-0.23874 0.60997,-0.44913 1.0051,-0.60927 -0.35578,-0.39712 -0.58558,-0.91168 -0.59583,-1.48156 -0.28631,-0.11027 -0.63517,-0.17725 -1.0635,-0.17725 z" /><path
       id="path17-2"
       style="fill:#870148;fill-opacity:1;stroke:none;stroke-width:0.596364;stroke-linecap:round;stroke-dasharray:none;stroke-dashoffset:0;stroke-opacity:1"
       d="m 146.99723,165.86068 a 1.8195612,1.8704574 0 0 0 -1.81953,1.87068 1.8195612,1.8704574 0 0 0 0.28784,1.00304 c 0.079,-0.006 0.15869,-0.0103 0.23926,-0.0103 0.75855,9e-5 1.4529,0.27579 1.99885,0.72967 a 1.8195612,1.8704574 0 0 0 1.11311,-1.72238 1.8195612,1.8704574 0 0 0 -1.81953,-1.87068 z m 1.07073,3.95118 c 0.50654,0.57734 0.81747,1.335 0.81753,2.15956 5e-5,0.62315 -0.18485,1.20227 -0.49351,1.69757 0.66154,-0.089 1.33496,-0.24892 1.98489,-0.51884 0,0 0.26131,-2.72999 -2.30891,-3.33829 z" /><path
       id="path17-7"
       style="fill:#870148;fill-opacity:1;stroke:none;stroke-width:0.557213;stroke-linecap:round;stroke-dasharray:none;stroke-dashoffset:0;stroke-opacity:1"
       d="m 133.84506,166.15472 a 1.7001105,1.7476654 0 0 0 -1.70015,1.74769 1.7001105,1.7476654 0 0 0 1.07848,1.62368 c 0.5688,-0.55318 1.33167,-0.90115 2.17558,-0.91519 a 1.7001105,1.7476654 0 0 0 0.14624,-0.70849 1.7001105,1.7476654 0 0 0 -1.70015,-1.74769 z m -0.88212,3.65249 c -2.5926,0.48101 -2.33474,3.15846 -2.33474,3.15846 0.65015,0.27 1.32553,0.42445 1.98541,0.50333 -0.25315,-0.46316 -0.40366,-0.98824 -0.40359,-1.55081 5e-5,-0.79715 0.28301,-1.53501 0.75292,-2.11098 z" /><path
       id="path17-8"
       style="fill:#870148;fill-opacity:1;stroke:none;stroke-width:0.57158;stroke-linecap:round;stroke-dasharray:none;stroke-dashoffset:0;stroke-opacity:1"
       d="m 140.73405,166.15472 a 1.7439428,1.7927238 0 0 0 -1.74408,1.79265 1.7439428,1.7927238 0 0 0 1.74408,1.79317 1.7439428,1.7927238 0 0 0 1.74356,-1.79317 1.7439428,1.7927238 0 0 0 -1.74356,-1.79265 z m -0.0305,3.67057 c -1.0639,0 -1.78312,0.29123 -2.27015,0.70022 0.11008,0.28095 0.18663,0.57851 0.22066,0.88832 0.58262,-0.41148 1.288,-0.65429 2.05,-0.65423 0.66349,9e-5 1.28311,0.18558 1.81695,0.50488 0.0559,-0.30538 0.1549,-0.59593 0.2868,-0.86765 -0.48052,-0.34016 -1.15535,-0.57153 -2.10426,-0.57154 z" /><path
       id="path17-59"
       style="fill:#870148;fill-opacity:1;stroke:none;stroke-width:0.812102;stroke-linecap:round;stroke-dasharray:none;stroke-dashoffset:0;stroke-opacity:1"
       d="m 135.31991,169.28682 a 2.4777985,2.5471066 0 0 0 -2.47789,2.54714 2.4777985,2.5471066 0 0 0 2.47789,2.54764 2.4777985,2.5471066 0 0 0 1.88464,-0.89452 c 0.11492,-0.4222 0.30093,-0.81487 0.5457,-1.16427 a 2.4777985,2.5471066 0 0 0 0.047,-0.48885 2.4777985,2.5471066 0 0 0 -2.47736,-2.54714 z m -0.0429,5.21519 c -5.10079,-1e-5 -4.64571,4.71186 -4.64571,4.71186 1.44166,0.59874 2.96738,0.80589 4.36976,0.8294 0.0558,-0.16463 0.11876,-0.3311 0.19327,-0.49867 0.45219,-1.01694 1.4079,-2.00858 2.85151,-2.59364 -0.53528,-0.59742 -0.89558,-1.35821 -0.96222,-2.20194 -0.50811,-0.15471 -1.10263,-0.24701 -1.80661,-0.24701 z" /><path
       id="path17-5"
       style="fill:#870148;fill-opacity:1;stroke:none;stroke-width:0.806497;stroke-linecap:round;stroke-dasharray:none;stroke-dashoffset:0;stroke-opacity:1"
       d="m 145.75906,169.32972 a 2.4606972,2.5295271 0 0 0 -2.46083,2.52904 2.4606972,2.5295271 0 0 0 0.003,0.0264 c 0.51117,0.53606 0.86628,1.2264 0.98857,1.99057 a 2.4606972,2.5295271 0 0 0 1.46968,0.51315 2.4606972,2.5295271 0 0 0 2.46032,-2.53008 2.4606972,2.5295271 0 0 0 -2.46032,-2.52904 z m -0.0429,5.17901 c -0.51976,0 -0.97852,0.0516 -1.38855,0.14004 -0.0451,0.89726 -0.41774,1.70884 -0.98857,2.33319 1.40139,0.58997 2.33666,1.56285 2.78123,2.56264 0.0688,0.15469 0.12714,0.30812 0.17983,0.46043 1.3055,-0.048 2.70354,-0.26696 4.02922,-0.81752 0,0 0.45244,-4.67877 -4.61316,-4.67878 z" /></g><path
     id="path4"
     style="display:inline;fill:#9d3e31;fill-opacity:1;stroke-width:0.264583;stroke:none;stroke-opacity:1"
     d="m 142.97323,52.808849 c -1.0916,2.277078 -1.34718,8.030532 -1.15393,9.033042 0.19289,1.00064 0.78779,0.7692 0.76119,1.07538 -0.0233,0.26766 -0.67398,0.43333 -0.84542,0.47284 -0.16334,-0.0487 -0.33105,-0.0902 -0.49868,-0.13177 -0.0197,-0.009 -0.031,-0.0161 -0.0532,-0.0258 -0.34053,-0.1489 -1.15491,-0.2576 -2.16834,-0.33796 -0.28636,-0.0262 -0.57085,-0.0444 -0.8537,-0.0584 -0.95098,-0.0565 -1.97813,-0.0915 -2.95434,-0.11575 -0.25665,-0.0124 -0.51359,-0.0187 -0.77101,-0.0186 -0.83723,-0.0162 -1.36887,-0.0216 -1.88619,-0.0248 -0.85831,-0.0379 -1.72957,-0.005 -2.61638,0.0574 -0.17117,0.009 -0.30713,0.018 -0.35967,0.0243 -0.006,4.9e-4 -0.0127,5.4e-4 -0.0191,0.001 l 5.2e-4,0.002 c -0.001,2.5e-4 -0.005,2.8e-4 -0.006,5.2e-4 0,0 0.0544,0.47811 0.18862,1.05006 0.009,0.0401 0.0206,0.0732 0.0331,0.10129 0.32902,1.45452 0.91099,2.85587 1.72547,4.15478 l 0.0646,0.14573 0.0279,0.002 c 0.47997,0.77198 1.03919,1.50383 1.67069,2.18643 3.60476,-2.21551 12.16137,-7.30876 25.70955,-7.22724 0.18,0.005 0.32325,0.0133 0.4687,0.0318 -10.40521,-0.0445 -16.40214,2.11582 -25.75347,7.62124 0.74209,0.71202 1.56354,1.35689 2.45205,1.92495 3.33468,-2.43229 10.71231,-9.07799 23.34328,-9.50691 -10.08857,0.762 -14.4911,3.40811 -22.7614,9.88983 1.01024,0.58776 2.09132,1.07562 3.22357,1.45469 4.77732,-4.2267 10.59711,-9.11652 20.35222,-11.23695 0.24613,-0.0345 0.28094,-0.0129 0.10493,0.0319 -7.86756,2.0473 -11.67793,4.58455 -19.95433,11.36985 1.30116,0.39948 2.65432,0.65366 4.02766,0.75654 4.43076,-4.07173 9.7408,-8.31378 16.22743,-12.03389 0.31083,-0.14484 0.38169,-0.12668 0.13022,0.0501 -4.60171,2.75822 -11.07102,7.6006 -15.45177,12.04009 0.16277,0.0123 0.32574,0.0225 0.48886,0.0305 1.4652,-0.006 2.92298,-0.18321 4.33462,-0.52813 4.39044,-3.94066 9.02074,-8.15795 10.99106,-11.33678 0.20821,-0.27562 0.22671,-0.22733 0.0646,0.0594 -1.74557,2.8221 -6.06388,7.28509 -9.83971,10.91975 4.70402,-1.49123 8.37998,-4.78207 9.39447,-7.43231 1.0145,-2.65023 0.96528,-4.2527 0.96528,-4.2527 -4.59416,-0.32793 -8.25509,-0.18831 -14.18686,0.32294 -0.76621,-0.0517 -1.35203,-0.20311 -0.82579,-0.59635 0.84259,-0.62964 0.47224,-5.073009 -0.55293,-7.562845 -0.89209,2.216888 -1.11409,6.853005 -0.61909,7.336505 0.61201,0.59783 0.30179,0.65009 0.30179,0.65009 0,0 -2.74563,0.11196 -2.81223,-0.29559 -0.0566,-0.34619 0.45985,-0.11103 0.69918,-1.17874 0.23947,-1.06833 0.005,-6.497469 -0.80822,-8.895582 z m -8.2336,10.161652 c 0.56543,0.0898 1.40343,0.25349 2.12545,0.51677 1.02081,0.42726 1.8493,0.97701 2.47478,1.47277 -0.14797,0.0445 -0.29586,0.0916 -0.4439,0.13798 -1.37506,-1.16553 -2.75423,-1.79881 -4.15633,-2.12752 z m 2.47478,0.0129 c 1.66864,0.27008 3.07516,0.89968 4.03025,1.45314 -0.20794,0.0516 -0.4158,0.10662 -0.62374,0.16175 -1.10512,-0.85276 -2.24601,-1.34603 -3.40651,-1.61489 z m -5.92522,0.13901 c 1.945,0.64244 3.03273,2.17977 3.87677,3.35328 -0.15647,0.0668 -0.31303,0.13234 -0.46974,0.20154 -1.14655,-1.766 -1.90649,-3.01994 -3.40703,-3.55482 z m 2.14406,0.11834 c 1.67384,0.58636 2.9424,1.56824 3.83749,2.40554 -0.10109,0.0366 -0.20219,0.0736 -0.30334,0.1111 -1.46958,-1.29031 -2.55581,-2.07481 -3.53415,-2.51664 z"
     sodipodi:nodetypes="csccccccccccccccscccccccccccccccccccccccccccscscssccccccccccccccccccc" /><g
     inkscape:groupmode="layer"
     id="layer3"
     inkscape:label="Layer 3"
     transform="translate(-18.264472,-41.601409)"><path
       style="display:inline;fill:#00ff00;fill-opacity:1;stroke:#9d3e31;stroke-width:0.683;stroke-linecap:round;stroke-dasharray:none;stroke-dashoffset:0;stroke-opacity:1"
       d="m 150.23698,97.351801 h 5.57363"
       id="path21" /><path
       style="display:inline;fill:#00ff00;fill-opacity:1;stroke:#9d3e31;stroke-width:0.683;stroke-linecap:round;stroke-dasharray:none;stroke-dashoffset:0;stroke-opacity:1"
       d="m 152.7415,99.031082 h 5.57363"
       id="path21-2" /></g><path
     d="m 75.405623,36.073161 h 0.538005 l 0.828106,3.328247 0.825469,-3.328247 h 0.598663 l 0.828106,3.328247 0.825468,-3.328247 h 0.540643 l -0.98898,3.937459 h -0.66987 L 77.90049,36.592705 77.061835,40.01062 h -0.669869 z m 6.667045,2.45267 q -0.588114,0 -0.81492,0.134502 -0.226806,0.134501 -0.226806,0.458886 0,0.258454 0.168786,0.411416 0.171423,0.150325 0.464161,0.150325 0.403504,0 0.646134,-0.284826 0.245267,-0.287464 0.245267,-0.762174 v -0.108129 z m 0.967882,-0.200433 v 1.685222 h -0.48526 v -0.448338 q -0.166149,0.269003 -0.414053,0.39823 -0.247904,0.126589 -0.606575,0.126589 -0.453612,0 -0.722614,-0.253179 -0.266366,-0.255816 -0.266366,-0.683055 0,-0.498446 0.332298,-0.751625 0.334934,-0.253179 0.996892,-0.253179 h 0.680418 v -0.04747 q 0,-0.334935 -0.221532,-0.516907 -0.218894,-0.18461 -0.617123,-0.18461 -0.253179,0 -0.493172,0.06066 -0.239992,0.06066 -0.461524,0.181972 v -0.448338 q 0.266366,-0.102854 0.516907,-0.152962 0.250542,-0.05274 0.487897,-0.05274 0.640859,0 0.957333,0.332297 0.316474,0.332297 0.316474,1.007441 z m 1.479514,-2.107187 v 0.838655 h 0.999529 v 0.377131 h -0.999529 v 1.603467 q 0,0.361307 0.09758,0.464161 0.100216,0.102854 0.403503,0.102854 h 0.498446 v 0.406141 h -0.498446 q -0.56174,0 -0.77536,-0.208345 -0.21362,-0.210982 -0.21362,-0.764811 v -1.603467 h -0.356033 v -0.377131 h 0.356033 v -0.838655 z m 4.164266,2.194217 v 0.237355 h -2.23114 q 0.03165,0.501084 0.30065,0.764812 0.27164,0.261091 0.754263,0.261091 0.279551,0 0.540642,-0.06857 0.263728,-0.06857 0.522182,-0.205708 v 0.458887 q -0.261091,0.110766 -0.535368,0.168786 -0.274277,0.05802 -0.556466,0.05802 -0.706792,0 -1.120845,-0.411415 -0.411415,-0.411416 -0.411415,-1.112933 0,-0.725252 0.390317,-1.149854 0.392955,-0.427239 1.05755,-0.427239 0.596025,0 0.941509,0.385042 0.348121,0.382406 0.348121,1.041726 z m -0.48526,-0.142413 q -0.0053,-0.398229 -0.224169,-0.635585 -0.216257,-0.237355 -0.574927,-0.237355 -0.406141,0 -0.651408,0.229444 -0.24263,0.229443 -0.279552,0.646133 z m 2.993313,-0.759537 q -0.08176,-0.04747 -0.179335,-0.06857 -0.09494,-0.02374 -0.210982,-0.02374 -0.411416,0 -0.632948,0.269003 -0.218894,0.266365 -0.218894,0.767449 v 1.555995 h -0.487897 v -2.953754 h 0.487897 v 0.458887 q 0.152962,-0.269003 0.39823,-0.398229 0.245267,-0.131864 0.596025,-0.131864 0.05011,0 0.110766,0.0079 0.06066,0.0053 0.134501,0.01846 z"
     id="text9"
     style="fill:#017fa4;stroke-width:0.450095"
     transform="scale(1.0211817,0.97925765)"
     aria-label="Water" /><path
     d="m 14.113501,81.211464 h 2.562509 v 0.461468 h -2.014175 v 1.199819 h 1.930024 v 0.461468 h -1.930024 v 1.468556 h 2.063036 v 0.461469 h -2.61137 z m 6.018095,2.217764 v 1.835016 h -0.499472 v -1.818729 q 0,-0.431609 -0.168301,-0.646056 -0.1683,-0.214448 -0.504901,-0.214448 -0.404463,0 -0.637912,0.25788 -0.233449,0.257879 -0.233449,0.703061 v 1.718292 H 17.585374 V 82.22398 h 0.502187 v 0.472327 q 0.179158,-0.274167 0.420751,-0.409893 0.244307,-0.135726 0.561906,-0.135726 0.523902,0 0.79264,0.325743 0.268738,0.323028 0.268738,0.952797 z m 3.596741,0.190016 v 0.244307 h -2.296486 q 0.03257,0.515759 0.309456,0.787211 0.279596,0.268738 0.776353,0.268738 0.287739,0 0.556477,-0.07058 0.271452,-0.07058 0.537475,-0.211732 v 0.472326 q -0.268737,0.11401 -0.551048,0.17373 -0.28231,0.05972 -0.572764,0.05972 -0.727491,0 -1.153671,-0.423465 -0.423466,-0.423466 -0.423466,-1.145528 0,-0.746494 0.401749,-1.183532 0.404464,-0.439752 1.088524,-0.439752 0.613481,0 0.969084,0.39632 0.358317,0.393606 0.358317,1.072236 z M 23.228865,83.47266 q -0.0054,-0.409893 -0.230735,-0.6542 -0.22259,-0.244307 -0.591765,-0.244307 -0.418037,0 -0.670487,0.236164 -0.249736,0.236163 -0.287739,0.665057 z m 3.080982,-0.781782 q -0.08415,-0.04886 -0.184588,-0.07058 -0.09772,-0.02443 -0.217162,-0.02443 -0.423465,0 -0.651485,0.276882 -0.225305,0.274166 -0.225305,0.789925 v 1.601568 H 24.529121 V 82.22398 h 0.502186 v 0.472327 q 0.157442,-0.276881 0.409893,-0.409893 0.25245,-0.135726 0.613482,-0.135726 0.05157,0 0.114009,0.0081 0.06243,0.0054 0.138441,0.019 z m 2.426782,1.017945 q 0,-0.542904 -0.225305,-0.841501 -0.222591,-0.298598 -0.627055,-0.298598 -0.401749,0 -0.627054,0.298598 -0.222591,0.298597 -0.222591,0.841501 0,0.54019 0.222591,0.838787 0.225305,0.298598 0.627054,0.298598 0.404464,0 0.627055,-0.298598 0.225305,-0.298597 0.225305,-0.838787 z m 0.499472,1.178103 q 0,0.776353 -0.344744,1.153671 -0.344745,0.380033 -1.055949,0.380033 -0.263309,0 -0.496758,-0.04072 -0.233449,-0.038 -0.453325,-0.119439 v -0.485899 q 0.219876,0.119439 0.434324,0.176444 0.214447,0.057 0.437038,0.057 0.491328,0 0.735635,-0.25788 0.244307,-0.255165 0.244307,-0.773638 v -0.247022 q -0.154728,0.268738 -0.39632,0.40175 -0.241593,0.133011 -0.578193,0.133011 -0.559192,0 -0.901221,-0.42618 -0.34203,-0.42618 -0.34203,-1.129241 0,-0.705775 0.34203,-1.131955 0.342029,-0.42618 0.901221,-0.42618 0.3366,0 0.578193,0.133011 0.241592,0.133012 0.39632,0.40175 V 82.22398 h 0.499472 z m 2.29377,0.659628 q -0.211733,0.542905 -0.412607,0.70849 -0.200875,0.165586 -0.537476,0.165586 h -0.399034 v -0.418036 h 0.293168 q 0.206304,0 0.320313,-0.09772 0.11401,-0.09772 0.252451,-0.461469 l 0.08958,-0.228019 -1.229678,-2.991403 h 0.529332 l 0.950082,2.377921 0.950083,-2.377921 h 0.529331 z"
     id="text9-5"
     style="fill:#1b3279;stroke-width:0.463277"
     transform="scale(1.0200842,0.98031122)"
     aria-label="Energy" /><path
     d="m 39.980354,148.49005 v 0.56731 q -0.271668,-0.25303 -0.580624,-0.37821 -0.306293,-0.12518 -0.652537,-0.12518 -0.681833,0 -1.044057,0.41816 -0.362225,0.41549 -0.362225,1.20386 0,0.78571 0.362225,1.20386 0.362224,0.41549 1.044057,0.41549 0.346244,0 0.652537,-0.12518 0.308956,-0.12518 0.580624,-0.3782 v 0.56198 q -0.282322,0.19177 -0.599268,0.28765 -0.314283,0.0959 -0.665854,0.0959 -0.902897,0 -1.422262,-0.55132 -0.519366,-0.55399 -0.519366,-1.51016 0,-0.95883 0.519366,-1.51016 0.519365,-0.55399 1.422262,-0.55399 0.356898,0 0.671181,0.0959 0.316946,0.0932 0.593941,0.28232 z m 0.809677,-0.47409 h 0.490068 v 4.14427 h -0.490068 z m 1.515483,1.16125 h 0.490068 v 2.98302 h -0.490068 z m 0,-1.16125 h 0.490068 v 0.62058 h -0.490068 z m 3.837978,1.73388 q 0.183775,-0.33026 0.439463,-0.4874 0.255687,-0.15714 0.601931,-0.15714 0.466097,0 0.719122,0.3276 0.253024,0.32493 0.253024,0.92687 v 1.80046 h -0.492731 v -1.78448 q 0,-0.42881 -0.151815,-0.63656 -0.151815,-0.20775 -0.463434,-0.20775 -0.380868,0 -0.601931,0.25303 -0.221064,0.25302 -0.221064,0.68982 v 1.68594 h -0.492731 v -1.78448 q 0,-0.43148 -0.151814,-0.63656 -0.151815,-0.20775 -0.468761,-0.20775 -0.375541,0 -0.596605,0.25569 -0.221063,0.25303 -0.221063,0.68716 v 1.68594 h -0.492731 v -2.98302 h 0.492731 v 0.46343 q 0.167795,-0.27433 0.402175,-0.40483 0.234381,-0.13051 0.556654,-0.13051 0.324936,0 0.551326,0.16513 0.229054,0.16513 0.338254,0.47941 z m 4.34669,0.91089 q -0.593941,0 -0.822994,0.13584 -0.229054,0.13583 -0.229054,0.46343 0,0.26101 0.170458,0.41549 0.173122,0.15182 0.468761,0.15182 0.407502,0 0.652536,-0.28765 0.247698,-0.29031 0.247698,-0.76973 v -0.1092 z m 0.977473,-0.20242 v 1.70192 h -0.490068 v -0.45278 q -0.167795,0.27167 -0.418156,0.40218 -0.250361,0.12784 -0.612585,0.12784 -0.458107,0 -0.729775,-0.25569 -0.269005,-0.25835 -0.269005,-0.68982 0,-0.50339 0.33559,-0.75907 0.338254,-0.25569 1.00677,-0.25569 h 0.687161 v -0.0479 q 0,-0.33826 -0.223727,-0.52203 -0.221063,-0.18644 -0.623239,-0.18644 -0.255687,0 -0.498058,0.0613 -0.24237,0.0613 -0.466097,0.18377 v -0.45278 q 0.269005,-0.10387 0.522029,-0.15447 0.253024,-0.0533 0.492731,-0.0533 0.64721,0 0.966819,0.33559 0.31961,0.33559 0.31961,1.01742 z m 1.494174,-2.12807 v 0.84697 h 1.009433 v 0.38087 h -1.009433 v 1.61935 q 0,0.36489 0.09855,0.46876 0.10121,0.10388 0.407502,0.10388 h 0.503385 v 0.41016 h -0.503385 q -0.567307,0 -0.783043,-0.21041 -0.215737,-0.21307 -0.215737,-0.77239 v -1.61935 h -0.35956 v -0.38087 h 0.35956 v -0.84697 z m 4.20553,2.21596 v 0.23971 h -2.253248 q 0.03196,0.50605 0.303629,0.77239 0.274332,0.26368 0.761737,0.26368 0.282321,0 0.545999,-0.0692 0.266342,-0.0693 0.527356,-0.20775 v 0.46344 q -0.263678,0.11186 -0.540673,0.17046 -0.276995,0.0586 -0.56198,0.0586 -0.713795,0 -1.13195,-0.41549 -0.415493,-0.41549 -0.415493,-1.12396 0,-0.73244 0.394185,-1.16125 0.396849,-0.43147 1.068029,-0.43147 0.601931,0 0.950838,0.38886 0.351571,0.38619 0.351571,1.05204 z m -0.490068,-0.14382 q -0.0053,-0.40218 -0.22639,-0.64188 -0.2184,-0.23971 -0.580624,-0.23971 -0.410166,0 -0.657863,0.23172 -0.245034,0.23171 -0.282322,0.65253 z"
     id="text9-5-9"
     style="fill:#709200;stroke-width:0.454555"
     transform="scale(1.0008787,0.99912206)"
     aria-label="Climate" /><path
     d="m 138.14645,81.081939 h 0.54833 v 3.591312 h 1.97346 v 0.461469 h -2.52179 z m 4.45724,2.524505 q -0.60534,0 -0.83878,0.138441 -0.23345,0.13844 -0.23345,0.472327 0,0.266023 0.17373,0.423465 0.17644,0.154728 0.47775,0.154728 0.41532,0 0.66506,-0.293169 0.25245,-0.295882 0.25245,-0.784496 v -0.111296 z m 0.99623,-0.206303 v 1.734579 h -0.49947 v -0.461469 q -0.17101,0.276881 -0.42618,0.409893 -0.25516,0.130297 -0.62434,0.130297 -0.4669,0 -0.74378,-0.260594 -0.27416,-0.263309 -0.27416,-0.703061 0,-0.513045 0.34202,-0.773639 0.34475,-0.260594 1.02609,-0.260594 h 0.70035 v -0.04886 q 0,-0.344744 -0.22802,-0.532046 -0.2253,-0.190017 -0.6352,-0.190017 -0.26059,0 -0.50761,0.06243 -0.24702,0.06243 -0.47504,0.187302 v -0.461469 q 0.27416,-0.105866 0.53204,-0.157442 0.25788,-0.05429 0.50219,-0.05429 0.65963,0 0.98537,0.342029 0.32574,0.34203 0.32574,1.036948 z m 3.55603,-0.100438 v 1.835017 h -0.49948 v -1.81873 q 0,-0.431608 -0.1683,-0.646056 -0.1683,-0.214447 -0.5049,-0.214447 -0.40446,0 -0.63791,0.25788 -0.23345,0.257879 -0.23345,0.703061 v 1.718292 h -0.50219 v -3.040264 h 0.50219 v 0.472327 q 0.17916,-0.274167 0.42075,-0.409893 0.24431,-0.135726 0.56191,-0.135726 0.5239,0 0.79264,0.325742 0.26874,0.323028 0.26874,0.952797 z m 2.99683,-0.743779 v -1.645 h 0.49947 v 4.223796 h -0.49947 v -0.45604 q -0.15744,0.271452 -0.39904,0.404464 -0.23887,0.130297 -0.57548,0.130297 -0.55104,0 -0.8985,-0.439753 -0.34475,-0.439752 -0.34475,-1.156386 0,-0.716633 0.34475,-1.156386 0.34746,-0.439752 0.8985,-0.439752 0.33661,0 0.57548,0.133011 0.2416,0.130297 0.39904,0.401749 z m -1.70201,1.061378 q 0,0.551048 0.22531,0.865933 0.22802,0.31217 0.62434,0.31217 0.39632,0 0.62434,-0.31217 0.22802,-0.314885 0.22802,-0.865933 0,-0.551048 -0.22802,-0.863217 -0.22802,-0.314885 -0.62434,-0.314885 -0.39632,0 -0.62434,0.314885 -0.22531,0.312169 -0.22531,0.863217 z"
     id="text9-5-93"
     style="fill:#9d3e31;stroke-width:0.463277"
     transform="scale(1.0200842,0.98031123)"
     aria-label="Land" /><path
     d="m 114.8609,146.53395 v 0.53476 q -0.31217,-0.1493 -0.58906,-0.22259 -0.27688,-0.0733 -0.53476,-0.0733 -0.44789,0 -0.6922,0.17373 -0.24159,0.17373 -0.24159,0.49404 0,0.26874 0.16016,0.40718 0.16287,0.13573 0.61348,0.21988 l 0.33117,0.0679 q 0.61348,0.11672 0.90393,0.41261 0.29317,0.29316 0.29317,0.78721 0,0.58905 -0.39632,0.89307 -0.3936,0.30403 -1.15638,0.30403 -0.28774,0 -0.61349,-0.0652 -0.32302,-0.0651 -0.67048,-0.19273 v -0.56462 q 0.33388,0.1873 0.6542,0.28231 0.32031,0.095 0.62977,0.095 0.46961,0 0.72477,-0.18459 0.25517,-0.18459 0.25517,-0.52661 0,-0.2986 -0.18459,-0.4669 -0.18187,-0.1683 -0.59991,-0.25245 l -0.33388,-0.0652 q -0.61349,-0.12216 -0.88765,-0.38275 -0.27417,-0.26059 -0.27417,-0.72478 0,-0.53747 0.37732,-0.84693 0.38003,-0.30945 1.04509,-0.30945 0.28502,0 0.58091,0.0516 0.29588,0.0516 0.60534,0.15473 z m 2.25576,1.22968 q -0.40175,0 -0.63519,0.31488 -0.23345,0.31217 -0.23345,0.85779 0,0.54562 0.23073,0.86051 0.23345,0.31217 0.63791,0.31217 0.39904,0 0.63249,-0.31489 0.23345,-0.31488 0.23345,-0.85779 0,-0.54019 -0.23345,-0.85507 -0.23345,-0.3176 -0.63249,-0.3176 z m 0,-0.42347 q 0.65149,0 1.02338,0.42347 0.37189,0.42346 0.37189,1.17267 0,0.7465 -0.37189,1.17268 -0.37189,0.42346 -1.02338,0.42346 -0.6542,0 -1.02609,-0.42346 -0.36917,-0.42618 -0.36917,-1.17268 0,-0.74921 0.36917,-1.17267 0.37189,-0.42347 1.02609,-0.42347 z m 4.4111,0.19002 v 0.4669 q -0.21173,-0.11673 -0.42618,-0.17373 -0.21173,-0.0597 -0.42889,-0.0597 -0.4859,0 -0.75464,0.30945 -0.26874,0.30675 -0.26874,0.86322 0,0.55648 0.26874,0.86593 0.26874,0.30675 0.75464,0.30675 0.21716,0 0.42889,-0.057 0.21445,-0.0597 0.42618,-0.17644 v 0.46147 q -0.20902,0.0977 -0.43432,0.14658 -0.22259,0.0489 -0.47504,0.0489 -0.68678,0 -1.09124,-0.43161 -0.40447,-0.43161 -0.40447,-1.16453 0,-0.74378 0.40718,-1.16996 0.4099,-0.42618 1.1211,-0.42618 0.23073,0 0.45061,0.0489 0.21988,0.0461 0.42618,0.14115 z m 0.86865,-0.11672 h 0.49947 v 3.04026 h -0.49947 z m 0,-1.18354 h 0.49947 v 0.63249 h -0.49947 z m 2.72266,1.53371 q -0.40175,0 -0.6352,0.31488 -0.23344,0.31217 -0.23344,0.85779 0,0.54562 0.23073,0.86051 0.23345,0.31217 0.63791,0.31217 0.39904,0 0.63249,-0.31489 0.23344,-0.31488 0.23344,-0.85779 0,-0.54019 -0.23344,-0.85507 -0.23345,-0.3176 -0.63249,-0.3176 z m 0,-0.42347 q 0.65149,0 1.02338,0.42347 0.37189,0.42346 0.37189,1.17267 0,0.7465 -0.37189,1.17268 -0.37189,0.42346 -1.02338,0.42346 -0.6542,0 -1.02609,-0.42346 -0.36917,-0.42618 -0.36917,-1.17268 0,-0.74921 0.36917,-1.17267 0.37189,-0.42347 1.02609,-0.42347 z m 2.0739,1.36812 h 1.46312 v 0.44518 h -1.46312 z"
     id="text9-5-6"
     style="fill:#870148;stroke-width:0.463277"
     transform="scale(1.0200842,0.98031123)"
     aria-label="Socio-" /><path
     d="m 105.79136,152.72504 h 2.56251 v 0.46146 h -2.01418 v 1.19982 h 1.93003 v 0.46147 h -1.93003 v 1.46856 h 2.06304 v 0.46147 h -2.61137 z m 5.67878,1.12924 v 0.46689 q -0.21173,-0.11672 -0.42618,-0.17372 -0.21173,-0.0597 -0.42889,-0.0597 -0.4859,0 -0.75464,0.30945 -0.26874,0.30674 -0.26874,0.86322 0,0.55648 0.26874,0.86593 0.26874,0.30674 0.75464,0.30674 0.21716,0 0.42889,-0.057 0.21445,-0.0597 0.42618,-0.17645 v 0.46147 q -0.20902,0.0977 -0.43432,0.14659 -0.22259,0.0489 -0.47504,0.0489 -0.68678,0 -1.09124,-0.43161 -0.40447,-0.43161 -0.40447,-1.16453 0,-0.74378 0.40718,-1.16996 0.4099,-0.42618 1.1211,-0.42618 0.23073,0 0.45061,0.0489 0.21988,0.0461 0.42618,0.14116 z m 2.04675,0.23345 q -0.40175,0 -0.6352,0.31488 -0.23345,0.31217 -0.23345,0.85779 0,0.54562 0.23074,0.8605 0.23345,0.31217 0.63791,0.31217 0.39903,0 0.63248,-0.31488 0.23345,-0.31489 0.23345,-0.85779 0,-0.54019 -0.23345,-0.85508 -0.23345,-0.31759 -0.63248,-0.31759 z m 0,-0.42347 q 0.65149,0 1.02337,0.42347 0.37189,0.42346 0.37189,1.17267 0,0.74649 -0.37189,1.17267 -0.37188,0.42347 -1.02337,0.42347 -0.6542,0 -1.02609,-0.42347 -0.36917,-0.42618 -0.36917,-1.17267 0,-0.74921 0.36917,-1.17267 0.37189,-0.42347 1.02609,-0.42347 z m 4.75041,1.27854 v 1.83502 h -0.49947 v -1.81873 q 0,-0.43161 -0.1683,-0.64606 -0.1683,-0.21445 -0.5049,-0.21445 -0.40446,0 -0.63791,0.25788 -0.23345,0.25788 -0.23345,0.70306 v 1.7183 h -0.50219 v -3.04027 h 0.50219 v 0.47233 q 0.17916,-0.27417 0.42075,-0.40989 0.24431,-0.13573 0.56191,-0.13573 0.5239,0 0.79264,0.32574 0.26873,0.32303 0.26873,0.9528 z m 2.17433,-0.85507 q -0.40174,0 -0.63519,0.31488 -0.23345,0.31217 -0.23345,0.85779 0,0.54562 0.23073,0.8605 0.23345,0.31217 0.63791,0.31217 0.39904,0 0.63249,-0.31488 0.23345,-0.31489 0.23345,-0.85779 0,-0.54019 -0.23345,-0.85508 -0.23345,-0.31759 -0.63249,-0.31759 z m 0,-0.42347 q 0.65149,0 1.02338,0.42347 0.37189,0.42346 0.37189,1.17267 0,0.74649 -0.37189,1.17267 -0.37189,0.42347 -1.02338,0.42347 -0.65419,0 -1.02608,-0.42347 -0.36918,-0.42618 -0.36918,-1.17267 0,-0.74921 0.36918,-1.17267 0.37189,-0.42347 1.02608,-0.42347 z m 4.59026,0.65691 q 0.1873,-0.3366 0.4479,-0.49675 0.26059,-0.16016 0.61348,-0.16016 0.47504,0 0.73292,0.33389 0.25788,0.33117 0.25788,0.94465 v 1.83502 h -0.50219 v -1.81873 q 0,-0.43704 -0.15473,-0.64877 -0.15472,-0.21174 -0.47232,-0.21174 -0.38818,0 -0.61348,0.25788 -0.22531,0.25788 -0.22531,0.70306 v 1.7183 h -0.50219 v -1.81873 q 0,-0.43976 -0.15472,-0.64877 -0.15473,-0.21174 -0.47776,-0.21174 -0.38275,0 -0.60805,0.2606 -0.22531,0.25788 -0.22531,0.70034 v 1.7183 h -0.50218 v -3.04027 h 0.50218 v 0.47233 q 0.17102,-0.2796 0.40989,-0.41261 0.23888,-0.13301 0.56734,-0.13301 0.33117,0 0.56191,0.1683 0.23344,0.1683 0.34474,0.48861 z m 3.04841,-0.58362 h 0.49947 v 3.04027 h -0.49947 z m 0,-1.18353 h 0.49947 v 0.63248 h -0.49947 z m 3.73246,1.30026 v 0.46689 q -0.21173,-0.11672 -0.42618,-0.17372 -0.21173,-0.0597 -0.42889,-0.0597 -0.4859,0 -0.75464,0.30945 -0.26873,0.30674 -0.26873,0.86322 0,0.55648 0.26873,0.86593 0.26874,0.30674 0.75464,0.30674 0.21716,0 0.42889,-0.057 0.21445,-0.0597 0.42618,-0.17645 v 0.46147 q -0.20901,0.0977 -0.43432,0.14659 -0.22259,0.0489 -0.47504,0.0489 -0.68677,0 -1.09124,-0.43161 -0.40446,-0.43161 -0.40446,-1.16453 0,-0.74378 0.40718,-1.16996 0.40989,-0.42618 1.12109,-0.42618 0.23074,0 0.45061,0.0489 0.21988,0.0461 0.42618,0.14116 z m 2.80682,-0.0271 v 0.47233 q -0.21173,-0.10858 -0.43975,-0.16287 -0.22802,-0.0543 -0.47233,-0.0543 -0.37189,0 -0.55919,0.11401 -0.18459,0.11401 -0.18459,0.34203 0,0.17373 0.13301,0.27416 0.13301,0.0977 0.53476,0.18731 l 0.17102,0.038 q 0.53205,0.11401 0.75464,0.32303 0.2253,0.2063 0.2253,0.57819 0,0.42346 -0.3366,0.67049 -0.33389,0.24702 -0.92022,0.24702 -0.24431,0 -0.51033,-0.0489 -0.26331,-0.0462 -0.55648,-0.14116 v -0.51576 q 0.27688,0.14387 0.54562,0.21716 0.26874,0.0706 0.53205,0.0706 0.35288,0 0.5429,-0.11944 0.19002,-0.12215 0.19002,-0.34203 0,-0.20359 -0.13844,-0.31217 -0.13573,-0.10858 -0.59991,-0.20902 l -0.17373,-0.0407 q -0.46419,-0.0977 -0.67049,-0.2986 -0.2063,-0.20359 -0.2063,-0.55648 0,-0.42889 0.30402,-0.66234 0.30403,-0.23345 0.86322,-0.23345 0.27688,0 0.52119,0.0407 0.24431,0.0407 0.45061,0.12215 z"
     id="text9-5-6-0"
     style="fill:#870148;stroke-width:0.463277"
     transform="scale(1.0200842,0.98031123)"
     aria-label="Economics" /></svg>
